<?xml version="1.0" encoding="UTF-8"?>
<svg width="29px" height="29px" viewBox="0 0 29 29" version="1.1" xmlns="http://www.w3.org/2000/svg" xmlns:xlink="http://www.w3.org/1999/xlink">
    <!-- Generator: Sketch 51.3 (57544) - http://www.bohemiancoding.com/sketch -->
    <title>mdpi/124027</title>
    <desc>Created with Sketch.</desc>
    <defs></defs>
    <g id="Page-1" stroke="none" stroke-width="1" fill="none" fill-rule="evenodd">
        <g id="124027" fill-rule="nonzero">
            <rect id="Rectangle-path" fill="#00C200" x="0" y="0" width="29" height="29" rx="14.5"></rect>
            <g id="Group" transform="translate(5.342105, 5.342105)">
                <path d="M18.9969374,8.67858256 C19.0407351,8.44444031 19.0624053,8.24743586 19.0723541,8.09290778 C19.0888211,7.83787552 19.070067,7.459244 19.0633773,7.34069317 C18.8319242,3.2550705 14.6552475,0 9.53674882,0 C4.26970387,0 0,3.44667836 0,7.69837664 C0,11.6063181 3.60719221,14.8340575 8.28045242,15.3305435 C8.56616665,15.3608921 8.77217593,15.6226556 8.74049979,15.9123885 L8.5415233,17.7299358 C8.49635335,18.1425136 8.91671978,18.4426915 9.28511217,18.262225 C13.2334233,16.3283899 15.5943823,14.3389061 17.0042565,12.6153058 C17.2608104,12.3016655 18.0973693,11.1121532 18.2679287,10.7997314 C18.6299745,10.1364735 18.8795527,9.42424003 18.9969374,8.67858256 Z" id="Shape" fill="#FFFFFF"></path>
                <path d="M4.31549394,9.53406205 L4.31549394,6.15199732 C4.31549394,5.86681982 4.11210557,5.63562753 3.86122441,5.63562753 C3.61034326,5.63562753 3.40695489,5.86681982 3.40695489,6.15199732 L3.40695489,10.0504318 C3.40695489,10.3356093 3.61034326,10.5668016 3.86122441,10.5668016 L5.67824927,10.5668016 C5.92913043,10.5668016 6.1325188,10.3356093 6.1325188,10.0504318 C6.1325188,9.76525434 5.92913043,9.53406205 5.67824927,9.53406205 L4.31549394,9.53406205 Z" id="Shape" fill="#00C500"></path>
                <path d="M7.2290775,10.5668016 L7.08013303,10.5668016 C6.93310528,10.5668016 6.81390977,10.3861448 6.81390977,10.1633045 L6.81390977,6.03912464 C6.81390977,5.81628433 6.93310528,5.63562753 7.08013303,5.63562753 L7.2290775,5.63562753 C7.37610525,5.63562753 7.49530075,5.81628433 7.49530075,6.03912464 L7.49530075,10.1633045 C7.49530075,10.3861448 7.37610525,10.5668016 7.2290775,10.5668016 Z" id="Shape" fill="#00C500"></path>
                <path d="M11.2167028,6.15201688 L11.2167028,8.53361141 C11.2167028,8.53361141 9.12341224,5.84383973 9.0914658,5.80849498 C8.99144886,5.6979216 8.84406518,5.62989506 8.68046254,5.63600776 C8.39534055,5.64665961 8.17669173,5.89213615 8.17669173,6.17319953 L8.17669173,10.0504095 C8.17669173,10.3355884 8.4113752,10.5667818 8.70085911,10.5667818 C8.99034302,10.5667818 9.2250265,10.3355884 9.2250265,10.0504095 L9.2250265,7.6832797 C9.2250265,7.6832797 11.3501407,10.3964733 11.3813499,10.4256449 C11.474056,10.51207 11.5985857,10.5655713 11.7360168,10.5667818 C12.027098,10.5693842 12.2650376,10.3157372 12.2650376,10.0289848 L12.2650376,6.15201688 C12.2650376,5.86683802 12.0303541,5.63564463 11.7408702,5.63564463 C11.4513863,5.63570515 11.2167028,5.86683802 11.2167028,6.15201688 Z" id="Shape" fill="#00C500"></path>
                <path d="M15.6719925,6.15199732 C15.6719925,5.86681982 15.4686041,5.63562753 15.217723,5.63562753 L13.4006981,5.63562753 C13.1498169,5.63562753 12.9464286,5.86681982 12.9464286,6.15199732 L12.9464286,10.0504318 C12.9464286,10.3356093 13.1498169,10.5668016 13.4006981,10.5668016 L15.217723,10.5668016 C15.4686041,10.5668016 15.6719925,10.3356093 15.6719925,10.0504318 C15.6719925,9.76525434 15.4686041,9.53406205 15.217723,9.53406205 L13.8549676,9.53406205 L13.8549676,8.61752384 L15.217723,8.61752384 C15.4686041,8.61752384 15.6719925,8.38633155 15.6719925,8.10115405 C15.6719925,7.81597655 15.4686041,7.58478427 15.217723,7.58478427 L13.8549676,7.58478427 L13.8549676,6.66824606 L15.217723,6.66824606 C15.4686041,6.6683671 15.6719925,6.43717481 15.6719925,6.15199732 Z" id="Shape" fill="#00C500"></path>
            </g>
        </g>
    </g>
</svg>