<?xml version="1.0" encoding="UTF-8"?>
<svg width="58px" height="41px" viewBox="0 0 58 41" version="1.1" xmlns="http://www.w3.org/2000/svg" xmlns:xlink="http://www.w3.org/1999/xlink">
    <!-- Generator: Sketch 49.1 (51147) - http://www.bohemiancoding.com/sketch -->
    <title>896849 copy 2</title>
    <desc>Created with Sketch.</desc>
    <defs></defs>
    <g id="Page-1" stroke="none" stroke-width="1" fill="none" fill-rule="evenodd">
        <g id="Artboard" transform="translate(-771.000000, -3505.000000)" fill="#009E96" fill-rule="nonzero">
            <g id="Group-9" transform="translate(114.000000, 3113.000000)">
                <g id="896849-copy" transform="translate(657.000000, 401.000000)">
                    <path d="M55.3234531,0 L20.6765469,0 C19.2006472,0 18,1.19038551 18,2.6534197 L18,24.3465803 C18,25.8097273 19.2007609,27 20.6765469,27 L55.3234531,27 C56.7993528,27 58,25.8096145 58,24.3465803 L58,2.65364521 C58,1.19038551 56.7992391,0 55.3234531,0 Z M20.6765469,1.69136901 L55.3234531,1.69136901 C55.7300762,1.69136901 56.0785778,1.94078956 56.2226873,2.29327086 L41.2587289,13.7782302 C39.3400365,15.2508488 36.6597361,15.2508488 34.7410436,13.7782302 L19.7773127,2.29338362 C19.9214222,1.94101507 20.2699238,1.69136901 20.6765469,1.69136901 Z M56.293889,22.622286 L46.7280658,15.2805042 C46.3555649,14.9946628 45.8197323,15.0622048 45.5312858,15.431487 C45.2428393,15.8007693 45.3110838,16.3319719 45.6835847,16.617926 L56.2225736,24.7067291 C56.078464,25.0592104 55.7300762,25.3087438 55.3234531,25.3087438 L20.6765469,25.3087438 C20.2699238,25.3087438 19.9214222,25.0593232 19.7773127,24.7068419 L30.3163016,16.6180388 C30.6888025,16.3320846 30.7570469,15.800882 30.4686004,15.4315998 C30.1801539,15.0623176 29.6444351,14.9946628 29.2718204,15.2806169 L19.7059973,22.6223987 L19.7059973,4.37782678 L33.6965625,15.1156521 C34.9634068,16.0879637 36.4816181,16.5741759 37.9998294,16.5741759 C39.5180407,16.5741759 41.036252,16.0879637 42.3030963,15.1156521 L56.293889,4.37782678 L56.293889,22.622286 Z" id="Shape"></path>
                    <path d="M16.1231541,15 L4.87684587,15 C4.39259313,15 4,15.4477333 4,16 C4,16.5522667 4.39259313,17 4.87684587,17 L16.1231541,17 C16.6074069,17 17,16.5522667 17,16 C17,15.4477333 16.6074069,15 16.1231541,15 Z" id="Shape"></path>
                    <path d="M15.1623504,20 L0.837649555,20 C0.375043628,20 0,20.4477333 0,21 C0,21.5522667 0.375043628,22 0.837649555,22 L15.1623504,22 C15.6249564,22 16,21.5522667 16,21 C16,20.4477333 15.6249564,20 15.1623504,20 Z" id="Shape"></path>
                    <path d="M15.1469626,11 L7.85303745,11 C7.3819333,11 7,11.4477333 7,12 C7,12.5522667 7.3819333,13 7.85303745,13 L15.1469626,13 C15.6180667,13 16,12.5522667 16,12 C16,11.4476 15.6180667,11 15.1469626,11 Z" id="Shape"></path>
                    <path d="M15.2032296,6 L11.7967704,6 C11.3567407,6 11,6.44773333 11,7 C11,7.55226667 11.3567407,8 11.7967704,8 L15.2032296,8 C15.6432593,8 16,7.55226667 16,7 C16,6.44773333 15.6432593,6 15.2032296,6 Z" id="Shape"></path>
                </g>
            </g>
        </g>
    </g>
</svg>