<?xml version="1.0" encoding="UTF-8"?>
<svg width="58px" height="41px" viewBox="0 0 58 41" version="1.1" xmlns="http://www.w3.org/2000/svg" xmlns:xlink="http://www.w3.org/1999/xlink">
    <!-- Generator: Sketch 49.1 (51147) - http://www.bohemiancoding.com/sketch -->
    <title>896849 copy 3</title>
    <desc>Created with Sketch.</desc>
    <defs></defs>
    <g id="Page-1" stroke="none" stroke-width="1" fill="none" fill-rule="evenodd">
        <g id="Artboard" transform="translate(-1048.000000, -3505.000000)" fill="#009E96" fill-rule="nonzero">
            <g id="Group-9" transform="translate(114.000000, 3113.000000)">
                <g id="54862-copy" transform="translate(944.000000, 396.000000)">
                    <path d="M21.4169391,14.3523916 L16.7954098,14.3523916 L16.7954098,9.72286868 C16.7954098,9.08444722 16.2784335,8.56518567 15.6399972,8.56518567 C15.0015609,8.56518567 14.4846451,9.08329854 14.4846451,9.72286868 L14.4846451,14.3523916 L9.86420401,14.3523916 C9.22576768,14.3523916 8.70885191,14.5629014 8.70885191,15.2024715 C8.70885191,15.8420417 9.22582814,16.6677576 9.86420401,16.6677576 L14.4857938,16.6677576 L14.4857938,21.2961923 C14.4857938,21.9357624 15.00277,22.4538149 15.6411459,22.4538149 C16.2795822,22.4538149 16.7965585,21.9357624 16.7965585,21.2961923 L16.7965585,16.6677576 L21.4181483,16.6677576 C22.0565846,16.6677576 22.5735004,16.1496447 22.5735004,15.5100746 C22.5723517,14.8705649 22.0553754,14.3523916 21.4169391,14.3523916 Z M36.648724,34.987068 L27.0956368,25.5869165 C29.5972068,22.8690911 31.1342907,19.2746452 31.1342907,15.3193341 C31.1342907,6.85813374 24.1649359,0 15.5671453,0 C6.96935475,0 0,6.85813374 0,15.3192736 C0,23.7804135 6.96935475,30.6385473 15.5671453,30.6385473 C19.2819863,30.6385473 22.6891565,29.3536636 25.3654501,27.2175514 L34.9555376,36.6547627 C35.4228174,37.1150791 36.1814442,37.1150791 36.648724,36.6547627 C37.117092,36.1945068 37.117092,35.4473844 36.648724,34.987068 Z M15.5671453,28.2815871 C8.29247776,28.2815871 2.39522447,22.4781789 2.39522447,15.3192736 C2.39522447,8.16036843 8.29247776,2.35696015 15.5671453,2.35696015 C22.8418734,2.35696015 28.7390662,8.16036843 28.7390662,15.3192736 C28.7390662,22.4781789 22.8418734,28.2815871 15.5671453,28.2815871 Z" id="Shape"></path>
                </g>
            </g>
        </g>
    </g>
</svg>