<?xml version="1.0" encoding="UTF-8"?>
<svg width="30px" height="30px" viewBox="0 0 30 30" version="1.1" xmlns="http://www.w3.org/2000/svg" xmlns:xlink="http://www.w3.org/1999/xlink">
    <!-- Generator: Sketch 49.1 (51147) - http://www.bohemiancoding.com/sketch -->
    <title>cloud</title>
    <desc>Created with Sketch.</desc>
    <defs></defs>
    <g id="Page-1" stroke="none" stroke-width="1" fill="none" fill-rule="evenodd">
        <g id="2_web" transform="translate(-232.000000, -1416.000000)" fill-rule="nonzero">
            <g id="Group-5-Copy" transform="translate(89.000000, 1416.000000)">
                <g id="cloud" transform="translate(143.000000, 5.000000)">
                    <g opacity="0.456564832" fill="#FFFFFF" id="Page-1">
                        <g opacity="0.569904384">
                            <g id="cloud">
                                <g id="sunny">
                                    <g id="Page-1">
                                        <path d="M4.98058059,7.12464566 C4.97986353,7.08415985 4.97898716,7.04375126 4.97898716,7.00318839 C4.97898716,3.13544867 8.21840022,0 12.2143854,0 C15.6579996,0 18.5394431,2.32858673 19.2703606,5.4476869 C19.9519607,5.07837965 20.7370556,4.86692826 21.5736989,4.86692826 C24.1842552,4.86692826 26.3005219,6.91527643 26.3005219,9.44205062 C26.3005219,9.54530855 26.2957415,9.6474869 26.2887303,9.74904837 C28.2267692,10.4454034 29.6079754,12.2509913 29.6079754,14.3691292 C29.6079754,17.090235 27.3289373,19.2962077 24.5175262,19.2962077 L6.36306161,19.2962077 C2.84885737,19.2961306 0,16.5387033 0,13.1372824 C0,10.1953942 2.13116553,7.73571077 4.98058059,7.12464566 Z" id="Shape"></path>
                                    </g>
                                </g>
                            </g>
                        </g>
                    </g>
                    <path d="M4.88882208,7.26912063 C4.88811822,7.22781385 4.88725797,7.18658582 4.88725797,7.14520045 C4.88725797,3.19902991 8.06699048,0 11.9893566,0 C15.3695281,0 18.1978861,2.37580629 18.9153377,5.55815619 C19.5843805,5.18136002 20.3550114,4.96562079 21.176241,4.96562079 C23.7387023,4.96562079 25.8159805,7.05550579 25.8159805,9.63351834 C25.8159805,9.7388702 25.8112882,9.84312055 25.8044062,9.94674149 C27.7067401,10.6572174 29.0625,12.4994193 29.0625,14.6605092 C29.0625,17.4367941 26.8254492,19.6875 24.0658334,19.6875 L6.24583328,19.6875 C2.79637213,19.6874213 0,16.8740783 0,13.4036828 C0,10.4021384 2.09190251,7.892577 4.88882208,7.26912063 Z" id="Shape" fill="#4FBBD5"></path>
                </g>
            </g>
        </g>
    </g>
</svg>