<?xml version="1.0" encoding="UTF-8"?>
<svg width="364px" height="255px" viewBox="0 0 364 255" version="1.1" xmlns="http://www.w3.org/2000/svg" xmlns:xlink="http://www.w3.org/1999/xlink">
    <!-- Generator: Sketch 49.1 (51147) - http://www.bohemiancoding.com/sketch -->
    <title>Group 5</title>
    <desc>Created with Sketch.</desc>
    <defs></defs>
    <g id="Page-1" stroke="none" stroke-width="1" fill="none" fill-rule="evenodd">
        <polygon id="Fill-1-Copy-6" fill="#009E96" opacity="0.600713315" points="290.846821 320.0001 253 255.55451 289.886349 190.554001 364.623804 190 402.472155 254.446202 365.584276 319.446711"></polygon>
        <polygon id="Fill-1-Copy-4" fill="#009E96" opacity="0.566745924" points="216.189521 88 206 70.6492775 215.930932 53.1491539 236.052539 53 246.242472 70.3508873 236.311128 87.8510109"></polygon>
        <g id="Group-5" transform="translate(1.000000, 0.000000)" fill="#FFFFFF">
            <polygon id="Fill-1" fill-opacity="0.15625" points="297.846821 130.0001 260 65.5545099 296.886349 0.554000742 371.623804 0 409.472155 64.4462023 372.584276 129.446711"></polygon>
            <polygon id="Fill-1-Copy-5" fill-opacity="0.483469203" points="168.06171 215.344898 147 179.481005 167.527208 143.308301 209.118511 143 230.181073 178.864234 209.653013 215.036938"></polygon>
            <polygon id="Fill-1-Copy-11" fill-opacity="0.216825181" points="58.8475875 141 44 115.717519 58.4707873 90.2173386 87.7908431 90 102.639031 115.282721 88.1676434 140.782902"></polygon>
            <polygon id="Fill-1-Copy-12" stroke-opacity="0.230808424" stroke="#FFFFFF" fill-opacity="0.0539515399" points="26.0799247 211.581971 0 167.173059 25.4180716 122.381757 76.9190207 122 103 166.409334 77.5808738 211.200636"></polygon>
            <polygon id="Fill-1-Copy" stroke-opacity="0.557829484" stroke="#FFFFFF" stroke-width="2" fill-opacity="0.15625" points="270.629006 165.858604 250 130.731519 270.105486 95.3019668 310.842314 95 331.472155 130.127419 311.365835 165.556971"></polygon>
        </g>
    </g>
</svg>