<?xml version="1.0" encoding="UTF-8"?>
<svg width="383px" height="173px" viewBox="0 0 383 173" version="1.1" xmlns="http://www.w3.org/2000/svg" xmlns:xlink="http://www.w3.org/1999/xlink">
    <!-- Generator: Sketch 49.1 (51147) - http://www.bohemiancoding.com/sketch -->
    <title>Fill 1 Copy 19</title>
    <desc>Created with Sketch.</desc>
    <defs></defs>
    <g id="Page-1" stroke="none" stroke-width="1" fill="none" fill-rule="evenodd">
        <polygon id="Fill-1-Copy-17" fill-opacity="0.483469203" fill="#FFFFFF" points="115.771779 69 105 50.6578077 115.498414 32.157677 136.769827 32 147.542042 50.3423665 137.043192 68.8424972"></polygon>
        <polygon id="Fill-1-Copy-18" stroke="#FFFFFF" fill-opacity="0.0539515399" fill="#FFFFFF" points="284.079925 104.581971 258 60.1730593 283.418072 15.3817572 334.919021 15 361 59.4093339 335.580874 104.200636"></polygon>
        <polygon id="Fill-1-Copy-19" fill="#009E96" points="25.4710175 80.0112236 8 50.261564 25.0276402 20.2557403 59.528276 20 77 49.7499422 59.9716534 79.7557659"></polygon>
        <polygon id="Fill-1-Copy-20" fill-opacity="0.15625" fill="#FFFFFF" points="-13.1531792 221.0001 -51 156.55451 -14.1136512 91.5540007 60.6238036 91 98.4721548 155.446202 61.5842756 220.446711"></polygon>
        <polygon id="Fill-1-Copy-21" stroke-opacity="0.557829484" stroke="#FFFFFF" stroke-width="2" fill-opacity="0.15625" fill="#FFFFFF" points="44.6290064 126.858604 24 91.7315192 44.105486 56.3019668 84.8423142 56 105.472155 91.1274187 85.3658346 126.556971"></polygon>
        <polygon id="Fill-1-Copy-22" stroke-opacity="0.557829484" stroke="#FFFFFF" stroke-width="2" points="191.847588 198 177 172.717519 191.470787 147.217339 220.790843 147 235.639031 172.282721 221.167643 197.782902"></polygon>
    </g>
</svg>