<?xml version="1.0" encoding="utf-8"?>
<!-- Generator: Adobe Illustrator 22.0.1, SVG Export Plug-In . SVG Version: 6.00 Build 0)  -->
<svg version="1.1" xmlns="http://www.w3.org/2000/svg" xmlns:xlink="http://www.w3.org/1999/xlink" x="0px" y="0px"
	 viewBox="0 0 100 100" style="enable-background:new 0 0 100 100;" xml:space="preserve">
<style type="text/css">
	.st0{fill:#FFFFFF;}
	.st1{clip-path:url(#SVGID_4_);}
	.st2{fill:none;stroke:#FFFFFF;stroke-width:2;stroke-miterlimit:10;stroke-dasharray:3.9688,3.9688;}
	.st3{clip-path:url(#SVGID_6_);}
	.st4{fill:#696969;}
	.st5{fill:#9E5800;}
	.st6{clip-path:url(#SVGID_8_);}
	.st7{clip-path:url(#SVGID_10_);}
	.st8{clip-path:url(#SVGID_12_);}
	.st9{clip-path:url(#SVGID_14_);}
	.st10{clip-path:url(#SVGID_16_);}
	.st11{clip-path:url(#SVGID_18_);}
	.st12{clip-path:url(#SVGID_20_);}
	.st13{clip-path:url(#SVGID_22_);}
	.st14{clip-path:url(#SVGID_24_);}
	.st15{clip-path:url(#SVGID_26_);}
	.st16{clip-path:url(#SVGID_28_);}
	.st17{clip-path:url(#SVGID_30_);}
	.st18{fill:none;stroke:#9E5800;stroke-width:2;stroke-miterlimit:10;}
	.st19{fill:none;stroke:#9E5800;stroke-miterlimit:10;}
	.st20{clip-path:url(#SVGID_32_);}
	.st21{clip-path:url(#SVGID_34_);}
	.st22{clip-path:url(#SVGID_36_);}
</style>
<g id="KV">
</g>
<g id="圖層_2">
	<g>
		<g>
			<g>
				<path class="st0" d="M75.9,73.3c-14,17.5-40.8,18.5-55.3,1.1C7.3,58.7,10.3,34.1,27.3,22.3c3.9-2.7,8.4-4.7,13-5.6
					c0.5-0.1,6.4-1.3,6.1-1.6c0.2,0.2,0,1.4,0,1.6c1,5,0.2,11.1,0.3,16.2c0.1,5.4-0.1,10.8,0.3,16.2c0.1,2.4,0.9,2.7,2.8,4.3
					c8.7,7.2,17.4,14.3,26.1,21.5c1,0.8,2.8-0.8,1.6-1.7c-4.5-3.7-9-7.4-13.5-11.1c-3.3-2.7-6.7-5.5-10-8.2c-1.4-1.1-4.1-2.6-5-4.1
					c0.7,1.1,0.2,0.1,0.3-0.6c0.2-1.3,0-2.7-0.1-4c-0.1-4-0.1-8.1-0.2-12.1c-0.1-6.1-0.2-12.2-0.3-18.3c0-0.5-0.5-0.9-1-0.9
					c-26.7,0.5-46.2,28-35,53.1c11.6,26.2,47.3,29.5,64.8,7.6C78.7,73.3,76.8,72.3,75.9,73.3z"/>
			</g>
		</g>
		<g>
			<g>
				<path class="st0" d="M18.4,46.2c1.7-7.4,5.5-13.8,11-18.9c1.2-1.1-1-0.5-1.5,0c-5.9,5.4-9.9,12.2-11.7,20
					C16.1,47.8,18.2,47,18.4,46.2L18.4,46.2z"/>
			</g>
		</g>
		<g>
			<g>
				<path class="st0" d="M82.9,67.7c17.4-23.7,0-56.4-28.8-56.9c-0.3,0-0.5,0.3-0.5,0.6c0.2,6.1,0.3,12.2,0.5,18.3
					c0.1,3.9,0.2,7.7,0.3,11.6c0,1.4-0.4,3.8,0.2,5c0.6,1.2,2.6,2.3,3.6,3.1c2.9,2.3,5.9,4.6,8.8,6.9c4.8,3.7,9.5,7.5,14.3,11.2
					c1.2,0.9,2.1-0.2,0.9-1.1c-5.2-4-10.3-8.1-15.5-12.1c-3-2.3-5.9-4.6-8.9-7c-0.6-0.4-1.4-0.9-1.9-1.5c0.9,1.2,0.4,0.5,0.5-0.8
					c0.5-8-0.4-16.2-0.6-24.2c0-1.1-1-7.7-0.2-8.4c0.5-0.5,7.3,1.3,8.5,1.6c3.6,1,6.9,2.6,10,4.8c15.4,11,17.7,32.5,6.7,47.4
					C80.4,66.9,82.4,68.5,82.9,67.7z"/>
			</g>
		</g>
		<g>
			<circle class="st0" cx="16.6" cy="50.6" r="1.3"/>
		</g>
		<g>
			<g>
				<path class="st0" d="M47.7,49.8c2.8,12.2,5.6,24.5,8.4,36.7c0.1,0.5,1.6,2.4,1.3,1.3c-2.8-12.2-5.6-24.5-8.4-36.7
					C48.9,50.6,47.4,48.7,47.7,49.8L47.7,49.8z"/>
			</g>
		</g>
		<g>
			<g>
				<path class="st0" d="M55.6,26.3c3.6-3.8,7.1-7.6,10.7-11.4c0.5-0.5-0.5-1.7-1-1.1c-3.6,3.8-7.1,7.6-10.7,11.4
					C54.2,25.7,55.1,26.8,55.6,26.3L55.6,26.3z"/>
			</g>
		</g>
		<g>
			<g>
				<path class="st0" d="M56.3,34.1c5.4-5.8,10.8-11.5,16.2-17.3c0.3-0.3-1-1.1-1.3-0.7C65.7,21.9,60.4,27.6,55,33.4
					C54.7,33.7,55.9,34.5,56.3,34.1L56.3,34.1z"/>
			</g>
		</g>
		<g>
			<g>
				<path class="st0" d="M61.3,37.9C66.6,32.3,71.8,26.7,77,21c0.5-0.6-0.6-1.5-1.1-1c-5.2,5.6-10.5,11.2-15.7,16.8
					C59.7,37.4,60.8,38.4,61.3,37.9L61.3,37.9z"/>
			</g>
		</g>
		<g>
			<g>
				<path class="st0" d="M58.7,48.7c7.4-7.9,14.8-15.8,22.2-23.7c0.6-0.7-0.6-1.5-1.1-0.9C72.4,32,65,39.9,57.6,47.8
					C57,48.4,58.2,49.3,58.7,48.7L58.7,48.7z"/>
			</g>
		</g>
		<g>
			<g>
				<path class="st0" d="M63.2,52c6.9-7.4,13.9-14.8,20.8-22.2c0.7-0.7-0.6-0.9-1-0.4c-6.9,7.4-13.9,14.8-20.8,22.2
					C61.6,52.3,62.8,52.5,63.2,52L63.2,52z"/>
			</g>
		</g>
		<g>
			<g>
				<path class="st0" d="M68.6,56.2c6.3-6.7,12.6-13.4,18.9-20.2c0.1-0.1-1.1-1-1.3-0.7C79.8,42,73.5,48.8,67.3,55.5
					C67.2,55.6,68.3,56.4,68.6,56.2L68.6,56.2z"/>
			</g>
		</g>
		<g>
			<g>
				<path class="st0" d="M73,59.8c5.3-5.7,10.6-11.4,16-17.1c0.3-0.3-1-0.8-1.4-0.5C82.3,48,77,53.7,71.6,59.3
					C71.3,59.7,72.7,60.2,73,59.8L73,59.8z"/>
			</g>
		</g>
		<g>
			<circle class="st0" cx="58.6" cy="39.6" r="1.1"/>
		</g>
		<g>
			<defs>
				<polygon id="SVGID_33_" points="56.7,87.2 51,63.6 48.9,51.9 76.8,73.9 68.8,81.2 				"/>
			</defs>
			<clipPath id="SVGID_2_">
				<use xlink:href="#SVGID_33_"  style="overflow:visible;"/>
			</clipPath>
			<g style="clip-path:url(#SVGID_2_);">
				<circle class="st0" cx="65.7" cy="84.7" r="0.6"/>
				<circle class="st0" cx="63.9" cy="86.8" r="0.6"/>
				<circle class="st0" cx="62.2" cy="88.8" r="0.6"/>
				<circle class="st0" cx="60.5" cy="90.8" r="0.6"/>
				<circle class="st0" cx="58.7" cy="92.9" r="0.6"/>
				<circle class="st0" cx="57" cy="94.9" r="0.6"/>
			</g>
			<g style="clip-path:url(#SVGID_2_);">
				<circle class="st0" cx="60.4" cy="80.2" r="0.6"/>
				<circle class="st0" cx="58.7" cy="82.3" r="0.6"/>
				<circle class="st0" cx="57" cy="84.3" r="0.6"/>
				<circle class="st0" cx="55.2" cy="86.4" r="0.6"/>
				<circle class="st0" cx="53.5" cy="88.4" r="0.6"/>
				<circle class="st0" cx="51.7" cy="90.4" r="0.6"/>
			</g>
			<g style="clip-path:url(#SVGID_2_);">
				<circle class="st0" cx="95.1" cy="89.5" r="0.6"/>
				<circle class="st0" cx="93.4" cy="91.5" r="0.6"/>
				<circle class="st0" cx="91.6" cy="93.6" r="0.6"/>
				<circle class="st0" cx="89.9" cy="95.6" r="0.6"/>
				<circle class="st0" cx="88.2" cy="97.7" r="0.6"/>
				<circle class="st0" cx="86.4" cy="99.7" r="0.6"/>
			</g>
			<g style="clip-path:url(#SVGID_2_);">
				<circle class="st0" cx="62.2" cy="81.7" r="0.6"/>
				<circle class="st0" cx="60.4" cy="83.8" r="0.6"/>
				<circle class="st0" cx="58.7" cy="85.8" r="0.6"/>
				<circle class="st0" cx="57" cy="87.9" r="0.6"/>
				<circle class="st0" cx="55.2" cy="89.9" r="0.6"/>
				<circle class="st0" cx="53.5" cy="91.9" r="0.6"/>
			</g>
			<g style="clip-path:url(#SVGID_2_);">
				<circle class="st0" cx="96.9" cy="91" r="0.6"/>
				<circle class="st0" cx="95.1" cy="93" r="0.6"/>
				<circle class="st0" cx="93.4" cy="95.1" r="0.6"/>
				<circle class="st0" cx="91.7" cy="97.1" r="0.6"/>
				<circle class="st0" cx="89.9" cy="99.2" r="0.6"/>
			</g>
			<g style="clip-path:url(#SVGID_2_);">
				<circle class="st0" cx="63.9" cy="83.2" r="0.6"/>
				<circle class="st0" cx="62.2" cy="85.3" r="0.6"/>
				<circle class="st0" cx="60.5" cy="87.3" r="0.6"/>
				<circle class="st0" cx="58.7" cy="89.3" r="0.6"/>
				<circle class="st0" cx="57" cy="91.4" r="0.6"/>
				<circle class="st0" cx="55.2" cy="93.4" r="0.6"/>
			</g>
			<g style="clip-path:url(#SVGID_2_);">
				<circle class="st0" cx="98.6" cy="92.5" r="0.6"/>
				<circle class="st0" cx="96.9" cy="94.5" r="0.6"/>
				<circle class="st0" cx="95.1" cy="96.6" r="0.6"/>
				<circle class="st0" cx="93.4" cy="98.6" r="0.6"/>
			</g>
			<g style="clip-path:url(#SVGID_2_);">
				<circle class="st0" cx="52.9" cy="53.4" r="0.6"/>
				<circle class="st0" cx="51.1" cy="55.4" r="0.6"/>
				<circle class="st0" cx="49.4" cy="57.4" r="0.6"/>
				<circle class="st0" cx="47.7" cy="59.5" r="0.6"/>
				<circle class="st0" cx="45.9" cy="61.5" r="0.6"/>
				<circle class="st0" cx="44.2" cy="63.6" r="0.6"/>
			</g>
			<g style="clip-path:url(#SVGID_2_);">
				<circle class="st0" cx="54.6" cy="54.9" r="0.6"/>
				<circle class="st0" cx="52.9" cy="56.9" r="0.6"/>
				<circle class="st0" cx="51.1" cy="58.9" r="0.6"/>
				<circle class="st0" cx="49.4" cy="61" r="0.6"/>
				<circle class="st0" cx="47.7" cy="63" r="0.6"/>
				<circle class="st0" cx="45.9" cy="65.1" r="0.6"/>
			</g>
			<g style="clip-path:url(#SVGID_2_);">
				<circle class="st0" cx="49.4" cy="50.4" r="0.6"/>
				<circle class="st0" cx="47.6" cy="52.4" r="0.6"/>
				<circle class="st0" cx="45.9" cy="54.5" r="0.6"/>
				<circle class="st0" cx="44.2" cy="56.5" r="0.6"/>
				<circle class="st0" cx="42.4" cy="58.5" r="0.6"/>
				<circle class="st0" cx="40.7" cy="60.6" r="0.6"/>
			</g>
			<g style="clip-path:url(#SVGID_2_);">
				<circle class="st0" cx="56.4" cy="56.4" r="0.6"/>
				<circle class="st0" cx="54.6" cy="58.4" r="0.6"/>
				<circle class="st0" cx="52.9" cy="60.4" r="0.6"/>
				<circle class="st0" cx="51.2" cy="62.5" r="0.6"/>
				<circle class="st0" cx="49.4" cy="64.5" r="0.6"/>
				<circle class="st0" cx="47.7" cy="66.6" r="0.6"/>
			</g>
			<g style="clip-path:url(#SVGID_2_);">
				<circle class="st0" cx="51.1" cy="51.9" r="0.6"/>
				<circle class="st0" cx="49.4" cy="53.9" r="0.6"/>
				<circle class="st0" cx="47.6" cy="55.9" r="0.6"/>
				<circle class="st0" cx="45.9" cy="58" r="0.6"/>
				<circle class="st0" cx="44.2" cy="60" r="0.6"/>
				<circle class="st0" cx="42.4" cy="62.1" r="0.6"/>
			</g>
			<g style="clip-path:url(#SVGID_2_);">
				<circle class="st0" cx="58.1" cy="57.9" r="0.6"/>
				<circle class="st0" cx="56.4" cy="59.9" r="0.6"/>
				<circle class="st0" cx="54.7" cy="61.9" r="0.6"/>
				<circle class="st0" cx="52.9" cy="64" r="0.6"/>
				<circle class="st0" cx="51.2" cy="66" r="0.6"/>
				<circle class="st0" cx="49.4" cy="68.1" r="0.6"/>
			</g>
			<g style="clip-path:url(#SVGID_2_);">
				<circle class="st0" cx="100.1" cy="93.7" r="0.6"/>
				<circle class="st0" cx="98.4" cy="95.8" r="0.6"/>
				<circle class="st0" cx="96.6" cy="97.8" r="0.6"/>
				<circle class="st0" cx="94.9" cy="99.9" r="0.6"/>
			</g>
			<g style="clip-path:url(#SVGID_2_);">
				<circle class="st0" cx="100.1" cy="97.3" r="0.6"/>
				<circle class="st0" cx="98.4" cy="99.3" r="0.6"/>
			</g>
			<g style="clip-path:url(#SVGID_2_);">
				<circle class="st0" cx="78" cy="74.9" r="0.6"/>
				<circle class="st0" cx="76.3" cy="76.9" r="0.6"/>
				<circle class="st0" cx="74.5" cy="78.9" r="0.6"/>
				<circle class="st0" cx="72.8" cy="81" r="0.6"/>
				<circle class="st0" cx="71" cy="83" r="0.6"/>
				<circle class="st0" cx="69.3" cy="85.1" r="0.6"/>
			</g>
			<g style="clip-path:url(#SVGID_2_);">
				<circle class="st0" cx="72.8" cy="70.4" r="0.6"/>
				<circle class="st0" cx="71" cy="72.4" r="0.6"/>
				<circle class="st0" cx="69.3" cy="74.4" r="0.6"/>
				<circle class="st0" cx="67.5" cy="76.5" r="0.6"/>
				<circle class="st0" cx="65.8" cy="78.5" r="0.6"/>
				<circle class="st0" cx="64" cy="80.6" r="0.6"/>
			</g>
			<g style="clip-path:url(#SVGID_2_);">
				<circle class="st0" cx="52.1" cy="73.1" r="0.6"/>
				<circle class="st0" cx="50.3" cy="75.1" r="0.6"/>
				<circle class="st0" cx="48.6" cy="77.2" r="0.6"/>
				<circle class="st0" cx="46.8" cy="79.2" r="0.6"/>
				<circle class="st0" cx="45.1" cy="81.2" r="0.6"/>
				<circle class="st0" cx="43.4" cy="83.3" r="0.6"/>
			</g>
			<g style="clip-path:url(#SVGID_2_);">
				<circle class="st0" cx="74.5" cy="71.9" r="0.6"/>
				<circle class="st0" cx="72.8" cy="73.9" r="0.6"/>
				<circle class="st0" cx="71" cy="75.9" r="0.6"/>
				<circle class="st0" cx="69.3" cy="78" r="0.6"/>
				<circle class="st0" cx="67.5" cy="80" r="0.6"/>
				<circle class="st0" cx="65.8" cy="82.1" r="0.6"/>
			</g>
			<g style="clip-path:url(#SVGID_2_);">
				<circle class="st0" cx="53.8" cy="74.6" r="0.6"/>
				<circle class="st0" cx="52.1" cy="76.6" r="0.6"/>
				<circle class="st0" cx="50.3" cy="78.7" r="0.6"/>
				<circle class="st0" cx="48.6" cy="80.7" r="0.6"/>
				<circle class="st0" cx="46.9" cy="82.7" r="0.6"/>
				<circle class="st0" cx="45.1" cy="84.8" r="0.6"/>
			</g>
			<g style="clip-path:url(#SVGID_2_);">
				<circle class="st0" cx="76.3" cy="73.4" r="0.6"/>
				<circle class="st0" cx="74.5" cy="75.4" r="0.6"/>
				<circle class="st0" cx="72.8" cy="77.4" r="0.6"/>
				<circle class="st0" cx="71" cy="79.5" r="0.6"/>
				<circle class="st0" cx="69.3" cy="81.5" r="0.6"/>
				<circle class="st0" cx="67.5" cy="83.6" r="0.6"/>
			</g>
			<g style="clip-path:url(#SVGID_2_);">
				<circle class="st0" cx="70.7" cy="68.6" r="0.6"/>
				<circle class="st0" cx="68.9" cy="70.6" r="0.6"/>
				<circle class="st0" cx="67.2" cy="72.6" r="0.6"/>
				<circle class="st0" cx="65.4" cy="74.7" r="0.6"/>
				<circle class="st0" cx="63.7" cy="76.7" r="0.6"/>
				<circle class="st0" cx="61.9" cy="78.8" r="0.6"/>
			</g>
			<g style="clip-path:url(#SVGID_2_);">
				<circle class="st0" cx="65.4" cy="64.1" r="0.6"/>
				<circle class="st0" cx="63.7" cy="66.1" r="0.6"/>
				<circle class="st0" cx="61.9" cy="68.1" r="0.6"/>
				<circle class="st0" cx="60.2" cy="70.2" r="0.6"/>
				<circle class="st0" cx="58.4" cy="72.2" r="0.6"/>
				<circle class="st0" cx="56.7" cy="74.3" r="0.6"/>
			</g>
			<g style="clip-path:url(#SVGID_2_);">
				<circle class="st0" cx="67.2" cy="65.6" r="0.6"/>
				<circle class="st0" cx="65.4" cy="67.6" r="0.6"/>
				<circle class="st0" cx="63.7" cy="69.6" r="0.6"/>
				<circle class="st0" cx="61.9" cy="71.7" r="0.6"/>
				<circle class="st0" cx="60.2" cy="73.7" r="0.6"/>
				<circle class="st0" cx="58.4" cy="75.8" r="0.6"/>
			</g>
			<g style="clip-path:url(#SVGID_2_);">
				<circle class="st0" cx="68.9" cy="67.1" r="0.6"/>
				<circle class="st0" cx="67.2" cy="69.1" r="0.6"/>
				<circle class="st0" cx="65.4" cy="71.1" r="0.6"/>
				<circle class="st0" cx="63.7" cy="73.2" r="0.6"/>
				<circle class="st0" cx="61.9" cy="75.2" r="0.6"/>
				<circle class="st0" cx="60.2" cy="77.3" r="0.6"/>
			</g>
			<g style="clip-path:url(#SVGID_2_);">
				<circle class="st0" cx="55.6" cy="76.1" r="0.6"/>
				<circle class="st0" cx="53.8" cy="78.1" r="0.6"/>
				<circle class="st0" cx="52.1" cy="80.2" r="0.6"/>
				<circle class="st0" cx="50.3" cy="82.2" r="0.6"/>
				<circle class="st0" cx="48.6" cy="84.2" r="0.6"/>
				<circle class="st0" cx="46.9" cy="86.3" r="0.6"/>
			</g>
			<g style="clip-path:url(#SVGID_2_);">
				<circle class="st0" cx="57" cy="77.3" r="0.6"/>
				<circle class="st0" cx="55.3" cy="79.4" r="0.6"/>
				<circle class="st0" cx="53.6" cy="81.4" r="0.6"/>
				<circle class="st0" cx="51.8" cy="83.4" r="0.6"/>
				<circle class="st0" cx="50.1" cy="85.5" r="0.6"/>
				<circle class="st0" cx="48.3" cy="87.5" r="0.6"/>
			</g>
			<g style="clip-path:url(#SVGID_2_);">
				<circle class="st0" cx="58.8" cy="78.8" r="0.6"/>
				<circle class="st0" cx="57.1" cy="80.9" r="0.6"/>
				<circle class="st0" cx="55.3" cy="82.9" r="0.6"/>
				<circle class="st0" cx="53.6" cy="84.9" r="0.6"/>
				<circle class="st0" cx="51.8" cy="87" r="0.6"/>
				<circle class="st0" cx="50.1" cy="89" r="0.6"/>
			</g>
			<g style="clip-path:url(#SVGID_2_);">
			</g>
			<g style="clip-path:url(#SVGID_2_);">
				<circle class="st0" cx="59.8" cy="59.3" r="0.6"/>
				<circle class="st0" cx="58" cy="61.3" r="0.6"/>
				<circle class="st0" cx="56.3" cy="63.3" r="0.6"/>
				<circle class="st0" cx="54.6" cy="65.4" r="0.6"/>
				<circle class="st0" cx="52.8" cy="67.4" r="0.6"/>
				<circle class="st0" cx="51.1" cy="69.5" r="0.6"/>
			</g>
			<g style="clip-path:url(#SVGID_2_);">
				<circle class="st0" cx="61.5" cy="60.8" r="0.6"/>
				<circle class="st0" cx="59.8" cy="62.8" r="0.6"/>
				<circle class="st0" cx="58.1" cy="64.8" r="0.6"/>
				<circle class="st0" cx="56.3" cy="66.9" r="0.6"/>
				<circle class="st0" cx="54.6" cy="68.9" r="0.6"/>
				<circle class="st0" cx="52.8" cy="71" r="0.6"/>
			</g>
			<g style="clip-path:url(#SVGID_2_);">
				<circle class="st0" cx="63.3" cy="62.3" r="0.6"/>
				<circle class="st0" cx="61.5" cy="64.3" r="0.6"/>
				<circle class="st0" cx="59.8" cy="66.3" r="0.6"/>
				<circle class="st0" cx="58.1" cy="68.4" r="0.6"/>
				<circle class="st0" cx="56.3" cy="70.4" r="0.6"/>
				<circle class="st0" cx="54.6" cy="72.5" r="0.6"/>
			</g>
		</g>
	</g>
</g>
</svg>
