<?xml version="1.0" encoding="utf-8"?>
<!-- Generator: Adobe Illustrator 22.0.1, SVG Export Plug-In . SVG Version: 6.00 Build 0)  -->
<svg version="1.1" xmlns="http://www.w3.org/2000/svg" xmlns:xlink="http://www.w3.org/1999/xlink" x="0px" y="0px"
	 viewBox="0 0 100 100" style="enable-background:new 0 0 100 100;" xml:space="preserve">
<style type="text/css">
	.st0{fill:#231815;}
	.st1{fill:#FFFFFF;}
	.st2{clip-path:url(#SVGID_4_);}
	.st3{fill:none;stroke:#FFFFFF;stroke-width:2;stroke-miterlimit:10;stroke-dasharray:3.9688,3.9688;}
	.st4{clip-path:url(#SVGID_6_);}
	.st5{fill:#696969;}
	.st6{fill:#9E5800;}
	.st7{clip-path:url(#SVGID_8_);}
	.st8{clip-path:url(#SVGID_10_);}
	.st9{clip-path:url(#SVGID_12_);}
	.st10{clip-path:url(#SVGID_14_);}
	.st11{clip-path:url(#SVGID_16_);}
	.st12{clip-path:url(#SVGID_18_);}
	.st13{clip-path:url(#SVGID_20_);}
	.st14{clip-path:url(#SVGID_22_);}
	.st15{clip-path:url(#SVGID_24_);}
	.st16{clip-path:url(#SVGID_26_);}
	.st17{clip-path:url(#SVGID_28_);}
	.st18{fill:none;stroke:#9E5800;stroke-width:2;stroke-miterlimit:10;}
	.st19{fill:none;stroke:#9E5800;stroke-miterlimit:10;}
	.st20{clip-path:url(#SVGID_30_);}
	.st21{clip-path:url(#SVGID_32_);}
	.st22{clip-path:url(#SVGID_34_);}
</style>
<g id="KV">
</g>
<g id="圖層_2">
	<g>
		<path class="st1" d="M38.4,55.7c-0.3,0-0.5,0.2-0.5,0.5c0,0.3,0.2,0.5,0.5,0.5c0.3,0,0.5-0.2,0.5-0.5
			C38.9,55.9,38.7,55.7,38.4,55.7z"/>
		<path class="st1" d="M38.4,57.7c-0.3,0-0.5,0.2-0.5,0.5c0,0.3,0.2,0.5,0.5,0.5c0.3,0,0.5-0.2,0.5-0.5
			C38.9,57.9,38.7,57.7,38.4,57.7z"/>
		<path class="st1" d="M38.4,59.7c-0.3,0-0.5,0.2-0.5,0.5s0.2,0.5,0.5,0.5c0.3,0,0.5-0.2,0.5-0.5S38.7,59.7,38.4,59.7z"/>
		<circle class="st1" cx="36.1" cy="60.2" r="0.5"/>
		<path class="st1" d="M38.4,53.6c-0.3,0-0.5,0.2-0.5,0.5c0,0.3,0.2,0.5,0.5,0.5c0.3,0,0.5-0.2,0.5-0.5
			C38.9,53.9,38.7,53.6,38.4,53.6z"/>
		<path class="st1" d="M36.1,53.6c-0.3,0-0.5,0.2-0.5,0.5c0,0.3,0.2,0.5,0.5,0.5s0.5-0.2,0.5-0.5C36.6,53.9,36.3,53.6,36.1,53.6z"/>
		<path class="st1" d="M38.4,61.8c-0.3,0-0.5,0.2-0.5,0.5s0.2,0.5,0.5,0.5c0.3,0,0.5-0.2,0.5-0.5S38.7,61.8,38.4,61.8z"/>
		<circle class="st1" cx="36.1" cy="62.3" r="0.5"/>
		<path class="st1" d="M38.4,78.8c-0.3,0-0.5,0.2-0.5,0.5s0.2,0.5,0.5,0.5c0.3,0,0.5-0.2,0.5-0.5S38.7,78.8,38.4,78.8z"/>
		<circle class="st1" cx="36.1" cy="79.3" r="0.5"/>
		<path class="st1" d="M38.4,76.3c-0.3,0-0.5,0.2-0.5,0.5c0,0.3,0.2,0.5,0.5,0.5c0.3,0,0.5-0.2,0.5-0.5
			C38.9,76.5,38.7,76.3,38.4,76.3z"/>
		<path class="st1" d="M36.1,76.3c-0.3,0-0.5,0.2-0.5,0.5c0,0.3,0.2,0.5,0.5,0.5s0.5-0.2,0.5-0.5C36.6,76.5,36.3,76.3,36.1,76.3z"/>
		<path class="st1" d="M38.4,70.2c-0.3,0-0.5,0.2-0.5,0.5c0,0.3,0.2,0.5,0.5,0.5c0.3,0,0.5-0.2,0.5-0.5
			C38.9,70.4,38.7,70.2,38.4,70.2z"/>
		<path class="st1" d="M36.1,70.2c-0.3,0-0.5,0.2-0.5,0.5c0,0.3,0.2,0.5,0.5,0.5s0.5-0.2,0.5-0.5C36.6,70.4,36.3,70.2,36.1,70.2z"/>
		<path class="st1" d="M38.4,72.2c-0.3,0-0.5,0.2-0.5,0.5c0,0.3,0.2,0.5,0.5,0.5c0.3,0,0.5-0.2,0.5-0.5
			C38.9,72.5,38.7,72.2,38.4,72.2z"/>
		<path class="st1" d="M36.1,72.2c-0.3,0-0.5,0.2-0.5,0.5c0,0.3,0.2,0.5,0.5,0.5s0.5-0.2,0.5-0.5C36.6,72.5,36.3,72.2,36.1,72.2z"/>
		<path class="st1" d="M38.4,74.3c-0.3,0-0.5,0.2-0.5,0.5c0,0.3,0.2,0.5,0.5,0.5c0.3,0,0.5-0.2,0.5-0.5
			C38.9,74.5,38.7,74.3,38.4,74.3z"/>
		<path class="st1" d="M36.1,74.3c-0.3,0-0.5,0.2-0.5,0.5c0,0.3,0.2,0.5,0.5,0.5s0.5-0.2,0.5-0.5C36.6,74.5,36.3,74.3,36.1,74.3z"/>
		<path class="st1" d="M38.4,63.7c-0.3,0-0.5,0.2-0.5,0.5c0,0.3,0.2,0.5,0.5,0.5c0.3,0,0.5-0.2,0.5-0.5
			C38.9,63.9,38.7,63.7,38.4,63.7z"/>
		<path class="st1" d="M36.1,63.7c-0.3,0-0.5,0.2-0.5,0.5c0,0.3,0.2,0.5,0.5,0.5s0.5-0.2,0.5-0.5C36.6,63.9,36.3,63.7,36.1,63.7z"/>
		<path class="st1" d="M38.4,65.7c-0.3,0-0.5,0.2-0.5,0.5c0,0.3,0.2,0.5,0.5,0.5c0.3,0,0.5-0.2,0.5-0.5
			C38.9,65.9,38.7,65.7,38.4,65.7z"/>
		<path class="st1" d="M36.1,65.7c-0.3,0-0.5,0.2-0.5,0.5c0,0.3,0.2,0.5,0.5,0.5s0.5-0.2,0.5-0.5C36.6,65.9,36.3,65.7,36.1,65.7z"/>
		<path class="st1" d="M38.4,67.7c-0.3,0-0.5,0.2-0.5,0.5c0,0.3,0.2,0.5,0.5,0.5c0.3,0,0.5-0.2,0.5-0.5C38.9,68,38.7,67.7,38.4,67.7
			z"/>
		<path class="st1" d="M36.1,67.7c-0.3,0-0.5,0.2-0.5,0.5c0,0.3,0.2,0.5,0.5,0.5s0.5-0.2,0.5-0.5C36.6,68,36.3,67.7,36.1,67.7z"/>
		<path class="st1" d="M85.8,80c-3.1,0-6.2,0-9.3,0c0-12,0-24,0-35.9c0-0.2-0.8-0.7-1-0.7c-1.1,0-2.1,0-3.2,0c0,0,0,0,0,0
			c0,12.2,0,24.4,0,36.6c-2.6,0-5.1,0-7.7,0c0-8.3,0-16.6,0-24.9c0-0.2-1-0.3-1.1-0.3c-1.1,0-2.2,0-3.4,0c0,0-0.1,0-0.1,0
			c0,8.4,0,16.8,0,25.2c-2.6,0-5.2,0-7.8,0c0-9.5,0-19.1,0-28.6c0-0.3-0.7-0.7-0.9-0.7c-1.2,0-2.4,0-3.6,0c0,0-0.1,0-0.1,0.1
			c0,9.8,0,19.5,0,29.3c-2.3,0-4.6,0-7,0c0-9.2,0-18.3,0-27.5c0-0.2-0.3-0.4-0.5-0.4c-1.7,0-3.5,0-5.2,0c-0.3,0-0.7,0.1-0.7,0.5
			c0,9.1,0,18.2,0,27.3c-2.4,0-4.9,0-7.3,0c0-6.7,0-13.5,0-20.2c0,0,0-0.1,0-0.1c-1.1,0-2.1,0-3.2,0c-0.2,0-1,0.4-1,0.6
			c0,6.6,0,13.1,0,19.7c-2.5,0-5,0-7.5,0c0-20.2,0-40.5,0-60.7c0-1.1-2.4-1.7-2.4-0.4c0,20.6,0,41.3,0,61.9c0,0.7,0.9,1.2,1.5,1.2
			c24.1,0,48.2,0,72.3,0C88.1,81.9,87.1,80,85.8,80z M23.4,60.3C23.2,60.6,23,60.4,23.4,60.3L23.4,60.3z M25.8,79.5
			c0,0.1,0,0.3,0,0.5c-0.7,0-1.4,0-2.2,0c0-3.9,0-7.7,0-11.6c0-2.3,0.4-5,0-7.3c0-0.2-0.1-0.5,0-0.8c0.2,0,0.4,0,0.6,0.1
			c0.3,0.1,1.3-0.2,1.5,0c0.5,0.5,0.1,3.3,0.1,4.1c0,2.7,0,5.4,0,8.1C25.8,74.8,25.4,77.4,25.8,79.5z M39.4,79.3c0,0.3,0,0.5,0,0.7
			c-1.3,0-2.7,0-4,0c0-5.5,0-11,0-16.5c0-1.7,0.1-3.5,0.2-5.3c0,0.3,0.2,0.5,0.5,0.5c0.3,0,0.5-0.2,0.5-0.5c0-0.3-0.2-0.5-0.5-0.5
			c-0.3,0-0.5,0.2-0.5,0.4c0-0.6,0-1.3,0-1.9c0,0.3,0.2,0.5,0.5,0.5c0.3,0,0.5-0.2,0.5-0.5c0-0.3-0.2-0.5-0.5-0.5
			c-0.3,0-0.5,0.2-0.5,0.5c0-0.7-0.1-1.4-0.2-2.1c-0.1-0.5,0-0.9,0-1.1c1.3-0.1,4.3,0.2,4.1-0.1c0.1,0.2-0.1,4.8-0.1,5.8
			c0,3.8,0,7.6,0,11.5C39.4,73.2,39.1,76.3,39.4,79.3z M51.2,56.7c0,3.7,0,7.5,0,11.2c0,3.3,0,6.6,0,9.8c0,1.3-0.1,2-0.5,2.2
			c-0.7,0-1.5,0-2.2,0c0-5.4,0-10.9,0-16.3c0-3.3,0-6.6,0-9.8c0-0.3-0.2-2,0-2.3c0.2-0.3,1.8-0.1,2.6-0.1c0,0.3,0.1,0.6,0,0.9
			C51.1,53.8,51.2,55.3,51.2,56.7z M63.4,78.8c-0.1,0.6-0.2,1-0.3,1.2c-0.6,0-1.2,0-1.8,0c0-4.9,0-9.7,0-14.6c0-2.8-0.4-6,0-8.7
			c0.3-1.9,0.6-1.8,2.1-1.7c0,5,0,10,0,15C63.4,72.8,63.8,76,63.4,78.8z M74.8,80c-0.5,0-1,0-1.5,0c0-6.5,0-13,0-19.5
			c0-4.2,0-8.5,0-12.7c0-3.1-0.5-3.6,2.2-3.7c0,6.6,0,13.1,0,19.7c0,4.2,0,8.5,0,12.7C75.5,78.8,75.7,79.7,74.8,80z"/>
		<path class="st1" d="M21.7,52.7c6.6-4.4,14-8.4,20.1-13.4c0.3-0.2,0.6-0.4,0.9-0.6c1.6,0.8,3.4,1.5,5,2.2
			c3.7,1.6,7.4,3.2,11.1,4.9c0.5,0.2,1.1,0.2,1.5-0.2c5.4-5.5,10.8-11.1,16.2-16.6c0,1.8-0.1,3.6-0.1,5.5c0,1.2,2.5,0.9,2.5-0.3
			c0.1-2.9,0.1-5.7,0.2-8.6c0-0.6-0.9-0.8-1.3-0.8c-2.9,0.4-5.8,0.8-8.7,1.2c-1.5,0.2-1.3,2,0.2,1.8c1.9-0.3,3.8-0.5,5.7-0.8
			c-4.3,4.4-8.6,8.8-12.8,13.2c-0.6,0.6-2.5,2-2.9,3c-0.9-0.8-2.9-1.2-4-1.7c-2.1-0.9-4.1-1.8-6.2-2.7c-1.6-0.7-4.5-2.8-6.4-2.7
			c-1.7,0.1-4.2,2.5-5.5,3.4c-5.6,3.7-11.1,7.4-16.7,11.1C19.1,51.5,20.3,53.6,21.7,52.7z"/>
	</g>
</g>
</svg>
