<?xml version="1.0" encoding="UTF-8"?>
<svg width="11px" height="37px" viewBox="0 0 11 37" version="1.1" xmlns="http://www.w3.org/2000/svg" xmlns:xlink="http://www.w3.org/1999/xlink">
    <!-- Generator: Sketch 49.1 (51147) - http://www.bohemiancoding.com/sketch -->
    <title>Group 13</title>
    <desc>Created with Sketch.</desc>
    <defs></defs>
    <g id="Page-1" stroke="none" stroke-width="1" fill="none" fill-rule="evenodd">
        <g id="Artboard" transform="translate(-420.000000, -708.000000)" fill-rule="nonzero">
            <g id="147297" transform="translate(416.000000, 708.000000)">
                <g id="Group-13" transform="translate(4.000000, 0.000000)">
                    <path d="M2.86809967,36.3673469 C2.65721533,36.3673469 2.44633099,36.2866578 2.28541192,36.1251763 C1.96347075,35.8023166 1.96347075,35.2792321 2.28541192,34.9563724 L7.23042823,29.9972468 C7.5523694,29.6743871 8.0739656,29.6743871 8.39590676,29.9972468 C8.71784793,30.3201066 8.71784793,30.843191 8.39590676,31.1660507 L3.45089045,36.1251763 C3.28986836,36.2866578 3.07898402,36.3673469 2.86809967,36.3673469 Z" id="Shape" fill="#E7001E"></path>
                    <path d="M7.81311599,36.3673469 C7.60223164,36.3673469 7.3913473,36.2866578 7.23042823,36.1251763 L2.28541192,31.1660507 C1.96347075,30.843191 1.96347075,30.3201066 2.28541192,29.9972468 C2.60735308,29.6743871 3.12894928,29.6743871 3.45089045,29.9972468 L8.39590676,34.9563724 C8.71784793,35.2792321 8.71784793,35.8023166 8.39590676,36.1251763 C8.23488467,36.2866578 8.02400033,36.3673469 7.81311599,36.3673469 Z" id="Shape" fill="#E7001E"></path>
                    <path d="M5.06593407,29.755102 C4.61037088,29.755102 4.24175824,29.4426311 4.24175824,29.0571764 L4.24175824,9.51425216 C4.24175824,9.12879749 4.61037088,8.81632653 5.06593407,8.81632653 C5.52149725,8.81632653 5.89010989,9.12879749 5.89010989,9.51425216 L5.89010989,29.0570757 C5.89010989,29.4426311 5.52149725,29.755102 5.06593407,29.755102 Z" id="Shape" fill="#8A8895"></path>
                    <ellipse id="Oval" fill="#E7001E" cx="5.34065934" cy="4.95918367" rx="4.94505495" ry="4.95918367"></ellipse>
                    <path d="M5.45779669,0 C4.12458736,0 2.91770855,0.541969097 2.04395604,1.41811717 L8.87163734,8.26530612 C9.74538984,7.38905718 10.2857143,6.17873014 10.2857143,4.84171164 C10.2857143,2.16767465 8.12421535,0 5.45779669,0 Z" id="Shape" fill="#FF4F19"></path>
                </g>
            </g>
        </g>
    </g>
</svg>