<?xml version="1.0" encoding="utf-8"?>
<!-- Generator: Adobe Illustrator 22.0.1, SVG Export Plug-In . SVG Version: 6.00 Build 0)  -->
<svg version="1.1" xmlns="http://www.w3.org/2000/svg" xmlns:xlink="http://www.w3.org/1999/xlink" x="0px" y="0px"
	 viewBox="0 0 100 100" style="enable-background:new 0 0 100 100;" xml:space="preserve">
<style type="text/css">
	.st0{fill:#FFFFFF;}
	.st1{clip-path:url(#SVGID_4_);}
	.st2{fill:none;stroke:#FFFFFF;stroke-width:2;stroke-miterlimit:10;stroke-dasharray:3.9688,3.9688;}
	.st3{clip-path:url(#SVGID_6_);}
	.st4{fill:#696969;}
	.st5{fill:#9E5800;}
	.st6{clip-path:url(#SVGID_8_);}
	.st7{clip-path:url(#SVGID_10_);}
	.st8{clip-path:url(#SVGID_12_);}
	.st9{clip-path:url(#SVGID_14_);}
	.st10{clip-path:url(#SVGID_16_);}
	.st11{clip-path:url(#SVGID_18_);}
	.st12{clip-path:url(#SVGID_20_);}
	.st13{clip-path:url(#SVGID_22_);}
	.st14{clip-path:url(#SVGID_24_);}
	.st15{clip-path:url(#SVGID_26_);}
	.st16{clip-path:url(#SVGID_28_);}
	.st17{clip-path:url(#SVGID_30_);}
	.st18{fill:none;stroke:#9E5800;stroke-width:2;stroke-miterlimit:10;}
	.st19{fill:none;stroke:#9E5800;stroke-miterlimit:10;}
	.st20{clip-path:url(#SVGID_32_);}
	.st21{clip-path:url(#SVGID_34_);}
	.st22{clip-path:url(#SVGID_36_);}
</style>
<g id="KV">
</g>
<g id="圖層_2">
	<g>
		<g>
			<g>
				<g>
					<path class="st0" d="M87.2,69.2c-18.5,0-37,0-55.6,0c-4.6,0-9.3,0-13.9,0c-1.2,0-2.6-0.2-3.8,0c-2.1,0.4-0.3-0.5-0.4,0.6
						c0.7-8.4,0-17.2,0-25.6c0-9.6,0-19.1,0-28.7c-0.5,0.4-0.9,0.9-1.4,1.3c18.5,0,37,0,55.6,0c4.6,0,9.3,0,13.9,0
						c1.2,0,2.6,0.2,3.8,0c2.1-0.4,0.3,0.5,0.4-0.6c-0.7,8.4,0,17.2,0,25.6c0,9.6,0,19.1,0,28.7c0,1.3,2.4,0.6,2.4-0.6
						c0-18.1,0-36.3,0-54.4c0-0.5-0.6-0.7-1-0.7c-24.9,0-49.7,0-74.6,0c-0.7,0-1.4,0.6-1.4,1.3c0,18.1,0,36.3,0,54.4
						c0,0.5,0.6,0.7,1,0.7c24.9,0,49.7,0,74.6,0C88,71.2,88.8,69.2,87.2,69.2z"/>
				</g>
			</g>
			<g>
				<g>
					<path class="st0" d="M42.1,70.3c-1.1,4.4-2.3,8.7-3.4,13.1c-0.3,1.2,2.2,1.6,2.5,0.4c1.1-4.4,2.3-8.7,3.4-13.1
						C44.8,69.5,42.4,69.1,42.1,70.3L42.1,70.3z"/>
				</g>
			</g>
			<g>
				<g>
					<path class="st0" d="M54.9,70.8c1.1,4.2,2.2,8.4,3.3,12.6c0.3,1.1,2.7,1.7,2.3,0.3c-1.1-4.2-2.2-8.4-3.3-12.6
						C56.9,70,54.5,69.4,54.9,70.8L54.9,70.8z"/>
				</g>
			</g>
			<g>
				<g>
					<path class="st0" d="M34,84.7c11.2,0,22.3,0,33.5,0c0.4,0-1.4-0.9-2-0.9c-11.2,0-22.3,0-33.5,0C31.6,83.8,33.5,84.7,34,84.7
						L34,84.7z"/>
				</g>
			</g>
			<g>
				<g>
					<path class="st0" d="M33,34.7C20.8,54.9,47.9,74,64.5,59.1c-0.8-0.3-1.5-0.5-2.3-0.8c0.1,1.6,0.2,3.3,0.3,4.9
						c0,0.7,2.4,1.3,2.4,0.5c-0.1-1.6-0.2-3.3-0.3-4.9c0-0.7-1.8-1.2-2.3-0.8C54.6,65,42.5,65.3,36,56.7c-4.8-6.3-4.6-14.6-0.6-21.2
						C35.7,34.9,33.5,34,33,34.7L33,34.7z"/>
				</g>
			</g>
			<g>
				<g>
					<path class="st0" d="M11.6,22.2c24.9,0,49.7,0,74.6,0c0.5,0,2.7-1,1.6-1c-24.9,0-49.7,0-74.6,0C12.6,21.2,10.4,22.2,11.6,22.2
						L11.6,22.2z"/>
				</g>
			</g>
			<g>
				<g>
					<path class="st0" d="M54.7,38.7c-3.1,0-7.1-0.8-10,0.5c-1.4,0.6-3,1.7-3,3.3c0,2.5,2.3,2.8,4.2,2.8c2.3,0,11.7-1.4,11.4,2.6
						c-0.1,2.2-3.3,1.4-4.8,1.4c-1.8,0-3.6,0-5.4,0c-0.7,0-1.9,1.3-2,1.3c3.2,0,6.6,0.4,9.7,0c1.5-0.2,3.3-1,4.2-2.3
						c1.4-2,0-4.1-2.3-4.4c-3.4-0.4-7.3,0.8-10.6-0.1c-1.3-0.4-3.5-2.7-1.5-4c0.4-0.3,1.8,0,2.2,0c1.9,0,3.9,0,5.8,0
						C53.4,40,54.6,38.7,54.7,38.7L54.7,38.7z"/>
				</g>
			</g>
			<g>
				<g>
					<path class="st0" d="M36.1,26.7c0,1.9,0,3.8,0,5.6c0,0,1.9-1,2-1.1c7.6-6.4,19.1-4.2,25.1,3.1c5.2,6.5,5.3,15.2,1,22.1
						c0.2-0.3,1.7-0.6,2.1-1.2c6.1-9.8,2.8-23-8.2-27.7c-7.7-3.3-15.8-0.6-21.9,4.6c0.7-0.4,1.4-0.8,2-1.1c0-1.9,0-3.8,0-5.6
						C38.2,25.6,36.1,26.1,36.1,26.7L36.1,26.7z"/>
				</g>
			</g>
			<g>
				<g>
					<path class="st0" d="M49.1,36.8c0,0.6,0,1.1,0,1.7c0,0.6,0.5,1.1,1,1.4c0.3,0.2,0.9,0.4,0.9-0.2c0-0.6,0-1.1,0-1.7
						c0-0.6-0.5-1.1-1-1.4C49.7,36.4,49.1,36.2,49.1,36.8L49.1,36.8z"/>
				</g>
			</g>
			<g>
				<g>
					<path class="st0" d="M48.8,44.4c0,3.2,0,6.5,0,9.7c0,0.6,2.3,1.4,2.3,0.7c0-3.2,0-6.5,0-9.7C51.1,44.5,48.8,43.7,48.8,44.4
						L48.8,44.4z"/>
				</g>
			</g>
			<g>
				<g>
					<path class="st0" d="M62,57.3c-1.6-0.2-3.3-0.3-4.9-0.5c-1.5-0.1-0.5,1.9,0.6,2c1.6,0.2,3.3,0.3,4.9,0.5
						C64.1,59.5,63.1,57.4,62,57.3L62,57.3z"/>
				</g>
			</g>
		</g>
		<g>
			<defs>
				<path id="SVGID_35_" d="M13,22.5v48.5h74.6V22.5H13z M50.3,69.2c-12.7,0-23-10.3-23-23c0-12.7,1.9-23,23-23
					c16.6,0,23,10.3,23,23C73.3,58.9,68.4,69.2,50.3,69.2z"/>
			</defs>
			<clipPath id="SVGID_2_">
				<use xlink:href="#SVGID_35_"  style="overflow:visible;"/>
			</clipPath>
			<g style="clip-path:url(#SVGID_2_);">
				<g>
					<circle class="st0" cx="13.8" cy="26.8" r="0.8"/>
					<circle class="st0" cx="13.8" cy="30.5" r="0.8"/>
					<circle class="st0" cx="13.8" cy="34.2" r="0.8"/>
					<circle class="st0" cx="13.8" cy="37.9" r="0.8"/>
					<circle class="st0" cx="13.8" cy="41.6" r="0.8"/>
					<circle class="st0" cx="13.8" cy="45.3" r="0.8"/>
				</g>
				<g>
					<circle class="st0" cx="26.5" cy="26.8" r="0.8"/>
					<circle class="st0" cx="26.5" cy="30.5" r="0.8"/>
					<circle class="st0" cx="26.5" cy="34.2" r="0.8"/>
					<circle class="st0" cx="26.5" cy="37.9" r="0.8"/>
					<circle class="st0" cx="26.5" cy="41.6" r="0.8"/>
					<circle class="st0" cx="26.5" cy="45.3" r="0.8"/>
				</g>
				<g>
					<circle class="st0" cx="17" cy="26.8" r="0.8"/>
					<circle class="st0" cx="17" cy="30.5" r="0.8"/>
					<circle class="st0" cx="17" cy="34.2" r="0.8"/>
					<circle class="st0" cx="17" cy="37.9" r="0.8"/>
					<circle class="st0" cx="17" cy="41.6" r="0.8"/>
					<circle class="st0" cx="17" cy="45.3" r="0.8"/>
				</g>
				<g>
					<circle class="st0" cx="29.7" cy="26.8" r="0.8"/>
					<circle class="st0" cx="29.7" cy="30.5" r="0.8"/>
					<circle class="st0" cx="29.7" cy="34.2" r="0.8"/>
					<circle class="st0" cx="29.7" cy="37.9" r="0.8"/>
					<circle class="st0" cx="29.7" cy="41.6" r="0.8"/>
					<circle class="st0" cx="29.7" cy="45.3" r="0.8"/>
				</g>
				<g>
					<circle class="st0" cx="20.2" cy="26.8" r="0.8"/>
					<circle class="st0" cx="20.2" cy="30.5" r="0.8"/>
					<circle class="st0" cx="20.2" cy="34.2" r="0.8"/>
					<circle class="st0" cx="20.2" cy="37.9" r="0.8"/>
					<circle class="st0" cx="20.2" cy="41.6" r="0.8"/>
					<circle class="st0" cx="20.2" cy="45.3" r="0.8"/>
				</g>
				<g>
					<circle class="st0" cx="32.9" cy="26.8" r="0.8"/>
					<circle class="st0" cx="32.9" cy="30.5" r="0.8"/>
					<circle class="st0" cx="32.9" cy="34.2" r="0.8"/>
					<circle class="st0" cx="32.9" cy="37.9" r="0.8"/>
					<circle class="st0" cx="32.9" cy="41.6" r="0.8"/>
					<circle class="st0" cx="32.9" cy="45.3" r="0.8"/>
				</g>
				<g>
					<circle class="st0" cx="23.4" cy="26.8" r="0.8"/>
					<circle class="st0" cx="23.4" cy="30.5" r="0.8"/>
					<circle class="st0" cx="23.4" cy="34.2" r="0.8"/>
					<circle class="st0" cx="23.4" cy="37.9" r="0.8"/>
					<circle class="st0" cx="23.4" cy="41.6" r="0.8"/>
					<circle class="st0" cx="23.4" cy="45.3" r="0.8"/>
				</g>
				<g>
					<circle class="st0" cx="36" cy="26.8" r="0.8"/>
					<circle class="st0" cx="36" cy="30.5" r="0.8"/>
					<circle class="st0" cx="36" cy="34.2" r="0.8"/>
					<circle class="st0" cx="36" cy="37.9" r="0.8"/>
					<circle class="st0" cx="36" cy="41.6" r="0.8"/>
					<circle class="st0" cx="36" cy="45.3" r="0.8"/>
				</g>
				<g>
					<circle class="st0" cx="13.8" cy="48.2" r="0.8"/>
					<circle class="st0" cx="13.8" cy="51.8" r="0.8"/>
					<circle class="st0" cx="13.8" cy="55.5" r="0.8"/>
					<circle class="st0" cx="13.8" cy="59.2" r="0.8"/>
					<circle class="st0" cx="13.8" cy="62.9" r="0.8"/>
					<circle class="st0" cx="13.8" cy="66.6" r="0.8"/>
				</g>
				<g>
					<circle class="st0" cx="26.5" cy="48.2" r="0.8"/>
					<circle class="st0" cx="26.5" cy="51.8" r="0.8"/>
					<circle class="st0" cx="26.5" cy="55.5" r="0.8"/>
					<circle class="st0" cx="26.5" cy="59.2" r="0.8"/>
					<circle class="st0" cx="26.5" cy="62.9" r="0.8"/>
					<circle class="st0" cx="26.5" cy="66.6" r="0.8"/>
				</g>
				<g>
					<circle class="st0" cx="17" cy="48.2" r="0.8"/>
					<circle class="st0" cx="17" cy="51.8" r="0.8"/>
					<circle class="st0" cx="17" cy="55.5" r="0.8"/>
					<circle class="st0" cx="17" cy="59.2" r="0.8"/>
					<circle class="st0" cx="17" cy="62.9" r="0.8"/>
					<circle class="st0" cx="17" cy="66.6" r="0.8"/>
				</g>
				<g>
					<circle class="st0" cx="29.7" cy="48.2" r="0.8"/>
					<circle class="st0" cx="29.7" cy="51.8" r="0.8"/>
					<circle class="st0" cx="29.7" cy="55.5" r="0.8"/>
					<circle class="st0" cx="29.7" cy="59.2" r="0.8"/>
					<circle class="st0" cx="29.7" cy="62.9" r="0.8"/>
					<circle class="st0" cx="29.7" cy="66.6" r="0.8"/>
				</g>
				<g>
					<circle class="st0" cx="20.2" cy="48.2" r="0.8"/>
					<circle class="st0" cx="20.2" cy="51.8" r="0.8"/>
					<circle class="st0" cx="20.2" cy="55.5" r="0.8"/>
					<circle class="st0" cx="20.2" cy="59.2" r="0.8"/>
					<circle class="st0" cx="20.2" cy="62.9" r="0.8"/>
					<circle class="st0" cx="20.2" cy="66.6" r="0.8"/>
				</g>
				<g>
					<circle class="st0" cx="32.9" cy="48.2" r="0.8"/>
					<circle class="st0" cx="32.9" cy="51.8" r="0.8"/>
					<circle class="st0" cx="32.9" cy="55.5" r="0.8"/>
					<circle class="st0" cx="32.9" cy="59.2" r="0.8"/>
					<circle class="st0" cx="32.9" cy="62.9" r="0.8"/>
					<circle class="st0" cx="32.9" cy="66.6" r="0.8"/>
				</g>
				<g>
					<circle class="st0" cx="23.4" cy="48.2" r="0.8"/>
					<circle class="st0" cx="23.4" cy="51.8" r="0.8"/>
					<circle class="st0" cx="23.4" cy="55.5" r="0.8"/>
					<circle class="st0" cx="23.4" cy="59.2" r="0.8"/>
					<circle class="st0" cx="23.4" cy="62.9" r="0.8"/>
					<circle class="st0" cx="23.4" cy="66.6" r="0.8"/>
				</g>
				<g>
					<circle class="st0" cx="36" cy="48.2" r="0.8"/>
					<circle class="st0" cx="36" cy="51.8" r="0.8"/>
					<circle class="st0" cx="36" cy="55.5" r="0.8"/>
					<circle class="st0" cx="36" cy="59.2" r="0.8"/>
					<circle class="st0" cx="36" cy="62.9" r="0.8"/>
					<circle class="st0" cx="36" cy="66.6" r="0.8"/>
				</g>
				<g>
					<circle class="st0" cx="38.7" cy="26.8" r="0.8"/>
					<circle class="st0" cx="38.7" cy="30.5" r="0.8"/>
					<circle class="st0" cx="38.7" cy="34.2" r="0.8"/>
					<circle class="st0" cx="38.7" cy="37.9" r="0.8"/>
					<circle class="st0" cx="38.7" cy="41.6" r="0.8"/>
					<circle class="st0" cx="38.7" cy="45.3" r="0.8"/>
				</g>
				<g>
					<circle class="st0" cx="51.4" cy="26.8" r="0.8"/>
					<circle class="st0" cx="51.4" cy="30.5" r="0.8"/>
					<circle class="st0" cx="51.4" cy="34.2" r="0.8"/>
					<circle class="st0" cx="51.4" cy="37.9" r="0.8"/>
					<circle class="st0" cx="51.4" cy="41.6" r="0.8"/>
					<circle class="st0" cx="51.4" cy="45.3" r="0.8"/>
				</g>
				<g>
					<circle class="st0" cx="41.9" cy="26.8" r="0.8"/>
					<circle class="st0" cx="41.9" cy="30.5" r="0.8"/>
					<circle class="st0" cx="41.9" cy="34.2" r="0.8"/>
					<circle class="st0" cx="41.9" cy="37.9" r="0.8"/>
					<circle class="st0" cx="41.9" cy="41.6" r="0.8"/>
					<circle class="st0" cx="41.9" cy="45.3" r="0.8"/>
				</g>
				<g>
					<circle class="st0" cx="54.6" cy="26.8" r="0.8"/>
					<circle class="st0" cx="54.6" cy="30.5" r="0.8"/>
					<circle class="st0" cx="54.6" cy="34.2" r="0.8"/>
					<circle class="st0" cx="54.6" cy="37.9" r="0.8"/>
					<circle class="st0" cx="54.6" cy="41.6" r="0.8"/>
					<circle class="st0" cx="54.6" cy="45.3" r="0.8"/>
				</g>
				<g>
					<circle class="st0" cx="45" cy="26.8" r="0.8"/>
					<circle class="st0" cx="45" cy="30.5" r="0.8"/>
					<circle class="st0" cx="45" cy="34.2" r="0.8"/>
					<circle class="st0" cx="45" cy="37.9" r="0.8"/>
					<circle class="st0" cx="45" cy="41.6" r="0.8"/>
					<circle class="st0" cx="45" cy="45.3" r="0.8"/>
				</g>
				<g>
					<circle class="st0" cx="57.7" cy="26.8" r="0.8"/>
					<circle class="st0" cx="57.7" cy="30.5" r="0.8"/>
					<circle class="st0" cx="57.7" cy="34.2" r="0.8"/>
					<circle class="st0" cx="57.7" cy="37.9" r="0.8"/>
					<circle class="st0" cx="57.7" cy="41.6" r="0.8"/>
					<circle class="st0" cx="57.7" cy="45.3" r="0.8"/>
				</g>
				<g>
					<circle class="st0" cx="48.2" cy="26.8" r="0.8"/>
					<circle class="st0" cx="48.2" cy="30.5" r="0.8"/>
					<circle class="st0" cx="48.2" cy="34.2" r="0.8"/>
					<circle class="st0" cx="48.2" cy="37.9" r="0.8"/>
					<circle class="st0" cx="48.2" cy="41.6" r="0.8"/>
					<circle class="st0" cx="48.2" cy="45.3" r="0.8"/>
				</g>
				<g>
					<circle class="st0" cx="60.9" cy="26.8" r="0.8"/>
					<circle class="st0" cx="60.9" cy="30.5" r="0.8"/>
					<circle class="st0" cx="60.9" cy="34.2" r="0.8"/>
					<circle class="st0" cx="60.9" cy="37.9" r="0.8"/>
					<circle class="st0" cx="60.9" cy="41.6" r="0.8"/>
					<circle class="st0" cx="60.9" cy="45.3" r="0.8"/>
				</g>
				<g>
					<circle class="st0" cx="38.7" cy="48.2" r="0.8"/>
					<circle class="st0" cx="38.7" cy="51.8" r="0.8"/>
					<circle class="st0" cx="38.7" cy="55.5" r="0.8"/>
					<circle class="st0" cx="38.7" cy="59.2" r="0.8"/>
					<circle class="st0" cx="38.7" cy="62.9" r="0.8"/>
					<circle class="st0" cx="38.7" cy="66.6" r="0.8"/>
				</g>
				<g>
					<circle class="st0" cx="51.4" cy="48.2" r="0.8"/>
					<circle class="st0" cx="51.4" cy="51.8" r="0.8"/>
					<circle class="st0" cx="51.4" cy="55.5" r="0.8"/>
					<circle class="st0" cx="51.4" cy="59.2" r="0.8"/>
					<circle class="st0" cx="51.4" cy="62.9" r="0.8"/>
					<circle class="st0" cx="51.4" cy="66.6" r="0.8"/>
				</g>
				<g>
					<circle class="st0" cx="41.9" cy="48.2" r="0.8"/>
					<circle class="st0" cx="41.9" cy="51.8" r="0.8"/>
					<circle class="st0" cx="41.9" cy="55.5" r="0.8"/>
					<circle class="st0" cx="41.9" cy="59.2" r="0.8"/>
					<circle class="st0" cx="41.9" cy="62.9" r="0.8"/>
					<circle class="st0" cx="41.9" cy="66.6" r="0.8"/>
				</g>
				<g>
					<circle class="st0" cx="54.6" cy="48.2" r="0.8"/>
					<circle class="st0" cx="54.6" cy="51.8" r="0.8"/>
					<circle class="st0" cx="54.6" cy="55.5" r="0.8"/>
					<circle class="st0" cx="54.6" cy="59.2" r="0.8"/>
					<circle class="st0" cx="54.6" cy="62.9" r="0.8"/>
					<circle class="st0" cx="54.6" cy="66.6" r="0.8"/>
				</g>
				<g>
					<circle class="st0" cx="45" cy="48.2" r="0.8"/>
					<circle class="st0" cx="45" cy="51.8" r="0.8"/>
					<circle class="st0" cx="45" cy="55.5" r="0.8"/>
					<circle class="st0" cx="45" cy="59.2" r="0.8"/>
					<circle class="st0" cx="45" cy="62.9" r="0.8"/>
					<circle class="st0" cx="45" cy="66.6" r="0.8"/>
				</g>
				<g>
					<circle class="st0" cx="57.7" cy="48.2" r="0.8"/>
					<circle class="st0" cx="57.7" cy="51.8" r="0.8"/>
					<circle class="st0" cx="57.7" cy="55.5" r="0.8"/>
					<circle class="st0" cx="57.7" cy="59.2" r="0.8"/>
					<circle class="st0" cx="57.7" cy="62.9" r="0.8"/>
					<circle class="st0" cx="57.7" cy="66.6" r="0.8"/>
				</g>
				<g>
					<circle class="st0" cx="48.2" cy="48.2" r="0.8"/>
					<circle class="st0" cx="48.2" cy="51.8" r="0.8"/>
					<circle class="st0" cx="48.2" cy="55.5" r="0.8"/>
					<circle class="st0" cx="48.2" cy="59.2" r="0.8"/>
					<circle class="st0" cx="48.2" cy="62.9" r="0.8"/>
					<circle class="st0" cx="48.2" cy="66.6" r="0.8"/>
				</g>
				<g>
					<circle class="st0" cx="60.9" cy="48.2" r="0.8"/>
					<circle class="st0" cx="60.9" cy="51.8" r="0.8"/>
					<circle class="st0" cx="60.9" cy="55.5" r="0.8"/>
					<circle class="st0" cx="60.9" cy="59.2" r="0.8"/>
					<circle class="st0" cx="60.9" cy="62.9" r="0.8"/>
					<circle class="st0" cx="60.9" cy="66.6" r="0.8"/>
				</g>
			</g>
			<g style="clip-path:url(#SVGID_2_);">
				<g>
					<circle class="st0" cx="64.1" cy="26.8" r="0.8"/>
					<circle class="st0" cx="64.1" cy="30.5" r="0.8"/>
					<circle class="st0" cx="64.1" cy="34.2" r="0.8"/>
					<circle class="st0" cx="64.1" cy="37.9" r="0.8"/>
					<circle class="st0" cx="64.1" cy="41.6" r="0.8"/>
					<circle class="st0" cx="64.1" cy="45.3" r="0.8"/>
				</g>
				<g>
					<circle class="st0" cx="76.8" cy="26.8" r="0.8"/>
					<circle class="st0" cx="76.8" cy="30.5" r="0.8"/>
					<circle class="st0" cx="76.8" cy="34.2" r="0.8"/>
					<circle class="st0" cx="76.8" cy="37.9" r="0.8"/>
					<circle class="st0" cx="76.8" cy="41.6" r="0.8"/>
					<circle class="st0" cx="76.8" cy="45.3" r="0.8"/>
				</g>
				<g>
					<circle class="st0" cx="67.3" cy="26.8" r="0.8"/>
					<circle class="st0" cx="67.3" cy="30.5" r="0.8"/>
					<circle class="st0" cx="67.3" cy="34.2" r="0.8"/>
					<circle class="st0" cx="67.3" cy="37.9" r="0.8"/>
					<circle class="st0" cx="67.3" cy="41.6" r="0.8"/>
					<circle class="st0" cx="67.3" cy="45.3" r="0.8"/>
				</g>
				<g>
					<circle class="st0" cx="80" cy="26.8" r="0.8"/>
					<circle class="st0" cx="80" cy="30.5" r="0.8"/>
					<circle class="st0" cx="80" cy="34.2" r="0.8"/>
					<circle class="st0" cx="80" cy="37.9" r="0.8"/>
					<circle class="st0" cx="80" cy="41.6" r="0.8"/>
					<circle class="st0" cx="80" cy="45.3" r="0.8"/>
				</g>
				<g>
					<circle class="st0" cx="70.5" cy="26.8" r="0.8"/>
					<circle class="st0" cx="70.5" cy="30.5" r="0.8"/>
					<circle class="st0" cx="70.5" cy="34.2" r="0.8"/>
					<circle class="st0" cx="70.5" cy="37.9" r="0.8"/>
					<circle class="st0" cx="70.5" cy="41.6" r="0.8"/>
					<circle class="st0" cx="70.5" cy="45.3" r="0.8"/>
				</g>
				<g>
					<circle class="st0" cx="83.1" cy="26.8" r="0.8"/>
					<circle class="st0" cx="83.1" cy="30.5" r="0.8"/>
					<circle class="st0" cx="83.1" cy="34.2" r="0.8"/>
					<circle class="st0" cx="83.1" cy="37.9" r="0.8"/>
					<circle class="st0" cx="83.1" cy="41.6" r="0.8"/>
					<circle class="st0" cx="83.1" cy="45.3" r="0.8"/>
				</g>
				<g>
					<circle class="st0" cx="73.6" cy="26.8" r="0.8"/>
					<circle class="st0" cx="73.6" cy="30.5" r="0.8"/>
					<circle class="st0" cx="73.6" cy="34.2" r="0.8"/>
					<circle class="st0" cx="73.6" cy="37.9" r="0.8"/>
					<circle class="st0" cx="73.6" cy="41.6" r="0.8"/>
					<circle class="st0" cx="73.6" cy="45.3" r="0.8"/>
				</g>
				<g>
					<circle class="st0" cx="86.3" cy="26.8" r="0.8"/>
					<circle class="st0" cx="86.3" cy="30.5" r="0.8"/>
					<circle class="st0" cx="86.3" cy="34.2" r="0.8"/>
					<circle class="st0" cx="86.3" cy="37.9" r="0.8"/>
					<circle class="st0" cx="86.3" cy="41.6" r="0.8"/>
					<circle class="st0" cx="86.3" cy="45.3" r="0.8"/>
				</g>
				<g>
					<circle class="st0" cx="64.1" cy="48.2" r="0.8"/>
					<circle class="st0" cx="64.1" cy="51.8" r="0.8"/>
					<circle class="st0" cx="64.1" cy="55.5" r="0.8"/>
					<circle class="st0" cx="64.1" cy="59.2" r="0.8"/>
					<circle class="st0" cx="64.1" cy="62.9" r="0.8"/>
					<circle class="st0" cx="64.1" cy="66.6" r="0.8"/>
				</g>
				<g>
					<circle class="st0" cx="76.8" cy="48.2" r="0.8"/>
					<circle class="st0" cx="76.8" cy="51.8" r="0.8"/>
					<circle class="st0" cx="76.8" cy="55.5" r="0.8"/>
					<circle class="st0" cx="76.8" cy="59.2" r="0.8"/>
					<circle class="st0" cx="76.8" cy="62.9" r="0.8"/>
					<circle class="st0" cx="76.8" cy="66.6" r="0.8"/>
				</g>
				<g>
					<circle class="st0" cx="67.3" cy="48.2" r="0.8"/>
					<circle class="st0" cx="67.3" cy="51.8" r="0.8"/>
					<circle class="st0" cx="67.3" cy="55.5" r="0.8"/>
					<circle class="st0" cx="67.3" cy="59.2" r="0.8"/>
					<circle class="st0" cx="67.3" cy="62.9" r="0.8"/>
					<circle class="st0" cx="67.3" cy="66.6" r="0.8"/>
				</g>
				<g>
					<circle class="st0" cx="80" cy="48.2" r="0.8"/>
					<circle class="st0" cx="80" cy="51.8" r="0.8"/>
					<circle class="st0" cx="80" cy="55.5" r="0.8"/>
					<circle class="st0" cx="80" cy="59.2" r="0.8"/>
					<circle class="st0" cx="80" cy="62.9" r="0.8"/>
					<circle class="st0" cx="80" cy="66.6" r="0.8"/>
				</g>
				<g>
					<circle class="st0" cx="70.5" cy="48.2" r="0.8"/>
					<circle class="st0" cx="70.5" cy="51.8" r="0.8"/>
					<circle class="st0" cx="70.5" cy="55.5" r="0.8"/>
					<circle class="st0" cx="70.5" cy="59.2" r="0.8"/>
					<circle class="st0" cx="70.5" cy="62.9" r="0.8"/>
					<circle class="st0" cx="70.5" cy="66.6" r="0.8"/>
				</g>
				<g>
					<circle class="st0" cx="83.1" cy="48.2" r="0.8"/>
					<circle class="st0" cx="83.1" cy="51.8" r="0.8"/>
					<circle class="st0" cx="83.1" cy="55.5" r="0.8"/>
					<circle class="st0" cx="83.1" cy="59.2" r="0.8"/>
					<circle class="st0" cx="83.1" cy="62.9" r="0.8"/>
					<circle class="st0" cx="83.1" cy="66.6" r="0.8"/>
				</g>
				<g>
					<circle class="st0" cx="73.6" cy="48.2" r="0.8"/>
					<circle class="st0" cx="73.6" cy="51.8" r="0.8"/>
					<circle class="st0" cx="73.6" cy="55.5" r="0.8"/>
					<circle class="st0" cx="73.6" cy="59.2" r="0.8"/>
					<circle class="st0" cx="73.6" cy="62.9" r="0.8"/>
					<circle class="st0" cx="73.6" cy="66.6" r="0.8"/>
				</g>
				<g>
					<circle class="st0" cx="86.3" cy="48.2" r="0.8"/>
					<circle class="st0" cx="86.3" cy="51.8" r="0.8"/>
					<circle class="st0" cx="86.3" cy="55.5" r="0.8"/>
					<circle class="st0" cx="86.3" cy="59.2" r="0.8"/>
					<circle class="st0" cx="86.3" cy="62.9" r="0.8"/>
					<circle class="st0" cx="86.3" cy="66.6" r="0.8"/>
				</g>
				<g>
					<circle class="st0" cx="89" cy="26.8" r="0.8"/>
					<circle class="st0" cx="89" cy="30.5" r="0.8"/>
					<circle class="st0" cx="89" cy="34.2" r="0.8"/>
					<circle class="st0" cx="89" cy="37.9" r="0.8"/>
					<circle class="st0" cx="89" cy="41.6" r="0.8"/>
					<circle class="st0" cx="89" cy="45.3" r="0.8"/>
				</g>
				<g>
					<circle class="st0" cx="92.1" cy="26.8" r="0.8"/>
					<circle class="st0" cx="92.1" cy="30.5" r="0.8"/>
					<circle class="st0" cx="92.1" cy="34.2" r="0.8"/>
					<circle class="st0" cx="92.1" cy="37.9" r="0.8"/>
					<circle class="st0" cx="92.1" cy="41.6" r="0.8"/>
					<circle class="st0" cx="92.1" cy="45.3" r="0.8"/>
				</g>
				<g>
					<circle class="st0" cx="95.3" cy="26.8" r="0.8"/>
					<circle class="st0" cx="95.3" cy="30.5" r="0.8"/>
					<circle class="st0" cx="95.3" cy="34.2" r="0.8"/>
					<circle class="st0" cx="95.3" cy="37.9" r="0.8"/>
					<circle class="st0" cx="95.3" cy="41.6" r="0.8"/>
					<circle class="st0" cx="95.3" cy="45.3" r="0.8"/>
				</g>
				<g>
					<circle class="st0" cx="98.5" cy="26.8" r="0.8"/>
					<circle class="st0" cx="98.5" cy="30.5" r="0.8"/>
					<circle class="st0" cx="98.5" cy="34.2" r="0.8"/>
					<circle class="st0" cx="98.5" cy="37.9" r="0.8"/>
					<circle class="st0" cx="98.5" cy="41.6" r="0.8"/>
					<circle class="st0" cx="98.5" cy="45.3" r="0.8"/>
				</g>
				<g>
					<circle class="st0" cx="89" cy="48.2" r="0.8"/>
					<circle class="st0" cx="89" cy="51.8" r="0.8"/>
					<circle class="st0" cx="89" cy="55.5" r="0.8"/>
					<circle class="st0" cx="89" cy="59.2" r="0.8"/>
					<circle class="st0" cx="89" cy="62.9" r="0.8"/>
					<circle class="st0" cx="89" cy="66.6" r="0.8"/>
				</g>
				<g>
					<circle class="st0" cx="92.1" cy="48.2" r="0.8"/>
					<circle class="st0" cx="92.1" cy="51.8" r="0.8"/>
					<circle class="st0" cx="92.1" cy="55.5" r="0.8"/>
					<circle class="st0" cx="92.1" cy="59.2" r="0.8"/>
					<circle class="st0" cx="92.1" cy="62.9" r="0.8"/>
					<circle class="st0" cx="92.1" cy="66.6" r="0.8"/>
				</g>
				<g>
					<circle class="st0" cx="95.3" cy="48.2" r="0.8"/>
					<circle class="st0" cx="95.3" cy="51.8" r="0.8"/>
					<circle class="st0" cx="95.3" cy="55.5" r="0.8"/>
					<circle class="st0" cx="95.3" cy="59.2" r="0.8"/>
					<circle class="st0" cx="95.3" cy="62.9" r="0.8"/>
					<circle class="st0" cx="95.3" cy="66.6" r="0.8"/>
				</g>
				<g>
					<circle class="st0" cx="98.5" cy="48.2" r="0.8"/>
					<circle class="st0" cx="98.5" cy="51.8" r="0.8"/>
					<circle class="st0" cx="98.5" cy="55.5" r="0.8"/>
					<circle class="st0" cx="98.5" cy="59.2" r="0.8"/>
					<circle class="st0" cx="98.5" cy="62.9" r="0.8"/>
					<circle class="st0" cx="98.5" cy="66.6" r="0.8"/>
				</g>
			</g>
		</g>
	</g>
</g>
</svg>
