<?xml version="1.0" encoding="utf-8"?>
<!-- Generator: Adobe Illustrator 22.0.1, SVG Export Plug-In . SVG Version: 6.00 Build 0)  -->
<svg version="1.1" xmlns="http://www.w3.org/2000/svg" xmlns:xlink="http://www.w3.org/1999/xlink" x="0px" y="0px"
	 viewBox="0 0 100 100" style="enable-background:new 0 0 100 100;" xml:space="preserve">
<style type="text/css">
	.st0{fill:#FFFFFF;}
	.st1{clip-path:url(#SVGID_4_);}
	.st2{fill:none;stroke:#FFFFFF;stroke-width:2;stroke-miterlimit:10;stroke-dasharray:3.9688,3.9688;}
	.st3{clip-path:url(#SVGID_6_);}
	.st4{fill:#696969;}
	.st5{fill:#9E5800;}
	.st6{clip-path:url(#SVGID_8_);}
	.st7{clip-path:url(#SVGID_10_);}
	.st8{clip-path:url(#SVGID_12_);}
	.st9{clip-path:url(#SVGID_14_);}
	.st10{clip-path:url(#SVGID_16_);}
	.st11{clip-path:url(#SVGID_18_);}
	.st12{clip-path:url(#SVGID_20_);}
	.st13{clip-path:url(#SVGID_22_);}
	.st14{clip-path:url(#SVGID_24_);}
	.st15{clip-path:url(#SVGID_26_);}
	.st16{clip-path:url(#SVGID_28_);}
	.st17{clip-path:url(#SVGID_30_);}
	.st18{fill:none;stroke:#9E5800;stroke-width:2;stroke-miterlimit:10;}
	.st19{fill:none;stroke:#9E5800;stroke-miterlimit:10;}
	.st20{clip-path:url(#SVGID_32_);}
	.st21{clip-path:url(#SVGID_34_);}
	.st22{clip-path:url(#SVGID_36_);}
</style>
<g id="KV">
</g>
<g id="圖層_2">
	<g>
		<g>
			<defs>
				
					<rect id="SVGID_15_" x="23.5" y="63.8" transform="matrix(-1.836970e-16 1 -1 -1.836970e-16 103.8132 29.0903)" width="27.7" height="5.2"/>
			</defs>
			<clipPath id="SVGID_2_">
				<use xlink:href="#SVGID_15_"  style="overflow:visible;"/>
			</clipPath>
			<g style="clip-path:url(#SVGID_2_);">
				<circle class="st0" cx="43.2" cy="56.2" r="0.5"/>
				<circle class="st0" cx="40.8" cy="56.2" r="0.5"/>
				<circle class="st0" cx="38.4" cy="56.2" r="0.5"/>
				<circle class="st0" cx="36.1" cy="56.2" r="0.5"/>
				<circle class="st0" cx="33.7" cy="56.2" r="0.5"/>
				<circle class="st0" cx="31.3" cy="56.2" r="0.5"/>
			</g>
			<g style="clip-path:url(#SVGID_2_);">
				<circle class="st0" cx="43.2" cy="58.2" r="0.5"/>
				<circle class="st0" cx="40.8" cy="58.2" r="0.5"/>
				<circle class="st0" cx="38.4" cy="58.2" r="0.5"/>
				<circle class="st0" cx="36.1" cy="58.2" r="0.5"/>
				<circle class="st0" cx="33.7" cy="58.2" r="0.5"/>
				<circle class="st0" cx="31.3" cy="58.2" r="0.5"/>
			</g>
			<g style="clip-path:url(#SVGID_2_);">
				<circle class="st0" cx="43.2" cy="52.1" r="0.5"/>
				<circle class="st0" cx="40.8" cy="52.1" r="0.5"/>
				<circle class="st0" cx="38.4" cy="52.1" r="0.5"/>
				<circle class="st0" cx="36.1" cy="52.1" r="0.5"/>
				<circle class="st0" cx="33.7" cy="52.1" r="0.5"/>
				<circle class="st0" cx="31.3" cy="52.1" r="0.5"/>
			</g>
			<g style="clip-path:url(#SVGID_2_);">
				<circle class="st0" cx="43.2" cy="60.2" r="0.5"/>
				<circle class="st0" cx="40.8" cy="60.2" r="0.5"/>
				<circle class="st0" cx="38.4" cy="60.2" r="0.5"/>
				<circle class="st0" cx="36.1" cy="60.2" r="0.5"/>
				<circle class="st0" cx="33.7" cy="60.2" r="0.5"/>
				<circle class="st0" cx="31.3" cy="60.2" r="0.5"/>
			</g>
			<g style="clip-path:url(#SVGID_2_);">
				<circle class="st0" cx="43.2" cy="54.1" r="0.5"/>
				<circle class="st0" cx="40.8" cy="54.1" r="0.5"/>
				<circle class="st0" cx="38.4" cy="54.1" r="0.5"/>
				<circle class="st0" cx="36.1" cy="54.1" r="0.5"/>
				<circle class="st0" cx="33.7" cy="54.1" r="0.5"/>
				<circle class="st0" cx="31.3" cy="54.1" r="0.5"/>
			</g>
			<g style="clip-path:url(#SVGID_2_);">
				<circle class="st0" cx="43.2" cy="62.3" r="0.5"/>
				<circle class="st0" cx="40.8" cy="62.3" r="0.5"/>
				<circle class="st0" cx="38.4" cy="62.3" r="0.5"/>
				<circle class="st0" cx="36.1" cy="62.3" r="0.5"/>
				<circle class="st0" cx="33.7" cy="62.3" r="0.5"/>
				<circle class="st0" cx="31.3" cy="62.3" r="0.5"/>
			</g>
			<g style="clip-path:url(#SVGID_2_);">
				<circle class="st0" cx="43.2" cy="79.3" r="0.5"/>
				<circle class="st0" cx="40.8" cy="79.3" r="0.5"/>
				<circle class="st0" cx="38.4" cy="79.3" r="0.5"/>
				<circle class="st0" cx="36.1" cy="79.3" r="0.5"/>
				<circle class="st0" cx="33.7" cy="79.3" r="0.5"/>
				<circle class="st0" cx="31.3" cy="79.3" r="0.5"/>
			</g>
			<g style="clip-path:url(#SVGID_2_);">
				<circle class="st0" cx="43.2" cy="81.3" r="0.5"/>
				<circle class="st0" cx="40.8" cy="81.3" r="0.5"/>
				<circle class="st0" cx="38.4" cy="81.3" r="0.5"/>
				<circle class="st0" cx="36.1" cy="81.3" r="0.5"/>
				<circle class="st0" cx="33.7" cy="81.3" r="0.5"/>
				<circle class="st0" cx="31.3" cy="81.3" r="0.5"/>
			</g>
			<g style="clip-path:url(#SVGID_2_);">
				<circle class="st0" cx="43.2" cy="76.8" r="0.5"/>
				<circle class="st0" cx="40.8" cy="76.8" r="0.5"/>
				<circle class="st0" cx="38.4" cy="76.8" r="0.5"/>
				<circle class="st0" cx="36.1" cy="76.8" r="0.5"/>
				<circle class="st0" cx="33.7" cy="76.8" r="0.5"/>
				<circle class="st0" cx="31.3" cy="76.8" r="0.5"/>
			</g>
			<g style="clip-path:url(#SVGID_2_);">
				<circle class="st0" cx="43.2" cy="70.7" r="0.5"/>
				<circle class="st0" cx="40.8" cy="70.7" r="0.5"/>
				<circle class="st0" cx="38.4" cy="70.7" r="0.5"/>
				<circle class="st0" cx="36.1" cy="70.7" r="0.5"/>
				<circle class="st0" cx="33.7" cy="70.7" r="0.5"/>
				<circle class="st0" cx="31.3" cy="70.7" r="0.5"/>
			</g>
			<g style="clip-path:url(#SVGID_2_);">
				<circle class="st0" cx="43.2" cy="72.8" r="0.5"/>
				<circle class="st0" cx="40.8" cy="72.8" r="0.5"/>
				<circle class="st0" cx="38.4" cy="72.8" r="0.5"/>
				<circle class="st0" cx="36.1" cy="72.8" r="0.5"/>
				<circle class="st0" cx="33.7" cy="72.8" r="0.5"/>
				<circle class="st0" cx="31.3" cy="72.8" r="0.5"/>
			</g>
			<g style="clip-path:url(#SVGID_2_);">
				<circle class="st0" cx="43.2" cy="74.8" r="0.5"/>
				<circle class="st0" cx="40.8" cy="74.8" r="0.5"/>
				<circle class="st0" cx="38.4" cy="74.8" r="0.5"/>
				<circle class="st0" cx="36.1" cy="74.8" r="0.5"/>
				<circle class="st0" cx="33.7" cy="74.8" r="0.5"/>
				<circle class="st0" cx="31.3" cy="74.8" r="0.5"/>
			</g>
			<g style="clip-path:url(#SVGID_2_);">
				<circle class="st0" cx="43.2" cy="64.2" r="0.5"/>
				<circle class="st0" cx="40.8" cy="64.2" r="0.5"/>
				<circle class="st0" cx="38.4" cy="64.2" r="0.5"/>
				<circle class="st0" cx="36.1" cy="64.2" r="0.5"/>
				<circle class="st0" cx="33.7" cy="64.2" r="0.5"/>
				<circle class="st0" cx="31.3" cy="64.2" r="0.5"/>
			</g>
			<g style="clip-path:url(#SVGID_2_);">
				<circle class="st0" cx="43.2" cy="66.2" r="0.5"/>
				<circle class="st0" cx="40.8" cy="66.2" r="0.5"/>
				<circle class="st0" cx="38.4" cy="66.2" r="0.5"/>
				<circle class="st0" cx="36.1" cy="66.2" r="0.5"/>
				<circle class="st0" cx="33.7" cy="66.2" r="0.5"/>
				<circle class="st0" cx="31.3" cy="66.2" r="0.5"/>
			</g>
			<g style="clip-path:url(#SVGID_2_);">
				<circle class="st0" cx="43.2" cy="68.3" r="0.5"/>
				<circle class="st0" cx="40.8" cy="68.3" r="0.5"/>
				<circle class="st0" cx="38.4" cy="68.3" r="0.5"/>
				<circle class="st0" cx="36.1" cy="68.3" r="0.5"/>
				<circle class="st0" cx="33.7" cy="68.3" r="0.5"/>
				<circle class="st0" cx="31.3" cy="68.3" r="0.5"/>
			</g>
		</g>
		<g>
			<g>
				<path class="st0" d="M12.6,18.8c0,20.6,0,41.3,0,61.9c0,0.7,0.9,1.2,1.5,1.2c24.1,0,48.2,0,72.3,0c1.6,0,0.6-1.9-0.6-1.9
					c-24.1,0-48.2,0-72.3,0c0.5,0.4,1,0.8,1.5,1.2c0-20.6,0-41.3,0-61.9C15.1,18.1,12.6,17.5,12.6,18.8L12.6,18.8z"/>
			</g>
		</g>
		<g>
			<g>
				<path class="st0" d="M21.7,52.7c6.6-4.4,14-8.4,20.1-13.4c0.4-0.3,0.8-0.5,1.2-0.8c0,0-1.6-0.4-0.6,0.1c1.7,0.9,3.5,1.5,5.2,2.3
					c3.7,1.6,7.4,3.2,11.1,4.9c0.5,0.2,1.1,0.2,1.5-0.2c5.8-5.9,11.6-11.9,17.4-17.8c1.1-1.2-0.6-2.9-1.8-1.8
					c-4.6,4.7-9.2,9.5-13.9,14.2c-0.7,0.7-2.7,2.1-3,3.1c-0.4,1,1,0.8,0.2,0c-0.8-0.9-3.1-1.3-4.2-1.8c-2.1-0.9-4.1-1.8-6.2-2.7
					c-1.6-0.7-4.5-2.8-6.4-2.7c-1.7,0.1-4.2,2.5-5.5,3.4c-5.6,3.7-11.1,7.4-16.7,11.1C19.1,51.5,20.3,53.6,21.7,52.7L21.7,52.7z"/>
			</g>
		</g>
		<g>
			<g>
				<path class="st0" d="M69.3,27.8c2.9-0.4,5.8-0.8,8.7-1.2c-0.4-0.3-0.9-0.5-1.3-0.8c-0.1,2.9-0.1,5.7-0.2,8.6
					c0,1.2,2.5,0.9,2.5-0.3c0.1-2.9,0.1-5.7,0.2-8.6c0-0.6-0.9-0.8-1.3-0.8c-2.9,0.4-5.8,0.8-8.7,1.2C67.5,26.3,67.7,28.1,69.3,27.8
					L69.3,27.8z"/>
			</g>
		</g>
		<g>
			<g>
				<path class="st0" d="M23.7,80.3c0-4,0-7.9,0-11.9c0-2.3,0.4-5,0-7.3c-0.1-0.4-0.1-1,0-1.3c-0.2,1.2-1.3,0.2,0.6,0.6
					c0.3,0.1,1.3-0.2,1.5,0c0.5,0.5,0.1,3.3,0.1,4.1c0,2.7,0,5.4,0,8.1c0,2.2-0.4,4.7,0,6.9c0.1,0.4,0.1,1,0,1.3
					c0.2-1.1,1.3-0.4-0.6-0.6C24.7,80.2,24.1,80.2,23.7,80.3c-0.4-0.1-1,0.6-1,0.6c1.1,0,2.1,0,3.2,0c0.2,0,1-0.4,1-0.6
					c0-6.8,0-13.7,0-20.5c0,0,0-0.1,0-0.1c-1.1,0-2.1,0-3.2,0c-0.2,0-1,0.4-1,0.6c0,6.8,0,13.7,0,20.5C22.6,81,23.7,80.6,23.7,80.3z
					"/>
			</g>
		</g>
		<g>
			<g>
				<path class="st0" d="M61.2,80.7c0-5.1,0-10.2,0-15.3c0-2.8-0.4-6,0-8.7c0.4-2.3,0.7-1.6,3.3-1.6c-0.4-0.1-0.8-0.2-1.1-0.3
					c0,5.1,0,10.2,0,15.3c0,2.8,0.4,6,0,8.7c-0.4,2.3-0.7,1.6-3.3,1.6C60,80.4,60.9,80.7,61.2,80.7c1,0,2.1,0,3.3,0c0,0,0.1,0,0.1,0
					c0-8.5,0-17.1,0-25.6c0-0.2-1-0.3-1.1-0.3c-1.1,0-2.2,0-3.4,0c0,0-0.1,0-0.1,0c0,8.5,0,17.1,0,25.6C60,80.6,61.2,80.7,61.2,80.7
					z"/>
			</g>
		</g>
		<g>
			<g>
				<path class="st0" d="M73.3,80.9c0-6.8,0-13.6,0-20.4c0-4.2,0-8.5,0-12.7c0-3.4-0.6-3.7,3.2-3.7c-0.3-0.2-0.7-0.5-1-0.7
					c0,6.8,0,13.6,0,20.4c0,4.2,0,8.5,0,12.7c0,3.4,0.6,3.7-3.2,3.7C72.4,80.2,73,80.9,73.3,80.9c1,0,2.1,0,3.2,0c0,0,0,0,0,0
					c0-12.3,0-24.6,0-36.8c0-0.2-0.8-0.7-1-0.7c-1.1,0-2.1,0-3.2,0c0,0,0,0,0,0c0,12.3,0,24.6,0,36.8C72.3,80.5,73.3,80.8,73.3,80.9
					z"/>
			</g>
		</g>
		<g>
			<g>
				<path class="st0" d="M35.4,80.5c0-5.6,0-11.3,0-16.9c0-3,0.4-6.4,0-9.4c-0.1-1,0.4-1.7-0.5-1c0.5-0.3,4.9,0.1,4.6-0.2
					c0.1,0.2-0.1,4.8-0.1,5.8c0,3.8,0,7.6,0,11.5c0,3-0.2,6.2,0,9.2c0.1,1.5-0.1,0.9,0.2,0.8c-1.2,0.4-3.4,0-4.7,0
					c-0.7,0-1,0.9-0.2,0.9c1.7,0,3.5,0,5.2,0c0.3,0,0.7-0.1,0.7-0.5c0-9.3,0-18.6,0-27.9c0-0.2-0.3-0.4-0.5-0.4c-1.7,0-3.5,0-5.2,0
					c-0.3,0-0.7,0.1-0.7,0.5c0,9.3,0,18.6,0,27.9C34.1,81.2,35.4,81.1,35.4,80.5z"/>
			</g>
		</g>
		<g>
			<g>
				<path class="st0" d="M48.6,80.9c0-5.7,0-11.5,0-17.2c0-3.3,0-6.6,0-9.8c0-0.3-0.2-2,0-2.3c0.4-0.5,3.9,0.4,3-0.5
					c-0.7-0.6-0.3,0.7-0.3,1.3c-0.1,1.4,0,2.9,0,4.3c0,3.7,0,7.5,0,11.2c0,3.3,0,6.6,0,9.8c0,3-0.4,2.4-3.6,2.4
					C47.5,80.2,48.2,81,48.6,80.9c1.2,0.1,2.4,0.1,3.6,0.1c0,0,0.1,0,0.1-0.1c0-9.8,0-19.7,0-29.5c0-0.3-0.7-0.7-0.9-0.7
					c-1.2,0-2.4,0-3.6,0c0,0-0.1,0-0.1,0.1c0,9.8,0,19.7,0,29.5C47.6,80.5,48.6,81.1,48.6,80.9z"/>
			</g>
		</g>
	</g>
</g>
</svg>
