<?xml version="1.0" encoding="utf-8"?>
<!-- Generator: Adobe Illustrator 22.0.1, SVG Export Plug-In . SVG Version: 6.00 Build 0)  -->
<svg version="1.1" xmlns="http://www.w3.org/2000/svg" xmlns:xlink="http://www.w3.org/1999/xlink" x="0px" y="0px"
	 viewBox="0 0 100 100" style="enable-background:new 0 0 100 100;" xml:space="preserve">
<style type="text/css">
	.st0{fill:#FFFFFF;}
	.st1{clip-path:url(#SVGID_4_);}
	.st2{fill:none;stroke:#FFFFFF;stroke-width:2;stroke-miterlimit:10;stroke-dasharray:3.9688,3.9688;}
	.st3{clip-path:url(#SVGID_6_);}
	.st4{fill:#696969;}
	.st5{fill:#9E5800;}
	.st6{clip-path:url(#SVGID_8_);}
	.st7{clip-path:url(#SVGID_10_);}
	.st8{clip-path:url(#SVGID_12_);}
	.st9{clip-path:url(#SVGID_14_);}
	.st10{clip-path:url(#SVGID_16_);}
	.st11{clip-path:url(#SVGID_18_);}
	.st12{clip-path:url(#SVGID_20_);}
	.st13{clip-path:url(#SVGID_22_);}
	.st14{clip-path:url(#SVGID_24_);}
	.st15{clip-path:url(#SVGID_26_);}
	.st16{clip-path:url(#SVGID_28_);}
	.st17{clip-path:url(#SVGID_30_);}
	.st18{fill:none;stroke:#9E5800;stroke-width:2;stroke-miterlimit:10;}
	.st19{fill:none;stroke:#9E5800;stroke-miterlimit:10;}
	.st20{clip-path:url(#SVGID_32_);}
	.st21{clip-path:url(#SVGID_34_);}
	.st22{clip-path:url(#SVGID_36_);}
</style>
<g id="KV">
</g>
<g id="圖層_2">
	<g>
		<g>
			<path class="st0" d="M15.5,61.4c0-13.4,0-26.7,0-40.1c0-1.4-0.4-3.5,0-4.9c0.8-2.9,2.6-2.7,4.9-2.7c6.6,0,13.3,0,19.9,0
				c8.7,0,17.4,0,26.1,0c3.5,0,6.9,0,10.4,0c1.6,0,4.4-0.5,5.9,0c3.1,1.1,1.8,8.9,1.8,11.4c0,8.4,0,16.9,0,25.3c0,4.1,0,8.2,0,12.3
				c0,1.6,0.4,3.9,0,5.5c-1.1,4.2-7.4,2.8-10.7,2.8c-3.5,0-6.9,0-10.4,0c-1.6,0,0.6,0.7,1.2,0.7c6.1,0,13,1,19,0
				c5.2-0.8,3.4-9.1,3.4-13c0-9.3,0-18.5,0-27.8c0-3.7,0-7.4,0-11.1c0-1.4,0.3-3.4-0.3-4.7c-1.6-3.4-8.5-2.3-11.4-2.3
				c-8.5,0-16.9,0-25.4,0c-8.8,0-17.6,0-26.4,0c-3.4,0-9.7-1.3-10.5,3.1c-0.4,2.4,0,5.3,0,7.7c0,5.1,0,10.1,0,15.2
				c0,7.3,0,14.7,0,22C13,61.5,15.5,61.7,15.5,61.4L15.5,61.4z"/>
		</g>
	</g>
	<g>
		<g>
			<path class="st0" d="M24.9,46.6c2.9,0,5.8,0,8.7,0c2.2,0,5.5,0.6,7.6-0.3c3.3-1.4,2.2-5.6,2.4-8.3c0.1-1.6,1.2-5.1-1.5-5.4
				c-1.3-0.1-1.6,1-2.5,1.6c-1.2,0.7-2.5,0.5-3.8,0.5c-3.5,0-7.1-0.2-10.6,0c-3,0.2-4.3,1.5-4.5,4.5c-0.2,3.3,0.1,6.6,3.9,7.4
				c1.5,0.3,1.4-2,0.1-2.3c-2-0.4-2.2-2.9-1.9-4.5c0.4-1.9,1.4-2.5,3-2.8c2.2-0.3,4.7,0,6.9,0c1.9,0,4,0.2,5.9,0
				c0.5-0.1,4.6-1.6,3.2-2.3c-0.1,0-0.3,5.6-0.4,5.8c-0.4,3-1.8,3.7-4.5,3.7c-4.2,0-8.3,0-12.5,0C23,44.3,23.6,46.6,24.9,46.6z"/>
		</g>
	</g>
	<g>
		<g>
			<path class="st0" d="M23.8,46.5c4.3,0,8.6,0,12.9,0c0.7,0,2.1,0.3,2.8,0c0.6-0.3,0-0.4,0-0.4c-1.2,0.7-0.1-1-0.4,0
				c-0.1,0.5,0.3,1.6,0.4,2.1c0.1,1,0.2,2,0.1,3.1c-0.2,2.6-1.2,5.2-3.7,6.3c-3,1.3-7.6,0.9-9.7-1.9c-2.1-2.8-1.8-7.1-1-10.3
				c0.4-1.5-2.1-1.4-2.4-0.1c-2.1,7.6,1,15.6,9.9,15.1c8.4-0.4,10.6-8.5,8.6-15.6c-0.1-0.4-0.6-0.6-0.9-0.6c-5.4,0-10.8,0-16.2,0
				C22.8,44.3,22.2,46.5,23.8,46.5z"/>
		</g>
	</g>
	<g>
		<g>
			<path class="st0" d="M15.4,86.7c0-4.8-0.3-9.8,0-14.6c0.6-9.7,9.4-8.6,16.4-8.6c7,0,16-1.1,16.6,8.7c0.3,4.8,0,9.8,0,14.6
				c0.4-0.3,0.8-0.6,1.2-0.9c-11.7,0-23.5,0-35.2,0c-1.3,0-1.6,1.7-0.2,1.7c11.7,0,23.5,0,35.2,0c0.4,0,1.2-0.4,1.2-0.9
				c0-3.3,0-6.6,0-9.9c0-3,0.4-6.3-0.8-9.1c-3.1-7.2-11.4-5.8-17.8-5.8c-6.5,0-14.7-1.2-17.9,6c-2.4,5.3-0.9,13.3-0.9,19
				C13.2,88,15.4,87.7,15.4,86.7z"/>
		</g>
	</g>
	<g>
		<g>
			<path class="st0" d="M50.5,68.9c1.2-0.9,2.5-1.8,3.7-2.7c-0.8,0-1.5,0-2.3,0c1.2,1.1,2.4,2.3,3.6,3.4c0.3,0.3,1.4,1,1.5,1.4
				c0,0,0.1-0.5-0.1-0.1c-0.1,0.2-0.5,0.4-0.7,0.6c-2.6,2.3-5.2,4.6-7.9,7c-0.6,0.5,1.7,0.7,2.2,0.3c2.9-2.6,5.8-5.2,8.8-7.8
				c0.1-0.1,0.2-0.2,0.1-0.3c-1.7-1.6-3.4-3.3-5.2-4.9c-0.5-0.4-1.8-0.3-2.3,0c-1.2,0.9-2.5,1.8-3.7,2.7C47.7,69,50,69.2,50.5,68.9
				L50.5,68.9z"/>
		</g>
	</g>
	<g>
		<g>
			<path class="st0" d="M54.6,66.7c1-1.2,2.8-2.7,4.5-2.1c0.7,0.3,0.8,0.6,0.7,1.3c-0.1,0.5-0.4,1-0.7,1.5c-0.3,0.5-0.8,1-1.2,1.4
				c-0.3,0.2,0.9,1.8,1.1,1.7c0.7-0.6,1.4-1.4,1.7-2.2c0.6-1.4,0-2.8-0.9-3.9c-1-1.2-2.3-1.9-3.8-1.2c-0.9,0.4-1.8,1.1-2.4,2
				C53.3,65.3,54.6,66.7,54.6,66.7L54.6,66.7z"/>
		</g>
	</g>
	<g>
		<g>
			<path class="st0" d="M60.7,63.2c3.4-3.4,6.9-6.9,10.3-10.3c-0.6,0.1-1.2,0.2-1.8,0.3c0.1,0.1,0.9,0.8,0.8,0.5c0,0,0-0.3-0.1,0.1
				c-0.1,0.3-0.7,0.7-0.9,0.9c-1.3,1.3-2.5,2.6-3.8,3.9c-2,2-4,4-5.9,6c-0.6,0.6,1.4,0.6,1.8,0.1c3.6-3.7,7.3-7.3,10.9-11
				c0.1-0.1,0.1-0.3,0-0.4c-0.3-0.3-0.6-0.5-0.9-0.8c-0.5-0.4-1.4-0.2-1.8,0.3c-3.4,3.4-6.9,6.9-10.3,10.3
				C58.3,63.7,60.2,63.7,60.7,63.2L60.7,63.2z"/>
		</g>
	</g>
	<g>
		<g>
			<path class="st0" d="M19.1,24.9c20.3,0,40.7,0,61,0c1.3,0,2-1.7,0.4-1.7c-20.3,0-40.7,0-61,0C18.1,23.2,17.4,24.9,19.1,24.9
				L19.1,24.9z"/>
		</g>
	</g>
	<g>
		<g>
			<path class="st0" d="M47.1,55.7c3.5-3.3,7-6.6,10.6-9.9c-0.7-0.2-1.4-0.3-2.1-0.5c1,1.4,2.1,2.7,3.1,4.1c0.3,0.5,1.6,0.9,2.1,0.5
				c5.4-5.4,10.9-10.7,16.3-16.1c0.7-0.7-1.5-1.8-2.1-1.2c-5.4,5.4-10.9,10.7-16.3,16.1c0.7,0.2,1.4,0.3,2.1,0.5
				c-1-1.4-2.1-2.7-3.1-4.1c-0.4-0.5-1.5-0.9-2.1-0.5c-3.5,3.3-7,6.6-10.6,9.9C44.3,55.2,46.5,56.3,47.1,55.7L47.1,55.7z"/>
		</g>
	</g>
	<g>
		<g>
			<path class="st0" d="M71.7,33.2c1.8-0.1,3.6-0.2,5.4-0.2c-0.2-0.1-0.5-0.2-0.7-0.3c0,1.8,0,3.6,0,5.5c0,0.6,2.4,0.2,2.4-0.5
				c0-1.8,0-3.6,0-5.5c0-0.2-0.6-0.3-0.7-0.3c-1.8,0.1-3.6,0.2-5.4,0.2c-0.5,0-1.4,0.1-1.6,0.5C70.9,33,71.3,33.2,71.7,33.2
				L71.7,33.2z"/>
		</g>
	</g>
	<g>
		<g>
			<path class="st0" d="M22.3,63.3c2.9,5.6,5.8,11.2,8.7,16.8c0.4,0.8,1.9-0.1,2.1-0.6c2.5-5.4,5.1-10.8,7.6-16.2
				c0.6-1.3-1.7-0.9-2.1,0c-2.5,5.4-5.1,10.8-7.6,16.2c0.7-0.2,1.4-0.4,2.1-0.6c-2.9-5.6-5.8-11.2-8.7-16.8
				C24,61.1,21.8,62.4,22.3,63.3L22.3,63.3z"/>
		</g>
	</g>
	<g>
		<defs>
			<rect id="SVGID_31_" x="15.3" y="14.3" width="69.9" height="8.3"/>
		</defs>
		<clipPath id="SVGID_2_">
			<use xlink:href="#SVGID_31_"  style="overflow:visible;"/>
		</clipPath>
		<g style="clip-path:url(#SVGID_2_);">
			<circle class="st0" cx="74.3" cy="12.8" r="0.6"/>
			<circle class="st0" cx="74.3" cy="15.6" r="0.6"/>
			<circle class="st0" cx="74.3" cy="18.3" r="0.6"/>
			<circle class="st0" cx="74.3" cy="21.1" r="0.6"/>
			<circle class="st0" cx="74.3" cy="23.8" r="0.6"/>
			<circle class="st0" cx="74.3" cy="26.6" r="0.6"/>
		</g>
		<g style="clip-path:url(#SVGID_2_);">
			<circle class="st0" cx="67.2" cy="12.8" r="0.6"/>
			<circle class="st0" cx="67.2" cy="15.6" r="0.6"/>
			<circle class="st0" cx="67.2" cy="18.3" r="0.6"/>
			<circle class="st0" cx="67.2" cy="21.1" r="0.6"/>
			<circle class="st0" cx="67.2" cy="23.8" r="0.6"/>
			<circle class="st0" cx="67.2" cy="26.6" r="0.6"/>
		</g>
		<g style="clip-path:url(#SVGID_2_);">
			<circle class="st0" cx="76.6" cy="12.8" r="0.6"/>
			<circle class="st0" cx="76.6" cy="15.6" r="0.6"/>
			<circle class="st0" cx="76.6" cy="18.3" r="0.6"/>
			<circle class="st0" cx="76.6" cy="21.1" r="0.6"/>
			<circle class="st0" cx="76.6" cy="23.8" r="0.6"/>
			<circle class="st0" cx="76.6" cy="26.6" r="0.6"/>
		</g>
		<g style="clip-path:url(#SVGID_2_);">
			<circle class="st0" cx="69.5" cy="12.8" r="0.6"/>
			<circle class="st0" cx="69.5" cy="15.6" r="0.6"/>
			<circle class="st0" cx="69.5" cy="18.3" r="0.6"/>
			<circle class="st0" cx="69.5" cy="21.1" r="0.6"/>
			<circle class="st0" cx="69.5" cy="23.8" r="0.6"/>
			<circle class="st0" cx="69.5" cy="26.6" r="0.6"/>
		</g>
		<g style="clip-path:url(#SVGID_2_);">
			<circle class="st0" cx="79" cy="12.8" r="0.6"/>
			<circle class="st0" cx="79" cy="15.6" r="0.6"/>
			<circle class="st0" cx="79" cy="18.3" r="0.6"/>
			<circle class="st0" cx="79" cy="21.1" r="0.6"/>
			<circle class="st0" cx="79" cy="23.8" r="0.6"/>
			<circle class="st0" cx="79" cy="26.6" r="0.6"/>
		</g>
		<g style="clip-path:url(#SVGID_2_);">
			<circle class="st0" cx="71.9" cy="12.8" r="0.6"/>
			<circle class="st0" cx="71.9" cy="15.6" r="0.6"/>
			<circle class="st0" cx="71.9" cy="18.3" r="0.6"/>
			<circle class="st0" cx="71.9" cy="21.1" r="0.6"/>
			<circle class="st0" cx="71.9" cy="23.8" r="0.6"/>
			<circle class="st0" cx="71.9" cy="26.6" r="0.6"/>
		</g>
		<g style="clip-path:url(#SVGID_2_);">
			<circle class="st0" cx="81.4" cy="12.8" r="0.6"/>
			<circle class="st0" cx="81.4" cy="15.6" r="0.6"/>
			<circle class="st0" cx="81.4" cy="18.3" r="0.6"/>
			<circle class="st0" cx="81.4" cy="21.1" r="0.6"/>
			<circle class="st0" cx="81.4" cy="23.8" r="0.6"/>
			<circle class="st0" cx="81.4" cy="26.6" r="0.6"/>
		</g>
		<g style="clip-path:url(#SVGID_2_);">
			<circle class="st0" cx="19.4" cy="12.8" r="0.6"/>
			<circle class="st0" cx="19.4" cy="15.6" r="0.6"/>
			<circle class="st0" cx="19.4" cy="18.3" r="0.6"/>
			<circle class="st0" cx="19.4" cy="21.1" r="0.6"/>
			<circle class="st0" cx="19.4" cy="23.8" r="0.6"/>
			<circle class="st0" cx="19.4" cy="26.6" r="0.6"/>
		</g>
		<g style="clip-path:url(#SVGID_2_);">
			<circle class="st0" cx="21.8" cy="12.8" r="0.6"/>
			<circle class="st0" cx="21.8" cy="15.6" r="0.6"/>
			<circle class="st0" cx="21.8" cy="18.3" r="0.6"/>
			<circle class="st0" cx="21.8" cy="21.1" r="0.6"/>
			<circle class="st0" cx="21.8" cy="23.8" r="0.6"/>
			<circle class="st0" cx="21.8" cy="26.6" r="0.6"/>
		</g>
		<g style="clip-path:url(#SVGID_2_);">
			<circle class="st0" cx="14.7" cy="12.8" r="0.6"/>
			<circle class="st0" cx="14.7" cy="15.6" r="0.6"/>
			<circle class="st0" cx="14.7" cy="18.3" r="0.6"/>
			<circle class="st0" cx="14.7" cy="21.1" r="0.6"/>
			<circle class="st0" cx="14.7" cy="23.8" r="0.6"/>
			<circle class="st0" cx="14.7" cy="26.6" r="0.6"/>
		</g>
		<g style="clip-path:url(#SVGID_2_);">
			<circle class="st0" cx="24.2" cy="12.8" r="0.6"/>
			<circle class="st0" cx="24.2" cy="15.6" r="0.6"/>
			<circle class="st0" cx="24.2" cy="18.3" r="0.6"/>
			<circle class="st0" cx="24.2" cy="21.1" r="0.6"/>
			<circle class="st0" cx="24.2" cy="23.8" r="0.6"/>
			<circle class="st0" cx="24.2" cy="26.6" r="0.6"/>
		</g>
		<g style="clip-path:url(#SVGID_2_);">
			<circle class="st0" cx="17" cy="12.8" r="0.6"/>
			<circle class="st0" cx="17" cy="15.6" r="0.6"/>
			<circle class="st0" cx="17" cy="18.3" r="0.6"/>
			<circle class="st0" cx="17" cy="21.1" r="0.6"/>
			<circle class="st0" cx="17" cy="23.8" r="0.6"/>
			<circle class="st0" cx="17" cy="26.6" r="0.6"/>
		</g>
		<g style="clip-path:url(#SVGID_2_);">
			<circle class="st0" cx="26.5" cy="12.8" r="0.6"/>
			<circle class="st0" cx="26.5" cy="15.6" r="0.6"/>
			<circle class="st0" cx="26.5" cy="18.3" r="0.6"/>
			<circle class="st0" cx="26.5" cy="21.1" r="0.6"/>
			<circle class="st0" cx="26.5" cy="23.8" r="0.6"/>
			<circle class="st0" cx="26.5" cy="26.6" r="0.6"/>
		</g>
		<g style="clip-path:url(#SVGID_2_);">
			<circle class="st0" cx="83.4" cy="12.8" r="0.6"/>
			<circle class="st0" cx="83.4" cy="15.6" r="0.6"/>
			<circle class="st0" cx="83.4" cy="18.3" r="0.6"/>
			<circle class="st0" cx="83.4" cy="21.1" r="0.6"/>
			<circle class="st0" cx="83.4" cy="23.8" r="0.6"/>
			<circle class="st0" cx="83.4" cy="26.6" r="0.6"/>
		</g>
		<g style="clip-path:url(#SVGID_2_);">
			<circle class="st0" cx="85.7" cy="12.8" r="0.6"/>
			<circle class="st0" cx="85.7" cy="15.6" r="0.6"/>
			<circle class="st0" cx="85.7" cy="18.3" r="0.6"/>
			<circle class="st0" cx="85.7" cy="21.1" r="0.6"/>
			<circle class="st0" cx="85.7" cy="23.8" r="0.6"/>
			<circle class="st0" cx="85.7" cy="26.6" r="0.6"/>
		</g>
		<g style="clip-path:url(#SVGID_2_);">
			<circle class="st0" cx="53.5" cy="12.8" r="0.6"/>
			<circle class="st0" cx="53.5" cy="15.6" r="0.6"/>
			<circle class="st0" cx="53.5" cy="18.3" r="0.6"/>
			<circle class="st0" cx="53.5" cy="21.1" r="0.6"/>
			<circle class="st0" cx="53.5" cy="23.8" r="0.6"/>
			<circle class="st0" cx="53.5" cy="26.6" r="0.6"/>
		</g>
		<g style="clip-path:url(#SVGID_2_);">
			<circle class="st0" cx="46.3" cy="12.8" r="0.6"/>
			<circle class="st0" cx="46.3" cy="15.6" r="0.6"/>
			<circle class="st0" cx="46.3" cy="18.3" r="0.6"/>
			<circle class="st0" cx="46.3" cy="21.1" r="0.6"/>
			<circle class="st0" cx="46.3" cy="23.8" r="0.6"/>
			<circle class="st0" cx="46.3" cy="26.6" r="0.6"/>
		</g>
		<g style="clip-path:url(#SVGID_2_);">
			<circle class="st0" cx="55.8" cy="12.8" r="0.6"/>
			<circle class="st0" cx="55.8" cy="15.6" r="0.6"/>
			<circle class="st0" cx="55.8" cy="18.3" r="0.6"/>
			<circle class="st0" cx="55.8" cy="21.1" r="0.6"/>
			<circle class="st0" cx="55.8" cy="23.8" r="0.6"/>
			<circle class="st0" cx="55.8" cy="26.6" r="0.6"/>
		</g>
		<g style="clip-path:url(#SVGID_2_);">
			<circle class="st0" cx="48.7" cy="12.8" r="0.6"/>
			<circle class="st0" cx="48.7" cy="15.6" r="0.6"/>
			<circle class="st0" cx="48.7" cy="18.3" r="0.6"/>
			<circle class="st0" cx="48.7" cy="21.1" r="0.6"/>
			<circle class="st0" cx="48.7" cy="23.8" r="0.6"/>
			<circle class="st0" cx="48.7" cy="26.6" r="0.6"/>
		</g>
		<g style="clip-path:url(#SVGID_2_);">
			<circle class="st0" cx="58.2" cy="12.8" r="0.6"/>
			<circle class="st0" cx="58.2" cy="15.6" r="0.6"/>
			<circle class="st0" cx="58.2" cy="18.3" r="0.6"/>
			<circle class="st0" cx="58.2" cy="21.1" r="0.6"/>
			<circle class="st0" cx="58.2" cy="23.8" r="0.6"/>
			<circle class="st0" cx="58.2" cy="26.6" r="0.6"/>
		</g>
		<g style="clip-path:url(#SVGID_2_);">
			<circle class="st0" cx="51.1" cy="12.8" r="0.6"/>
			<circle class="st0" cx="51.1" cy="15.6" r="0.6"/>
			<circle class="st0" cx="51.1" cy="18.3" r="0.6"/>
			<circle class="st0" cx="51.1" cy="21.1" r="0.6"/>
			<circle class="st0" cx="51.1" cy="23.8" r="0.6"/>
			<circle class="st0" cx="51.1" cy="26.6" r="0.6"/>
		</g>
		<g style="clip-path:url(#SVGID_2_);">
			<circle class="st0" cx="43.5" cy="12.8" r="0.6"/>
			<circle class="st0" cx="43.5" cy="15.6" r="0.6"/>
			<circle class="st0" cx="43.5" cy="18.3" r="0.6"/>
			<circle class="st0" cx="43.5" cy="21.1" r="0.6"/>
			<circle class="st0" cx="43.5" cy="23.8" r="0.6"/>
			<circle class="st0" cx="43.5" cy="26.6" r="0.6"/>
		</g>
		<g style="clip-path:url(#SVGID_2_);">
			<circle class="st0" cx="36.4" cy="12.8" r="0.6"/>
			<circle class="st0" cx="36.4" cy="15.6" r="0.6"/>
			<circle class="st0" cx="36.4" cy="18.3" r="0.6"/>
			<circle class="st0" cx="36.4" cy="21.1" r="0.6"/>
			<circle class="st0" cx="36.4" cy="23.8" r="0.6"/>
			<circle class="st0" cx="36.4" cy="26.6" r="0.6"/>
		</g>
		<g style="clip-path:url(#SVGID_2_);">
			<circle class="st0" cx="38.7" cy="12.8" r="0.6"/>
			<circle class="st0" cx="38.7" cy="15.6" r="0.6"/>
			<circle class="st0" cx="38.7" cy="18.3" r="0.6"/>
			<circle class="st0" cx="38.7" cy="21.1" r="0.6"/>
			<circle class="st0" cx="38.7" cy="23.8" r="0.6"/>
			<circle class="st0" cx="38.7" cy="26.6" r="0.6"/>
		</g>
		<g style="clip-path:url(#SVGID_2_);">
			<circle class="st0" cx="41.1" cy="12.8" r="0.6"/>
			<circle class="st0" cx="41.1" cy="15.6" r="0.6"/>
			<circle class="st0" cx="41.1" cy="18.3" r="0.6"/>
			<circle class="st0" cx="41.1" cy="21.1" r="0.6"/>
			<circle class="st0" cx="41.1" cy="23.8" r="0.6"/>
			<circle class="st0" cx="41.1" cy="26.6" r="0.6"/>
		</g>
		<g style="clip-path:url(#SVGID_2_);">
			<circle class="st0" cx="60.6" cy="12.8" r="0.6"/>
			<circle class="st0" cx="60.6" cy="15.6" r="0.6"/>
			<circle class="st0" cx="60.6" cy="18.3" r="0.6"/>
			<circle class="st0" cx="60.6" cy="21.1" r="0.6"/>
			<circle class="st0" cx="60.6" cy="23.8" r="0.6"/>
			<circle class="st0" cx="60.6" cy="26.6" r="0.6"/>
		</g>
		<g style="clip-path:url(#SVGID_2_);">
			<circle class="st0" cx="62.6" cy="12.8" r="0.6"/>
			<circle class="st0" cx="62.6" cy="15.6" r="0.6"/>
			<circle class="st0" cx="62.6" cy="18.3" r="0.6"/>
			<circle class="st0" cx="62.6" cy="21.1" r="0.6"/>
			<circle class="st0" cx="62.6" cy="23.8" r="0.6"/>
			<circle class="st0" cx="62.6" cy="26.6" r="0.6"/>
		</g>
		<g style="clip-path:url(#SVGID_2_);">
			<circle class="st0" cx="64.9" cy="12.8" r="0.6"/>
			<circle class="st0" cx="64.9" cy="15.6" r="0.6"/>
			<circle class="st0" cx="64.9" cy="18.3" r="0.6"/>
			<circle class="st0" cx="64.9" cy="21.1" r="0.6"/>
			<circle class="st0" cx="64.9" cy="23.8" r="0.6"/>
			<circle class="st0" cx="64.9" cy="26.6" r="0.6"/>
		</g>
		<g style="clip-path:url(#SVGID_2_);">
			<circle class="st0" cx="88.1" cy="12.8" r="0.6"/>
			<circle class="st0" cx="88.1" cy="15.6" r="0.6"/>
			<circle class="st0" cx="88.1" cy="18.3" r="0.6"/>
			<circle class="st0" cx="88.1" cy="21.1" r="0.6"/>
			<circle class="st0" cx="88.1" cy="23.8" r="0.6"/>
			<circle class="st0" cx="88.1" cy="26.6" r="0.6"/>
		</g>
		<g style="clip-path:url(#SVGID_2_);">
			<circle class="st0" cx="28.8" cy="12.8" r="0.6"/>
			<circle class="st0" cx="28.8" cy="15.6" r="0.6"/>
			<circle class="st0" cx="28.8" cy="18.3" r="0.6"/>
			<circle class="st0" cx="28.8" cy="21.1" r="0.6"/>
			<circle class="st0" cx="28.8" cy="23.8" r="0.6"/>
			<circle class="st0" cx="28.8" cy="26.6" r="0.6"/>
		</g>
		<g style="clip-path:url(#SVGID_2_);">
			<circle class="st0" cx="31.1" cy="12.8" r="0.6"/>
			<circle class="st0" cx="31.1" cy="15.6" r="0.6"/>
			<circle class="st0" cx="31.1" cy="18.3" r="0.6"/>
			<circle class="st0" cx="31.1" cy="21.1" r="0.6"/>
			<circle class="st0" cx="31.1" cy="23.8" r="0.6"/>
			<circle class="st0" cx="31.1" cy="26.6" r="0.6"/>
		</g>
		<g style="clip-path:url(#SVGID_2_);">
			<circle class="st0" cx="33.5" cy="12.8" r="0.6"/>
			<circle class="st0" cx="33.5" cy="15.6" r="0.6"/>
			<circle class="st0" cx="33.5" cy="18.3" r="0.6"/>
			<circle class="st0" cx="33.5" cy="21.1" r="0.6"/>
			<circle class="st0" cx="33.5" cy="23.8" r="0.6"/>
			<circle class="st0" cx="33.5" cy="26.6" r="0.6"/>
		</g>
	</g>
	<g>
		<g>
			<path class="st0" d="M27.8,53.1c1.2,4.2,8,4.7,8.8,0c0.1-0.8-1.1-1.1-1.2-0.3c-0.6,3.4-5.5,3.1-6.4,0
				C28.8,51.9,27.6,52.3,27.8,53.1L27.8,53.1z"/>
		</g>
	</g>
</g>
</svg>
