<?xml version="1.0" encoding="UTF-8"?>
<svg width="50px" height="39px" viewBox="0 0 50 39" version="1.1" xmlns="http://www.w3.org/2000/svg" xmlns:xlink="http://www.w3.org/1999/xlink">
    <!-- Generator: Sketch 49.1 (51147) - http://www.bohemiancoding.com/sketch -->
    <title>Group 12</title>
    <desc>Created with Sketch.</desc>
    <defs></defs>
    <g id="Page-1" stroke="none" stroke-width="1" fill="none" fill-rule="evenodd">
        <g id="Artboard" transform="translate(-416.000000, -723.000000)" fill-rule="nonzero">
            <g id="147297" transform="translate(416.000000, 708.000000)">
                <g id="Group-12" transform="translate(0.000000, 15.000000)">
                    <path d="M49.1149175,4.46844337 C48.5510051,4.00676293 47.8186448,3.82295881 47.1058409,3.96648954 L33.6111565,6.66884421 C33.3039986,6.72991038 32.9881713,6.70114368 32.6960336,6.58446187 L32.6960336,6.58486561 L17.9026571,0.659226512 C17.3198938,0.42656945 16.6874328,0.36863229 16.0724114,0.49126931 L1.94445956,3.32029843 C0.817441164,3.54578905 0,4.54495272 0,5.69582292 L0,33.0864732 C0,33.8151289 0.322883715,34.4975559 0.885183236,34.9597411 C1.44909566,35.4214215 2.18226246,35.6052256 2.89425987,35.4616949 L16.3889443,32.7593402 C16.6961022,32.6985768 17.0127359,32.726637 17.3040671,32.8433188 L32.0974437,38.7689579 C32.4810131,38.9223804 32.8865582,39 33.2937163,39 C33.5056119,39 33.7174067,38.9791063 33.9276894,38.9369151 L48.0555404,36.1079869 C49.1825588,35.8824963 50,34.8833326 50,33.7324624 L50,6.34171123 C50.0001008,5.61305555 49.6772171,4.93052755 49.1149175,4.46844337 Z" id="Shape" fill="#FFE0B1"></path>
                    <path d="M32.967033,6.66650727 C32.8437431,6.64832264 32.7205529,6.62528877 32.6029396,6.57770564 L32.6029396,6.57810974 L17.9884135,0.647191147 C17.6806868,0.522727426 17.3586195,0.452211454 17.032967,0.428571429 L17.032967,32.7711565 C17.1563565,32.7892401 17.2796463,32.8121729 17.3970604,32.8597561 L32.0115865,38.7906746 C32.3189148,38.9152394 32.6417788,38.9762589 32.967033,39 L32.967033,6.66650727 Z" id="Shape" fill="#FCC78D"></path>
                </g>
            </g>
        </g>
    </g>
</svg>