<?xml version="1.0" encoding="UTF-8"?>
<svg width="34px" height="34px" viewBox="0 0 34 34" version="1.1" xmlns="http://www.w3.org/2000/svg" xmlns:xlink="http://www.w3.org/1999/xlink">
    <!-- Generator: Sketch 49.1 (51147) - http://www.bohemiancoding.com/sketch -->
    <title>cloud copy 3</title>
    <desc>Created with Sketch.</desc>
    <defs></defs>
    <g id="Page-1" stroke="none" stroke-width="1" fill="none" fill-rule="evenodd">
        <g id="2_web" transform="translate(-332.000000, -1412.000000)" fill-rule="nonzero">
            <g id="Group-5-Copy" transform="translate(89.000000, 1412.000000)">
                <g id="partly_Cloudy" transform="translate(243.000000, 7.654605)">
                    <path d="M4.74429018,6.99799721 C4.74360714,6.95823111 4.74277232,6.91854082 4.74277232,6.87869896 C4.74277232,3.0797126 7.8285,0 11.6349062,0 C14.9151473,0 17.6598884,2.28719354 18.3561295,5.35084824 C19.0053928,4.98810582 19.753241,4.78041324 20.550192,4.78041324 C23.0368973,4.78041324 25.0527634,6.79234976 25.0527634,9.27420774 C25.0527634,9.37563015 25.0482098,9.47599219 25.0415312,9.57574825 C26.887625,10.2597248 28.2033036,12.0332164 28.2033036,14.1137021 C28.2033036,16.7864372 26.0323884,18.9531963 23.3543572,18.9531963 L6.06118304,18.9531963 C2.7137009,18.9531963 0,16.2447096 0,12.9038285 C0,10.0142356 2.03005803,7.59819993 4.74429018,6.99799721 Z" id="Shape" fill="#FFFFFF" opacity="0.281403918"></path>
                    <path d="M33.6804511,11.8661988 C33.6804511,14.9384127 31.185094,17.4289056 28.1068797,17.4289056 L27.8321476,17.4289056 C28.4878618,16.4873963 28.8726386,15.3444054 28.8726386,14.1135506 C28.8726386,11.9267948 27.6272368,9.92637146 25.7117011,8.93714283 C25.5363886,6.07247009 23.1457636,3.79557783 20.2329958,3.79557783 C19.69871,3.79557783 19.168219,3.87435255 18.6597368,4.02584241 C18.4571029,3.50926204 18.200585,3.0146477 17.8947368,2.55184626 C19.0498261,1.00362017 20.8978171,0 22.9810761,0 C26.4812547,0 29.3188886,2.83210247 29.3188886,6.32545806 C29.3188886,6.36257312 29.3181297,6.39893063 29.3173708,6.4352882 C31.8134868,6.98739291 33.6804511,9.20899132 33.6804511,11.8661988 Z" id="Shape" fill="#FFFFFF" opacity="0.417947761"></path>
                    <path d="M4.74429018,7.59448844 C4.74360714,7.55472234 4.74277232,7.51503205 4.74277232,7.47519019 C4.74277232,3.67620383 7.8285,0.596491228 11.6349062,0.596491228 C14.9151473,0.596491228 17.6598884,2.88368477 18.3561295,5.94733947 C19.0053928,5.58459705 19.753241,5.37690447 20.550192,5.37690447 C23.0368973,5.37690447 25.0527634,7.38884099 25.0527634,9.87069896 C25.0527634,9.97212138 25.0482098,10.0724834 25.0415312,10.1722395 C26.887625,10.856216 28.2033036,12.6297076 28.2033036,14.7101933 C28.2033036,17.3829284 26.0323884,19.5496876 23.3543572,19.5496876 L6.06118304,19.5496876 C2.7137009,19.5496876 0,16.8412008 0,13.5003197 C0,10.6107268 2.03005803,8.19469115 4.74429018,7.59448844 Z" id="Shape" fill="#C0C0C0"></path>
                    <path d="M33.6804511,12.46269 C33.6804511,15.5349039 31.185094,18.0253968 28.1068797,18.0253968 L27.8321476,18.0253968 C28.4878618,17.0838875 28.8726386,15.9408967 28.8726386,14.7100418 C28.8726386,12.523286 27.6272368,10.5228627 25.7117011,9.53363406 C25.5363886,6.66896132 23.1457636,4.39206906 20.2329958,4.39206906 C19.69871,4.39206906 19.168219,4.47084378 18.6597368,4.62233364 C18.4571029,4.10575327 18.200585,3.61113893 17.8947368,3.14833749 C19.0498261,1.6001114 20.8978171,0.596491228 22.9810761,0.596491228 C26.4812547,0.596491228 29.3188886,3.4285937 29.3188886,6.92194929 C29.3188886,6.95906435 29.3181297,6.99542186 29.3173708,7.03177943 C31.8134868,7.58388414 33.6804511,9.80548255 33.6804511,12.46269 Z" id="Shape" fill="#818181"></path>
                </g>
            </g>
        </g>
    </g>
</svg>