<?xml version="1.0" encoding="UTF-8"?>
<svg width="66px" height="135px" viewBox="0 0 66 135" version="1.1" xmlns="http://www.w3.org/2000/svg" xmlns:xlink="http://www.w3.org/1999/xlink">
    <!-- Generator: Sketch 49.1 (51147) - http://www.bohemiancoding.com/sketch -->
    <title>Group 15</title>
    <desc>Created with Sketch.</desc>
    <defs></defs>
    <g id="Page-1" stroke="none" stroke-width="1" fill="none" fill-rule="evenodd">
        <g id="Artboard" transform="translate(-190.000000, -841.000000)">
            <g id="Page-1" transform="translate(125.000000, 811.000000)">
                <g id="Group-190">
                    <g id="Group-14" transform="translate(0.000000, 9.000000)" fill="#FFC6B2">
                        <path d="M44.7748293,34.2510683 C44.7748293,34.2510683 54.10745,25.5345016 55.720132,23.2403358 C57.3328139,20.9466212 60.7901792,13.2625643 65.0522995,10.0513638 L62.9783335,5.69308046 C62.9783335,5.69308046 64.2461851,5.0051916 65.0522995,6.83971225 C65.0522995,6.83971225 68.0470214,0.876505232 68.7384944,0.990627121 C69.4304206,1.10520008 67.3564545,5.57850749 67.3564545,5.57850749 C67.3564545,5.57850749 70.2374413,1.44937005 71.0435557,1.56439409 C71.8492169,1.67941813 68.9695896,6.20640342 68.9695896,6.20640342 C68.9695896,6.20640342 72.1949535,2.48187995 72.6562376,2.94062288 C73.1170686,3.39936581 70.1214405,6.20640342 70.1214405,6.20640342 C70.1214405,6.20640342 73.3472575,4.36241021 73.6929941,4.97000778 C74.0387306,5.57850749 70.4671771,7.18388221 70.4671771,7.18388221 C70.4671771,7.18388221 70.1214405,9.82176683 67.9328331,10.9688497 C67.9328331,10.9688497 63.5986655,22.62507 59.6813754,26.4095864 L47.0975625,39.4285033 L44.7748293,34.2510683 Z" id="Fill-27"></path>
                    </g>
                    <g id="Group-15" transform="translate(65.000000, 30.000000)">
                        <path d="M16.3356746,39.901281 C15.3854655,37.5538884 15.0202445,34.9403618 13.6024075,32.8397072 C11.5619729,29.8170559 7.64287034,28.3172326 5.98714126,25.0694951 C5.28388687,23.6901087 5.06321362,22.1122496 5.05596357,20.5659656 C5.04236974,17.5054241 5.96267235,14.2522736 8.33706217,12.3076908 C11.0653448,10.0730669 15.1589016,10.104191 18.354359,11.6053675 C21.5489102,13.106544 23.9899098,15.831486 26.0656884,18.6777671 C28.1410138,21.5240482 29.9580564,24.5778237 32.3750402,27.1430853 C34.1671608,29.044816 36.2927834,30.6844724 37.6426512,32.9186452 C41.3433462,39.043788 37.5357131,46.7937018 31.0025161,49.0044187 C25.2618396,50.9462951 18.3217338,44.8089733 16.3356746,39.901281" id="Fill-128" fill="#22343D"></path>
                        <path d="M8.15748761,83.1007012 C8.7257099,83.5657592 8.10583104,83.2436919 8.93233619,83.7795686 C8.74791317,85.8351158 6.83797938,87.1301512 6.83797938,87.1301512 C6.83797938,87.1301512 6.75732262,90.4026978 6.14378755,90.3354877 C5.52889309,90.2691797 5.92266117,87.1847312 5.92266117,87.1847312 C5.92266117,87.1847312 4.66523145,90.4076596 4.13325938,90.2024207 C3.60174044,89.9980839 5.52662745,86.2992716 5.52662745,86.2992716 C5.52662745,86.2992716 2.82870437,89.9958285 2.4580458,89.4134911 C2.08784037,88.8307026 4.46177705,85.2636042 4.46177705,85.2636042 C4.46177705,85.2636042 1.53049314,88.3227926 1.1992567,87.8275126 C0.868473389,87.3335858 4.69740352,83.0790496 4.69740352,83.0790496 C2.92522059,83.0596534 3.050737,81.8588927 3.050737,81.8588927 L7.36723268,82.1137499 C7.36723268,82.1137499 7.89603285,82.8859897 8.15748761,83.1007012" id="Fill-130" fill="#FFC6B2"></path>
                        <path d="M49.3941136,21.3807869 C50.132712,21.5097943 49.5595052,21.2662139 50.5178706,21.5436249 C52.0920367,20.1204843 51.8831447,17.883154 51.8831447,17.883154 C51.8831447,17.883154 54.5230675,15.7757332 54.085346,15.363902 C53.6449057,14.9511687 51.3547977,17.1722603 51.3547977,17.1722603 C51.3547977,17.1722603 53.2180593,14.2249385 52.7173531,13.9597066 C52.2166468,13.6949258 50.3783072,17.4334326 50.3783072,17.4334326 C50.3783072,17.4334326 51.7308938,13.1243163 51.0199362,13.2145312 C50.3098849,13.3051973 48.8598759,17.2922462 48.8598759,17.2922462 C48.8598759,17.2922462 49.5418333,13.2104716 48.9287513,13.2749753 C48.3152162,13.3394789 47.3228663,18.686969 47.3228663,18.686969 C45.8773885,17.5155281 44.8655541,18.2652142 44.8655541,18.2652142 L48.0292926,21.3532714 C48.0292926,21.3532714 49.0547209,21.3221472 49.3941136,21.3807869" id="Fill-132" fill="#FFC6B2"></path>
                        <path d="M31.3234212,39.2533122 C32.6587889,39.0458179 36.7315018,41.6728767 35.6947453,47.0077367 C35.6081979,47.4556538 35.0204911,48.4417031 34.8741308,48.8494745 C34.6892547,49.3664061 36.129748,51.2564089 36.129748,51.2564089 L32.410928,52.4391267 C32.2523332,51.3209126 32.5192255,49.6866691 31.3175305,49.2008617 C30.8680277,49.0190786 30.386806,48.9040546 29.9626783,48.6735554 C28.8176243,48.0510724 28.2063549,46.689278 27.7360082,45.5746725 C27.3848341,44.7415376 27.1174887,43.8457033 27.1274575,42.9417497 C27.1519264,40.665627 29.1769547,39.5871075 31.3234212,39.2533122" id="Fill-134" fill="#FFC6B2"></path>
                        <path d="M38.7703504,53.8641167 C38.7703504,51.9438918 38.1581748,51.2108955 36.1340528,51.2108955 C34.1094776,51.2108955 31.4369297,51.9438918 31.4369297,53.8641167 C31.4369297,55.7847926 32.866548,58.1881184 34.8920294,58.1881184 C36.9161514,58.1881184 38.7703504,55.7847926 38.7703504,53.8641167" id="Fill-136" fill="#FFC6B2"></path>
                        <path d="M37.1715795,50.2803736 C37.1715795,50.2803736 43.4668844,43.8187291 44.7261267,37.4897005 C45.9853689,31.1606719 48.1254916,20.890153 48.1254916,20.890153 L50.5180065,21.5437602 C50.5180065,21.5437602 51.6517324,35.5789482 50.5180065,37.7287701 C49.3847338,39.8781408 42.9630063,54.8060057 43.089429,58.626608 L37.1715795,50.2803736 Z" id="Fill-138" fill="#FFC6B2"></path>
                        <path d="M25.9498236,53.4086215 C25.9498236,53.4086215 23.8092477,53.7667747 20.5353992,61.1711653 C17.2615506,68.5751048 7.18851906,82.3590443 7.18851906,82.3590443 L8.8256699,83.8597697 C8.8256699,83.8597697 18.6467624,76.575816 20.5353992,72.1575397 C22.4235829,67.7392634 24.8160978,62.2460762 25.9498236,62.4842436 C27.0826432,62.7237643 31.867673,56.154764 25.9498236,53.4086215" id="Fill-140" fill="#FFC6B2"></path>
                        <path d="M42.8038225,59.6141909 L45.7351064,51.5602528 C45.7351064,51.5602528 45.2833379,47.7825025 39.4973487,46.4283764 L36.2198752,51.1294765 L42.8038225,59.6141909 Z" id="Fill-142" fill="#FF7B5B"></path>
                        <path d="M26.9270844,52.7908296 C26.9270844,52.7908296 23.4688128,53.0808706 20.6657641,59.209171 C20.6657641,59.209171 23.7483927,63.4461152 26.0036099,63.5891059 C26.0036099,63.5891059 34.3796777,56.4616752 26.9270844,52.7908296" id="Fill-144" fill="#FF7B5B"></path>
                        <path d="M36.4290843,125.471317 C36.4290843,125.471317 31.436975,135.618692 30.8533464,133.739966 C30.270624,131.860338 30.4632033,127.346885 30.7763146,126.702751 C31.0898791,126.058165 33.1307668,123.211884 33.1307668,123.211884 L36.4290843,125.471317 Z" id="Fill-146" fill="#FFC6B2"></path>
                        <path d="M36.8105273,77.2261755 L41.375337,75.4886359 C41.375337,75.4886359 54.9243122,99.3180081 54.8681243,105.929409 C54.8119365,112.54036 36.259977,125.777146 36.259977,125.777146 L33.1306762,123.211884 C33.1306762,123.211884 41.9240748,110.342273 44.9858595,107.002065 C46.5169785,105.331735 35.5558163,97.1465346 33.895556,89.2707711 C32.2352956,81.3950075 36.8105273,77.2261755 36.8105273,77.2261755" id="Fill-148" fill="#B79A6B"></path>
                        <path d="M9.36176543,120.154906 C9.36176543,120.154906 0.0237071819,127.00673 0.412037729,125.083799 C0.80172766,123.159063 3.15255482,119.231105 3.74207413,118.794014 C4.33249969,118.357824 7.52070707,116.714108 7.52070707,116.714108 L9.36176543,120.154906 Z" id="Fill-150" fill="#FFC6B2"></path>
                        <path d="M24.3897498,85.6644292 L37.8965841,77.8725655 C37.8965841,77.8725655 38.4326343,104.940203 35.1900516,110.792896 C31.947922,116.64559 9.06360732,120.353424 9.06360732,120.353424 L7.52070707,116.714153 C7.52070707,116.714153 21.6392639,108.340403 25.9738847,106.701649 C30.3089586,105.061993 24.3897498,85.6644292 24.3897498,85.6644292" id="Fill-152" fill="#D4B583"></path>
                        <path d="M32.4339015,72.5418553 C32.4339015,72.5418553 22.488652,76.0471565 24.3899764,85.6645194 C26.2908476,95.2814311 29.4595705,97.0843766 29.4595705,97.0843766 L35.1630904,87.7683316 L40.8897199,75.5681152 L35.1630904,74.8450426 L32.4339015,72.5418553 Z" id="Fill-154" fill="#D4B583"></path>
                        <path d="M37.1715795,50.2803736 C37.1715795,50.2803736 44.4936721,54.3653057 44.4936721,63.5951954 C44.4936721,63.5951954 43.5629475,74.1183162 42.0558444,76.4183459 C42.0558444,76.4183459 39.6053291,77.0133133 36.5498882,76.4183459 C33.3462744,75.7936075 30.2459738,73.5517664 30.2459738,73.5517664 L27.743802,60.668623 L25.7971648,53.1460509 L26.8524995,52.7991745 L32.359362,52.1974409 C32.359362,52.1974409 31.5682008,60.3862503 37.7171454,56.3193611 C39.0121848,55.4627704 36.1049166,51.1933487 36.1049166,51.1933487 L37.1715795,50.2803736 Z" id="Fill-156" fill="#FF7B5B"></path>
                        <polygon id="Fill-158" fill="#FFFFFF" points="41.6533309 15.4003037 57.0053017 24.3148923 65.6405587 8.07755769 51.2483127 0.117894231"></polygon>
                        <path d="M8.94955505,25.9639761 C8.97855523,25.9382648 9.31749484,26.2445445 9.85354506,26.8692829 C10.3873296,27.4949235 11.1155061,28.44624 11.8464012,29.7299984 C12.5800152,31.008344 13.3063791,32.6304085 13.8243042,34.5131941 C14.3608076,36.3819965 14.720591,38.4826512 15.5452837,40.5061721 C15.9734895,41.5057535 16.4923209,42.4363206 17.1099341,43.2590807 C17.7329848,44.076428 18.4240048,44.7940878 19.1354155,45.4192773 C20.5890495,46.6371789 22.1120122,47.4748245 23.46913,47.9592787 C24.8248885,48.4495969 25.9862551,48.6697213 26.7937289,48.7491104 C27.6002964,48.8375211 28.056143,48.8510533 28.0565961,48.903378 C28.0588618,48.9363064 27.6043745,49.0053208 26.7760569,48.9895332 C25.9481923,48.9832182 24.7433254,48.8257931 23.3241291,48.3729142 C21.9040265,47.9263503 20.2995009,47.0999815 18.76521,45.8554665 C18.0130178,45.2158426 17.2812164,44.4756291 16.6223685,43.6240001 C15.9689582,42.7678604 15.4170485,41.7890284 14.9689051,40.741182 C14.1097747,38.6260929 13.770382,36.5069441 13.270582,34.6629509 C12.7934384,32.8126427 12.1300593,31.2203491 11.4594301,29.9392971 C10.792879,28.6546365 10.1313124,27.6807663 9.66232512,27.0167844 C9.19061905,26.3541557 8.91421108,25.9951003 8.94955505,25.9639761" id="Fill-162" fill="#22343D"></path>
                        <path d="M27.8110008,15.5340023 C27.9238297,15.5168614 28.0334866,17.0211954 28.8790231,19.2463467 C29.3013383,20.3546372 29.9293734,21.6298252 30.8315509,22.9081708 C31.2824131,23.5482458 31.8012445,24.1788481 32.3884981,24.8071951 C32.9716736,25.4382486 33.6069589,26.0792257 34.2073532,26.7982387 C35.4113139,28.2493459 36.2396315,29.8177325 37.0199177,31.2020806 C37.79386,32.599961 38.410567,33.9297291 38.7241314,35.119213 C39.0508366,36.3050882 39.0703211,37.3258702 38.9670079,38.0029333 C38.8582572,38.6831538 38.6883343,39.0277749 38.6602404,39.0183023 C38.6063182,39.004319 38.694225,38.6407528 38.7250377,37.9812817 C38.7517722,37.3231637 38.6674904,36.364179 38.3022694,35.2432585 C37.9483766,34.1178272 37.3126382,32.8494053 36.5192114,31.4812958 C35.7135501,30.1136374 34.8779824,28.5768261 33.727944,27.1942822 C33.1506591,26.5018826 32.5244365,25.8631609 31.9376359,25.2163199 C31.3476635,24.5726363 30.8111602,23.9023394 30.3589386,23.2315913 C29.4504173,21.8887421 28.8441323,20.5504036 28.4644112,19.3933971 C28.0760806,18.2368416 27.910689,17.2611671 27.8322978,16.5881637 C27.754813,15.9142582 27.7756569,15.5371598 27.8110008,15.5340023" id="Fill-164" fill="#22343D"></path>
                        <path d="M32.5175036,45.0520574 C32.511613,45.0087542 32.7617395,44.9695107 32.9978191,44.693002 C33.0521945,44.6294005 33.1070229,44.5364791 33.1061167,44.4823501 C33.1047573,44.4241615 33.0639758,44.3231208 32.993741,44.2649321 C32.9207874,44.1999774 32.8401306,44.1684021 32.7327393,44.1792279 C32.6221762,44.1873473 32.4875972,44.2419273 32.3117836,44.2680896 C31.9266249,44.3190611 31.6262012,44.1025452 31.4286375,43.9270772 C31.2256362,43.7425877 31.0706665,43.5553917 30.9551189,43.3875919 C30.7249299,43.049737 30.6533358,42.8057056 30.6886797,42.7876626 C30.7294612,42.766011 30.8685715,42.9680925 31.1277606,43.2513674 C31.2573551,43.3921027 31.4209343,43.5535874 31.6139667,43.7092081 C31.8042804,43.8603182 32.0376413,43.9978959 32.2696427,43.9613589 C32.3928935,43.9455713 32.536535,43.8882848 32.7114423,43.8765568 C32.8895216,43.8589649 33.0875384,43.9406094 33.1962891,44.0623996 C33.3118367,44.1868962 33.376634,44.3334955 33.3630402,44.5071592 C33.3286024,44.6848826 33.2338987,44.7678804 33.1555076,44.8454652 C32.8170211,45.140468 32.5066286,45.0922031 32.5175036,45.0520574" id="Fill-166" fill="#FF7B5B"></path>
                        <path d="M34.3317821,45.306238 L31.3832794,46.3734806 C31.3832794,46.3734806 33.8849981,48.5526223 34.3317821,45.306238" id="Fill-168" fill="#FFFFFF"></path>
                        <path d="M31.0891088,45.1245451 C31.206922,45.347376 31.0324678,45.6694433 30.6994189,45.8440092 C30.3663699,46.018124 30.0011489,45.9793316 29.8833356,45.7565007 C29.7655224,45.5341209 29.9399766,45.2120536 30.2730256,45.0374877 C30.6060745,44.8629218 30.9712955,44.9021653 31.0891088,45.1245451" id="Fill-170" fill="#FFB2A0"></path>
                        <path d="M34.5844915,43.3402742 C34.6810077,43.5730287 34.4771002,43.8775041 34.1295512,44.0204948 C33.781549,44.1634854 33.4213124,44.0908624 33.3247962,43.8581079 C33.2282799,43.6253534 33.4321875,43.321329 33.7801896,43.1783384 C34.1277387,43.0353477 34.4879753,43.1075197 34.5844915,43.3402742" id="Fill-172" fill="#FFB2A0"></path>
                        <path d="M31.4705518,49.2788976 C31.4705518,49.2788976 32.4570111,49.4787237 33.7144408,49.166129 C33.7144408,49.166129 33.0945619,49.7656072 32.0818212,49.9049893 C32.0818212,49.9049893 31.8548042,49.4872941 31.4705518,49.2788976" id="Fill-174" fill="#FFA192"></path>
                        <path d="M32.4783534,42.6812992 C32.5889166,42.7746717 32.6025104,42.939765 32.5087129,43.0498272 C32.4149155,43.1598894 32.2495238,43.1734217 32.1385075,43.0805003 C32.0279443,42.9871278 32.0143505,42.8220345 32.108148,42.7119723 C32.2019454,42.601459 32.3677902,42.5879268 32.4783534,42.6812992" id="Fill-176" fill="#22343D"></path>
                        <path d="M30.4970067,43.8160226 C30.6075698,43.9093951 30.6211637,44.0744884 30.5273662,44.1845506 C30.4340219,44.2946128 30.2681771,44.3081451 30.1571608,44.2147726 C30.0465976,44.1218512 30.0330038,43.9567579 30.1268012,43.8462446 C30.2205987,43.7361824 30.3864435,43.7226502 30.4970067,43.8160226" id="Fill-178" fill="#22343D"></path>
                        <path d="M32.4900894,41.5895181 C32.463808,41.673418 32.2177596,41.6702605 31.9472423,41.751905 C31.6744593,41.8249791 31.4673799,41.957595 31.400317,41.9003085 C31.3309884,41.8524946 31.4918488,41.558845 31.8616011,41.4541957 C32.2309003,41.3477421 32.5231677,41.5119333 32.4900894,41.5895181" id="Fill-180" fill="#22343D"></path>
                        <path d="M29.0672977,43.6473207 C29.0011411,43.5986046 29.1049073,43.3180362 29.3568464,43.0374678 C29.6115043,42.7505843 29.9377563,42.6549564 29.9717409,42.7347967 C30.0084442,42.8128326 29.8095211,42.9946157 29.5861291,43.2467664 C29.3595652,43.498015 29.1388919,43.7009986 29.0672977,43.6473207" id="Fill-182" fill="#22343D"></path>
                        <path d="M27.9552767,45.8269135 C27.9552767,45.8269135 27.009599,45.0361796 26.5555649,45.751584 C26.1019839,46.4669884 28.5982651,46.8436357 28.5982651,46.8436357 L27.9552767,45.8269135 Z" id="Fill-184" fill="#FFC6B2"></path>
                        <path d="M5.21655207,117.928176 C5.21655207,117.928176 3.86079362,118.515024 3.50735391,118.867313 C3.15346108,119.219151 -0.0886685191,124.793532 0.324130931,125.49766 C0.736930381,126.201787 3.98812254,123.811543 3.98812254,123.811543 C3.98812254,123.811543 1.26754307,124.324414 5.21655207,117.928176" id="Fill-186" fill="#775298"></path>
                        <path d="M31.6723296,125.299548 C31.6723296,125.299548 30.709433,126.335666 30.560807,126.81155 C30.4121811,127.286532 30.1461951,133.722465 30.84084,134.154594 C31.5350319,134.587175 33.4327312,131.035864 33.4327312,131.035864 C33.4327312,131.035864 31.1639202,132.804979 31.6723296,125.314433" id="Fill-188" fill="#775298"></path>
                    </g>
                </g>
            </g>
        </g>
    </g>
</svg>