<?xml version="1.0" encoding="UTF-8"?>
<svg width="74px" height="100px" viewBox="0 0 74 100" version="1.1" xmlns="http://www.w3.org/2000/svg" xmlns:xlink="http://www.w3.org/1999/xlink">
    <!-- Generator: Sketch 49.1 (51147) - http://www.bohemiancoding.com/sketch -->
    <title>Group 14</title>
    <desc>Created with Sketch.</desc>
    <defs></defs>
    <g id="Page-1" stroke="none" stroke-width="1" fill="none" fill-rule="evenodd">
        <g id="Artboard" transform="translate(-125.000000, -821.000000)">
            <g id="Page-1" transform="translate(125.000000, 811.000000)">
                <g id="Group-190">
                    <polygon id="Fill-21" fill="#F3A683" points="58.1464955 65.7742185 58.9485318 77.1106268 41.1460457 72.4938777"></polygon>
                    <g id="Group-14" transform="translate(0.000000, 9.000000)">
                        <path d="M27.749095,25.4077496 C27.749095,25.4077496 26.7925421,26.0667697 27.2710451,27.1655875 C27.749095,28.2644054 29.8461706,31.5238709 32.6791257,31.4138087 C32.7951265,31.409749 29.110291,25.4077496 29.110291,25.4077496 L27.749095,25.4077496 Z" id="Fill-15" fill="#BF8577"></path>
                        <path d="M23.4154258,85.4973898 C23.4154258,85.4973898 19.8728724,82.3466333 18.7386935,82.9109277 C17.3530286,83.6006209 9.42193221,91.3361003 9.73187165,94.9803324 C9.85920056,96.4729385 11.604649,95.1941418 14.7149184,91.9824902 C17.826094,88.7712897 21.7433841,90.1475185 21.7433841,90.1475185 L23.4154258,85.4973898 Z" id="Fill-17" fill="#85BCD6"></path>
                        <path d="M32.0224076,90.8098766 L27.7457871,88.2558918 C27.7457871,88.2558918 16.660468,98.6012892 18.3923225,99.9806755 C19.7059401,101.026718 20.4780699,100.088482 23.5887925,96.8772818 C26.6990619,93.6660813 30.6399146,95.5123299 30.6399146,95.5123299 L32.0224076,90.8098766 Z" id="Fill-19" fill="#6CAFCE"></path>
                        <path d="M41.1460457,63.8836964 C41.1460457,63.8836964 56.7182366,64.8607241 58.7917496,64.1719331 C58.7917496,64.1719331 61.8354092,93.932486 56.4200785,97.1432354 C51.0047479,100.354887 38.8527658,95.6524337 38.8527658,95.6524337 L42.1338644,89.2304837 L49.208096,88.7712897 L49.208096,77.3027165 L48.7005929,77.4172895 L41.1460457,63.8836964 Z" id="Fill-23" fill="#112129"></path>
                        <path d="M21.625888,84.1838153 C21.625888,84.1838153 17.7090511,85.7896411 18.9764496,89.6891816 C18.9764496,89.6891816 32.3468924,100.125696 38.8529017,97.7169573 C42.497862,96.3682441 46.4133395,86.0733671 49.1524972,77.2787644 L58.7918855,64.171888 C58.7918855,64.171888 54.245654,64.3983275 52.7290352,64.3924635 C49.8303765,64.3816377 41.1461817,63.8836513 41.1461817,63.8836513 C41.1461817,63.8836513 36.609919,87.5100399 34.993612,88.0833558 C33.3773051,88.6562206 21.625888,84.1838153 21.625888,84.1838153" id="Fill-25" fill="#22343D"></path>
                        <path d="M44.7748293,34.2510683 C44.7748293,34.2510683 54.10745,25.5345016 55.720132,23.2403358 C57.3328139,20.9466212 60.7901792,13.2625643 65.0522995,10.0513638 L62.9783335,5.69308046 C62.9783335,5.69308046 64.2461851,5.0051916 65.0522995,6.83971225 C65.0522995,6.83971225 68.0470214,0.876505232 68.7384944,0.990627121 C69.4304206,1.10520008 67.3564545,5.57850749 67.3564545,5.57850749 C67.3564545,5.57850749 70.2374413,1.44937005 71.0435557,1.56439409 C71.8492169,1.67941813 68.9695896,6.20640342 68.9695896,6.20640342 C68.9695896,6.20640342 72.1949535,2.48187995 72.6562376,2.94062288 C73.1170686,3.39936581 70.1214405,6.20640342 70.1214405,6.20640342 C70.1214405,6.20640342 73.3472575,4.36241021 73.6929941,4.97000778 C74.0387306,5.57850749 70.4671771,7.18388221 70.4671771,7.18388221 C70.4671771,7.18388221 70.1214405,9.82176683 67.9328331,10.9688497 C67.9328331,10.9688497 63.5986655,22.62507 59.6813754,26.4095864 L47.0975625,39.4285033 L44.7748293,34.2510683 Z" id="Fill-27" fill="#FFC6B2"></path>
                        <path d="M33.6344551,38.7686712 C33.6344551,38.7686712 24.7921187,47.9769094 22.4725574,49.5606325 C20.152996,51.1439046 12.4026977,54.5138833 9.13700543,58.7269207 L4.77836887,56.6217552 C4.77836887,56.6217552 4.07556761,57.8766449 5.91118844,58.6962476 C5.91118844,58.6962476 -0.107255357,61.6223689 0.00149532183,62.3120621 C0.109792872,63.0013042 4.6224929,60.9786854 4.6224929,60.9786854 C4.6224929,60.9786854 0.447826231,63.8078257 0.555670654,64.6111896 C0.663515077,65.4145536 5.23738736,62.5899241 5.23738736,62.5899241 C5.23738736,62.5899241 1.46645759,65.7659408 1.92321043,66.2287434 C2.37905703,66.6924481 5.22696542,63.7370069 5.22696542,63.7370069 C5.22696542,63.7370069 3.34467243,66.9306155 3.95276997,67.2801984 C4.55996126,67.6297812 6.20617465,64.0901984 6.20617465,64.0901984 C6.20617465,64.0901984 8.85878495,63.7712886 10.0319329,61.6025216 C10.0319329,61.6025216 21.1231427,57.2099566 24.9620417,53.3456 L38.7643153,43.6100556 L33.6344551,38.7686712 Z" id="Fill-29" fill="#FFC6B2"></path>
                        <path d="M36.949493,35.098818 L32.4771213,39.4566503 L33.6113003,44.3702066 C33.6113003,44.3702066 38.0175153,54.9005445 38.6836132,57.4694147 C39.7190103,61.4641319 38.0442498,67.554542 38.0442498,67.554542 C38.0442498,67.554542 45.514062,66.9374719 52.3109794,66.7078749 C59.1074437,66.4787289 61.330942,64.2991362 61.330942,64.2991362 C61.330942,64.2991362 55.4380146,44.7608372 51.3698329,39.2996763 C47.3002919,33.8389665 45.8203765,32.1293935 45.8203765,32.1293935 L39.8295735,33.4329993 L36.949493,35.098818 Z" id="Fill-31" fill="#FFFFFF"></path>
                        <path d="M50.0751561,38.6554515 L54.7351227,35.6914399 C54.7351227,35.6914399 55.4469865,32.5158743 49.8272952,28.7706014 L43.2374572,32.8807937 L50.0751561,38.6554515 Z" id="Fill-33" fill="#FFFFFF"></path>
                        <path d="M33.4196272,39.1122548 C30.8648925,39.4690549 26.1963165,45.9144607 25.6756727,45.9022817 C25.6756727,45.9022817 28.9613025,51.2398481 31.5640688,51.4130608 C31.5640688,51.4130608 43.0177808,37.772112 33.4196272,39.1122548" id="Fill-35" fill="#FFFFFF"></path>
                        <path d="M42.4376866,34.9184333 C42.4376866,34.9184333 38.7243041,32.1565031 38.8529924,31.0554299 C38.8856176,30.7780189 39.4003708,30.3278464 39.5340435,29.9281943 C40.2540636,27.7779214 36.7826513,22.2373713 34.6497786,21.069539 C32.9718463,20.151151 33.7072728,20.0699576 30.1760476,22.1588843 C26.6448225,24.2478111 28.65671,27.860468 30.2335948,29.7283682 C31.7243854,31.4943255 33.431771,32.2507777 34.9678744,32.3784318 L37.1519505,37.2076372 L42.4376866,34.9184333 Z" id="Fill-37" fill="#FFC6B2"></path>
                        <path d="M35.7372401,38.7523423 C35.034892,37.0373565 36.3648222,34.8771599 38.7079461,33.9258435 C41.0519764,32.9740759 43.5201637,33.5929504 44.2238712,35.3074852 C44.9257662,37.0215689 42.567689,39.5990095 41.2513526,40.1335329 C39.9350163,40.6680564 36.4391351,40.466426 35.7372401,38.7523423" id="Fill-39" fill="#FFC6B2"></path>
                        <path d="M30.2337761,29.7284584 C30.2337761,29.7284584 29.0293623,29.6621505 28.8956896,30.4614548 C28.7615638,31.260308 31.1033284,31.260308 31.9733338,30.6608298 L30.2337761,29.7284584 Z" id="Fill-41" fill="#FFC6B2"></path>
                        <path d="M30.8360283,30.4612292 C30.6071987,29.0173392 29.0615797,27.9437815 29.1386115,26.5368797 C29.8794755,26.5422926 30.3552597,25.6288664 30.0181326,24.8485072 C29.8853661,24.5417764 29.6606147,24.2787999 29.5169732,23.9765799 C29.3737848,23.6739088 29.3357221,23.2778652 29.5554891,23.107359 C29.6597085,23.0266167 29.8006312,23.0126333 29.9356633,22.9991011 C31.0340452,22.8867835 32.915885,23.2147148 33.9268132,22.841676 C34.8892567,22.4866803 35.9205756,21.7956339 35.8204344,20.6219376 C35.7329807,19.6002535 34.8262719,18.7711783 33.993423,18.1455378 C33.5162794,17.7864823 32.1528178,16.847796 31.6385177,16.932598 C30.8532472,17.0629586 30.6629335,18.1053921 30.6062925,18.9786727 C30.0571016,18.4576814 29.246909,18.5415813 28.7693123,18.9646893 C28.2917155,19.3882484 28.0656048,20.0612518 27.8576191,20.7112504 C27.6491803,21.361249 27.428507,22.0356056 26.9572541,22.4672841 C26.5181732,22.8700937 25.8235283,23.1745691 25.914607,23.8588494 C26.0229045,24.6743924 27.0931924,24.9639823 27.588008,25.6595395 C27.4661166,25.4890332 27.3628035,26.5779275 27.4330383,26.7628681 C27.6441959,27.3190431 28.1711835,27.6871201 28.552264,28.1124835 C29.363816,29.0191435 29.760756,29.9316676 30.8360283,30.4612292" id="Fill-43" fill="#BF8577"></path>
                        <path d="M37.5643875,27.1594078 L34.8202453,28.5721736 C34.8202453,28.5721736 38.1162971,30.9538479 37.5643875,27.1594078" id="Fill-45" fill="#FFFFFF"></path>
                        <path d="M33.7891077,27.7195072 C33.939093,28.0027821 33.7170603,28.4123579 33.2933858,28.6342866 C32.8697113,28.8566664 32.4048021,28.8065971 32.2548168,28.5233223 C32.1052846,28.2400474 32.3268642,27.8309227 32.7505387,27.6085428 C33.1746663,27.3866141 33.6391223,27.4362323 33.7891077,27.7195072" id="Fill-47" fill="#FFB2A0"></path>
                        <path d="M37.7960264,24.9947907 C37.9460117,25.2780656 37.7239791,25.6876414 37.3003046,25.9095701 C36.87663,26.1319499 36.4117209,26.0818807 36.2617356,25.7986058 C36.1122034,25.5153309 36.3337829,25.1062062 36.7579105,24.8838264 C37.1815851,24.6618976 37.6460411,24.7115158 37.7960264,24.9947907" id="Fill-49" fill="#FFB2A0"></path>
                        <path d="M35.6487443,27.0594497 C35.6360567,27.043211 35.6872601,26.9760008 35.8059796,26.8911988 C35.9192616,26.8036903 36.1163722,26.7103179 36.2627325,26.5533439 C36.4077334,26.4008807 36.4598431,26.0837752 36.2378104,26.0395699 C36.0071684,25.9610829 35.7452605,26.2249615 35.4448367,26.4748569 C35.3705238,26.5366541 35.2971171,26.5975492 35.2241635,26.6575421 C35.1561943,26.7193394 35.0130059,26.8104564 34.86438,26.7924135 C34.5811751,26.7468549 34.4606431,26.5583057 34.3518924,26.432907 C34.1343911,26.1545939 34.0002652,25.8636507 33.9259523,25.6124021 C33.7786857,25.1035899 33.8448424,24.7752076 33.8801863,24.777914 C33.9295773,24.7756587 33.9458899,25.0914109 34.1330317,25.538877 C34.2272823,25.7612568 34.368205,26.0134075 34.5734719,26.252026 C34.6736132,26.3733651 34.7995827,26.4861338 34.889302,26.4897424 C34.9269116,26.4910956 34.9563649,26.4789166 35.0270529,26.4198258 C35.0991002,26.3598329 35.1716007,26.2989378 35.2450074,26.2371406 C35.3963521,26.1158015 35.527306,25.9926581 35.7004008,25.8780851 C35.8685112,25.7653165 36.108669,25.6935956 36.3229985,25.7666697 C36.5522811,25.8262115 36.6868601,26.0923456 36.6469849,26.2777373 C36.6211566,26.4662865 36.526906,26.6052175 36.4199678,26.7067093 C36.193857,26.8948074 35.991762,26.940366 35.8644331,26.9967503 C35.7339323,27.0459174 35.6623381,27.0770416 35.6487443,27.0594497" id="Fill-51" fill="#A46A5C"></path>
                        <path d="M34.967965,32.3785221 C34.967965,32.3785221 36.7183978,32.3884457 37.6681537,31.8065594 C37.6681537,31.8065594 36.8647581,32.7885489 35.2570606,33.042955 L34.967965,32.3785221 Z" id="Fill-53" fill="#FFA192"></path>
                        <path d="M35.7270901,24.5641949 C35.7112306,24.6503501 35.4665416,24.6769635 35.2078056,24.7906343 C34.9458977,24.8961858 34.7560371,25.0527087 34.6830835,25.0044437 C34.6083174,24.9647492 34.7320213,24.6535076 35.0863673,24.5055551 C35.4402601,24.3557984 35.7501996,24.4830014 35.7270901,24.5641949" id="Fill-55" fill="#22343D"></path>
                        <path d="M32.2967765,26.8041414 C32.2306198,26.7554253 32.3343861,26.4748569 32.5863251,26.1938374 C32.8414361,25.907405 33.167235,25.8117771 33.2016727,25.8916174 C33.237923,25.9696533 33.039453,26.1514364 32.816061,26.4035871 C32.5890439,26.6548357 32.3683707,26.8573682 32.2967765,26.8041414" id="Fill-57" fill="#22343D"></path>
                        <path d="M30.9670275,26.3711548 C30.8251985,26.2665055 30.7146353,25.8185884 31.2574825,25.2150505 C31.805314,24.5979803 32.4174897,24.7066893 32.4908964,24.8780977 C32.5697407,25.0463486 32.3658331,25.2858692 31.8850645,25.828512 C31.3970459,26.3693505 31.1206379,26.4861789 30.9670275,26.3711548" id="Fill-59" fill="#A46A5C"></path>
                        <path d="M33.8486486,23.9937658 C33.7702575,23.8476176 33.8568049,23.4222542 34.5627781,23.1258982 C35.2787201,22.8196185 35.7558637,23.1574734 35.7490668,23.3329415 C35.7477074,23.5075074 35.4780963,23.6297486 34.849608,23.8994912 C34.2156822,24.1642721 33.9333836,24.1529952 33.8486486,23.9937658" id="Fill-61" fill="#A46A5C"></path>
                    </g>
                </g>
            </g>
        </g>
    </g>
</svg>