<?xml version="1.0" encoding="UTF-8"?>
<svg width="158px" height="143px" viewBox="0 0 158 143" version="1.1" xmlns="http://www.w3.org/2000/svg" xmlns:xlink="http://www.w3.org/1999/xlink">
    <!-- Generator: Sketch 49.1 (51147) - http://www.bohemiancoding.com/sketch -->
    <title>Group 5</title>
    <desc>Created with Sketch.</desc>
    <defs></defs>
    <g id="Page-1" stroke="none" stroke-width="1" fill="none" fill-rule="evenodd">
        <g id="Artboard" transform="translate(-154.000000, -1210.000000)">
            <g id="Group-5" transform="translate(154.000000, 1210.000000)">
                <g id="333820" transform="translate(23.000000, 11.000000)" fill-rule="nonzero">
                    <path d="M46.760156,81.6315789 L130.961363,81.6315789 C133.182613,81.6315789 135,79.783278 135,77.5242436 L135,4.10733536 C135,1.84830091 133.182613,0 130.961363,0 L46.760156,0 C44.5389057,0 42.721519,1.84830091 42.721519,4.10733536 L42.721519,77.5242436 C42.721519,79.783278 44.5389057,81.6315789 46.760156,81.6315789 Z" id="Shape" fill="#FFDFA1"></path>
                    <path d="M4.04204663,132 L103.616181,132 C105.839307,132 107.658228,130.140513 107.658228,127.867807 L107.658228,51.0269295 C107.658228,48.7542236 105.839307,46.8947368 103.616181,46.8947368 L4.04204663,46.8947368 C1.81892098,46.8947368 0,48.7542236 0,51.0269295 L0,127.867463 C0,130.140513 1.81892098,132 4.04204663,132 Z" id="Shape" fill="#FCA48F"></path>
                    <path d="M123.833787,19.1052632 L105.153555,19.1052632 C103.705562,19.1052632 102.531646,17.9388 102.531646,16.5 C102.531646,15.0612 103.705562,13.8947368 105.153555,13.8947368 L123.833787,13.8947368 C125.28178,13.8947368 126.455696,15.0612 126.455696,16.5 C126.455696,17.9388 125.28178,19.1052632 123.833787,19.1052632 Z" id="Shape" fill="#FCC973"></path>
                    <path d="M123.833787,33 L105.153555,33 C103.705562,33 102.531646,31.8335368 102.531646,30.3947368 C102.531646,28.9559368 103.705562,27.7894737 105.153555,27.7894737 L123.833787,27.7894737 C125.28178,27.7894737 126.455696,28.9559368 126.455696,30.3947368 C126.455696,31.8335368 125.28178,33 123.833787,33 Z" id="Shape" fill="#FCC973"></path>
                    <path d="M94.8542661,119.842105 L12.8039618,119.842105 C11.3952415,119.842105 10.2531646,118.675642 10.2531646,117.236842 C10.2531646,115.798042 11.3952415,114.631579 12.8039618,114.631579 L94.8542661,114.631579 C96.2629863,114.631579 97.4050633,115.798042 97.4050633,117.236842 C97.4050633,118.675642 96.2629863,119.842105 94.8542661,119.842105 Z" id="Shape" fill="#FFDFA1"></path>
                    <path d="M91.411938,13.8947368 C93.7291393,13.8947368 97.4050633,33.070261 97.4050633,35.3559888 L97.4050633,94.8441314 C97.4050633,97.1298591 95.5091713,99 93.1919699,99 L89.6561313,99 C87.33893,99 85.443038,97.1298591 85.443038,94.8441314 L85.443038,35.3559888 C85.443038,33.070261 89.0947366,13.8947368 91.411938,13.8947368 Z" id="Shape" fill="#68ADA9"></path>
                    <path d="M93.051093,99 C95.4457767,99 97.4050633,97.1298591 97.4050633,94.8441314 L97.4050633,35.3559888 C97.4050633,33.070261 93.6062242,13.8947368 91.2115406,13.8947368 C90.5040204,13.8947368 89.6760404,15.5685129 88.8607595,17.9861895 C94.3384169,31.1405527 93.051093,43.7075531 93.051093,99 Z" id="Shape" fill="#468072"></path>
                </g>
                <g id="Group-3">
                    <rect id="Rectangle-3" fill="#FFFFFF" x="5.14285714" y="8.58333333" width="72" height="75.5333333"></rect>
                    <path d="M84,92.6348206 L84,0 L10.3386421,0 C4.62833194,0 0,4.64256505 0,10.3651794 L0,103 L73.6613579,103 C79.3716681,103 84,98.359788 84,92.6348206 Z M42,97.8162338 C39.5004191,97.8162338 37.4772842,95.7879058 37.4772842,93.284262 C37.4772842,90.7759121 39.5004191,88.7475841 42,88.7475841 C44.4972339,88.7475841 46.5250629,90.7759121 46.5250629,93.284262 C46.5227158,95.7879058 44.4995809,97.8162338 42,97.8162338 Z M69.617435,81.6225527 L9.69321039,81.6225527 L9.69321039,17.9843511 C9.69321039,15.3842323 11.7961442,13.2782537 14.387259,13.2782537 L74.3091386,13.2782537 L74.3091366,76.9188084 C74.3114837,79.5165741 72.2085499,81.6225527 69.617435,81.6225527 Z" id="Shape" fill="#9D9D9D" fill-rule="nonzero"></path>
                    <ellipse id="Oval-2" fill="#E7E9EA" cx="42" cy="93.5583333" rx="6" ry="6.00833333"></ellipse>
                </g>
                <path d="M16.8870968,26.5 L70.1129032,26.5" id="Line-3" stroke="#D2E2EB" stroke-linecap="round" stroke-linejoin="round"></path>
                <path d="M16.8870968,34.5 L70.1129032,34.5" id="Line-3-Copy" stroke="#D2E2EB" stroke-linecap="round" stroke-linejoin="round"></path>
                <path d="M43.5,48.25 L43.5,40.75" id="Line-4" stroke="#F2C171" stroke-width="2" stroke-linecap="square"></path>
                <path d="M42.5,73.25 L42.5,65.75" id="Line-4-Copy-4" stroke="#F2C171" stroke-width="2" stroke-linecap="square"></path>
                <path d="M50,51 L55,44" id="Line-4-Copy" stroke="#F2C171" stroke-width="2" stroke-linecap="square"></path>
                <path d="M32,72 L37,65" id="Line-4-Copy-7" stroke="#F2C171" stroke-width="2" stroke-linecap="square"></path>
                <path d="M52,62 L60,65" id="Line-4-Copy-2" stroke="#F2C171" stroke-width="2" stroke-linecap="square"></path>
                <path d="M26,51 L34,54" id="Line-4-Copy-9" stroke="#F2C171" stroke-width="2" stroke-linecap="square"></path>
                <path d="M47,63 L54,71" id="Line-4-Copy-5" stroke="#F2C171" stroke-width="2" stroke-linecap="square"></path>
                <path d="M33,44 L40,52" id="Line-4-Copy-8" stroke="#F2C171" stroke-width="2" stroke-linecap="square"></path>
                <path d="M52,57 L60,53" id="Line-4-Copy-3" stroke="#F2C171" stroke-width="2" stroke-linecap="square"></path>
                <path d="M26,64 L34,60" id="Line-4-Copy-6" stroke="#F2C171" stroke-width="2" stroke-linecap="square"></path>
                <circle id="Oval-3" fill="#F2C171" cx="43.5" cy="58.5" r="10.5"></circle>
            </g>
        </g>
    </g>
</svg>