<?xml version="1.0" encoding="UTF-8"?>
<svg width="70px" height="112px" viewBox="0 0 70 112" version="1.1" xmlns="http://www.w3.org/2000/svg" xmlns:xlink="http://www.w3.org/1999/xlink">
    <!-- Generator: Sketch 49.1 (51147) - http://www.bohemiancoding.com/sketch -->
    <title>Group 16</title>
    <desc>Created with Sketch.</desc>
    <defs>
        <polygon id="path-1" points="0.385003795 0.313308857 56.8793236 0.313308857 56.8793236 27.8667335 0.385003795 27.8667335"></polygon>
    </defs>
    <g id="Page-1" stroke="none" stroke-width="1" fill="none" fill-rule="evenodd">
        <g id="Artboard" transform="translate(-256.000000, -811.000000)">
            <g id="Page-1" transform="translate(125.000000, 811.000000)">
                <g id="Group-190">
                    <polygon id="Fill-7" fill="#DAB578" points="180.431286 51.7517056 180.88668 50.8265515 193.555681 60.4628594 188.028881 69.3765458 175.417427 58.7911768"></polygon>
                    <polygon id="Fill-9" fill="#D7D4D4" points="193.025023 60.668775 188.169305 69.0276396 187.858912 68.8900618 192.183111 61.0742911"></polygon>
                    <path d="M180.68173,51.568434 L193.024932,60.6688652 C193.024932,60.6688652 192.973276,60.8641806 192.666508,60.9846175 C192.360194,61.1050544 192.183021,61.0743814 192.183021,61.0743814 L179.205893,52.233318 C179.205893,52.233318 179.954007,52.0601053 180.225431,51.858475 C180.496854,51.6563935 180.68173,51.568434 180.68173,51.568434" id="Fill-11" fill="#F5F3F3"></path>
                    <path d="M178.888703,51.8767886 L192.414569,60.8698641 L188.021948,69.1579099 L187.314162,70.3054439 L173.78739,60.3398514 C173.78739,60.3398514 175.212477,58.2234091 176.06753,56.9455146 C176.923035,55.667169 178.601873,52.6530881 178.693405,52.4600281 C178.784937,52.2674193 178.888703,51.8767886 178.888703,51.8767886" id="Fill-13" fill="#DAB578"></path>
                    <path d="M167.222882,35.9385165 C167.179382,36.0327911 166.337924,35.6850126 164.919633,35.3701625 C164.212754,35.204167 163.355436,35.0760618 162.399336,34.9578802 C161.440971,34.8523288 160.381105,34.7684289 159.262333,34.6890397 C158.142201,34.6110038 157.070553,34.52124 156.096782,34.4012541 C155.124369,34.2726978 154.249379,34.1197835 153.528906,33.9258214 C152.082522,33.5500762 151.263267,33.1053166 151.292267,33.0426172 C151.329424,32.9478915 152.19082,33.240639 153.623157,33.4973005 C154.337739,33.633074 155.200042,33.7381743 156.160219,33.8333511 C157.122663,33.9208596 158.185701,33.9925805 159.306739,34.0710674 C160.428684,34.1509077 161.50169,34.2528505 162.474556,34.3917815 C163.446062,34.5437937 164.318786,34.720615 165.031103,34.9466034 C166.463893,35.3814393 167.254601,35.8794258 167.222882,35.9385165" id="Fill-65" fill="#8D5C5C"></path>
                    <g id="Group-16" transform="translate(131.000000, 0.000000)">
                        <path d="M53.428463,37.2249815 C53.4751351,37.2709911 52.7143335,38.1226201 51.1365424,39.0495785 C49.578689,39.9760858 47.1263612,40.8944738 44.3060936,40.9152233 C41.485826,40.9359727 39.0199043,40.0536707 37.448457,39.1501681 C35.8575252,38.2462145 35.0844892,37.4054113 35.1298019,37.3594017 C35.1955055,37.276404 36.0605265,37.9854934 37.6532708,38.7617928 C39.2310619,39.5412499 41.6086236,40.3148429 44.3011092,40.2954467 C46.9940478,40.2751483 49.3598282,39.4668225 50.9262911,38.6643607 C52.5077072,37.8650564 53.3618532,37.1428859 53.428463,37.2249815" id="Fill-63" fill="#8D5C5C"></path>
                        <g id="Group-69" transform="translate(13.094649, 11.727941)">
                            <mask id="mask-2" fill="white">
                                <use xlink:href="#path-1"></use>
                            </mask>
                            <g id="Clip-68"></g>
                            <path d="M14.2530905,6.26502107 C16.9646074,6.71474251 19.7798906,7.12025863 22.4302352,6.39583272 C27.2161713,5.08816728 30.8493503,0.274749576 35.8124593,0.313541997 C37.8556127,0.329780684 39.7823122,1.19809941 41.7733559,1.65774449 C44.2456213,2.22880501 46.8207468,2.16745885 49.3260905,2.57477927 C51.830528,2.98209969 54.4178879,3.98483866 55.8334592,6.08188476 C57.512751,8.57046366 57.0523731,12.0807267 55.290159,14.5120191 C53.5279448,16.9437626 50.7058647,18.4241896 47.8144561,19.2631885 C45.7980373,19.8482323 43.648852,20.1865383 41.9034036,21.350762 C40.1380176,22.528518 38.9852604,24.4239337 37.3404064,25.7631743 C33.212865,29.1232295 26.7893249,28.1601851 22.5258452,24.9733426 C21.454651,24.172234 20.461848,23.2430202 19.2578873,22.6570742 C14.3632005,20.2717914 7.32295349,23.4293141 3.10705219,19.0895247 C-1.17364638,14.6825253 -0.564189457,7.29437344 6.06733629,5.8942377 C8.75619681,5.3263347 11.5420267,5.81529963 14.2530905,6.26502107 Z" id="Fill-67" fill="#8D5C5C" mask="url(#mask-2)"></path>
                        </g>
                        <path d="M17.8185065,102.978811 C17.8185065,102.978811 22.3035657,112.54836 22.8282877,110.77699 C23.3516503,109.003816 23.1785555,104.747926 22.8976163,104.140329 C22.6153176,103.532731 20.7819624,100.848386 20.7819624,100.848386 L17.8185065,102.978811 Z" id="Fill-70" fill="#FFB2A0"></path>
                        <path d="M50.2494541,25.5955099 C50.664066,26.1246205 50.3872049,25.5562664 50.8570985,26.3199358 C52.8096263,26.2518235 54.1209782,24.6067542 54.1209782,24.6067542 C54.1209782,24.6067542 57.2212788,24.6883988 57.1850286,24.1371855 C57.1496846,23.5850701 54.2134163,23.7912113 54.2134163,23.7912113 C54.2134163,23.7912113 57.3196076,22.8200475 57.1492315,22.3351423 C56.9797617,21.8506881 53.3932549,23.3960699 53.3932549,23.3960699 C53.3932549,23.3960699 57.0123869,21.1600928 56.4776961,20.8014884 C55.9430052,20.4437862 52.4616241,22.3960373 52.4616241,22.3960373 C52.4616241,22.3960373 55.4876118,19.9214417 55.0340308,19.602532 C54.5818092,19.2836222 50.3844862,22.5038442 50.3844862,22.5038442 C50.4456584,20.91967 49.3037763,20.9751521 49.3037763,20.9751521 L49.3513547,24.8431174 C49.3513547,24.8431174 50.0582341,25.3519296 50.2494541,25.5955099" id="Fill-72" fill="#FFC6B2"></path>
                        <path d="M4.30079713,8.08925721 C3.63696487,8.21104737 4.15217121,7.98145037 3.29077521,8.24307367 C1.87656326,6.90067548 2.06415818,4.79099929 2.06415818,4.79099929 C2.06415818,4.79099929 -0.307512862,2.80356434 0.0858020912,2.41518906 C0.481382684,2.02591162 2.53903614,4.12070235 2.53903614,4.12070235 C2.53903614,4.12070235 0.865181953,1.34118029 1.31513788,1.09128493 C1.76464069,0.841389564 3.41674474,4.36698911 3.41674474,4.36698911 C3.41674474,4.36698911 2.20100279,0.303257494 2.83991302,0.388510605 C3.47837013,0.473763716 4.7806595,4.23392209 4.7806595,4.23392209 C4.7806595,4.23392209 4.16803068,0.384450933 4.71903412,0.445346012 C5.27003756,0.505790017 6.26193437,5.68818679 6.26193437,5.68818679 C7.27286255,4.46306801 8.08849264,5.25921479 8.08849264,5.25921479 L5.52696103,8.06354596 C5.52696103,8.06354596 4.60575216,8.03377503 4.30079713,8.08925721" id="Fill-74" fill="#FFC6B2"></path>
                        <path d="M20.3903694,24.2462554 C19.5321453,24.1059712 17.4581792,25.4781403 16.4205165,27.7145684 C15.8400597,28.9663006 15.4399479,30.2378801 16.106952,32.27358 C16.4205165,33.2312115 17.078005,33.3511974 17.2243653,33.7801694 C17.4101477,34.3232633 16.7957063,36.0350916 16.7957063,36.0350916 L19.2444091,37.0193365 C19.403457,35.8433849 19.5838018,34.6602161 20.7877625,34.1495995 C21.2381715,33.9583439 21.7202995,33.8374559 22.1448803,33.5952288 C23.2922,32.9402684 23.9048288,31.5085574 24.3756286,30.3362144 C24.7277089,29.4606785 22.5404609,24.5971915 20.3903694,24.2462554" id="Fill-76" fill="#FFC6B2"></path>
                        <path d="M17.4760324,57.4830602 L13.3743194,55.844306 C13.3743194,55.844306 1.20149343,78.3159434 1.25179061,84.5502463 C1.30254093,90.7850003 17.970848,103.267138 17.970848,103.267138 L20.7820531,100.848476 C20.7820531,100.848476 15.6354272,91.9158445 12.8844882,88.7664412 C10.1335491,85.6161357 17.4760324,57.4830602 17.4760324,57.4830602" id="Fill-78" fill="#FFB2A0"></path>
                        <path d="M37.8415454,83.0808706 C37.8415454,83.0808706 46.8814456,78.8109979 45.0648561,78.4338995 C43.2487198,78.0586053 39.0001933,78.575988 38.4152053,78.9043703 C37.8288578,79.2332038 35.2904358,81.2702569 35.2904358,81.2702569 L37.8415454,83.0808706 Z" id="Fill-80" fill="#FFC6B2"></path>
                        <path d="M21.5046107,57.2881509 L15.2827125,59.5417199 C15.2827125,59.5417199 9.05809556,86.7938466 11.4342979,91.0722897 C13.8100471,95.3525372 20.4828075,92.5197883 29.9871636,87.3563367 L37.9477133,83.0305307 L35.2905717,81.2704374 C35.2905717,81.2704374 26.0272795,83.0769914 23.4258727,84.8790346 C23.4258727,84.8790346 24.7829905,81.0494108 26.5936893,75.6441831 C28.4034819,70.2385044 29.6513959,64.7205081 21.5046107,57.2881509" id="Fill-82" fill="#FFC6B2"></path>
                        <path d="M13.8457082,38.7220532 C13.8457082,36.9109884 14.4311494,35.6015187 16.2504576,35.6015187 C18.0693127,35.6015187 20.5832659,36.2366318 20.5832659,38.0472455 C20.5832659,39.8587613 19.1500226,42.7997681 17.3302612,42.7997681 C15.5118593,42.7997681 13.8457082,40.533569 13.8457082,38.7220532" id="Fill-84" fill="#FFC6B2"></path>
                        <path d="M15.2825313,35.3422861 C15.2825313,35.3422861 9.62658973,29.2491695 8.49512955,23.2800986 C7.36276311,17.3119297 5.44059487,7.62690568 5.44059487,7.62690568 L3.29095646,8.24307367 C3.29095646,8.24307367 2.27232511,21.4789574 3.29095646,23.506087 C4.30868156,25.5327654 9.28402509,39.0280171 10.7983783,42.5721107 L15.2825313,35.3422861 Z" id="Fill-86" fill="#FFC6B2"></path>
                        <path d="M21.3590207,40.091155 C21.3590207,40.091155 21.7935703,38.1961903 28.9457399,35.6201029 C36.0979095,33.0440156 49.59115,24.6950747 49.59115,24.6950747 L50.9373927,26.2282774 C50.9373927,26.2282774 43.6062376,34.6584118 39.3409454,36.1370345 C35.0756532,37.6161083 26.0158154,43.4462483 25.0841846,43.9126595 C23.6745039,44.6185913 23.6917228,45.5067574 21.3590207,40.091155" id="Fill-88" fill="#FFC6B2"></path>
                        <path d="M15.2825313,35.3422861 C15.2825313,35.3422861 9.53551104,37.1962029 9.53551104,45.9005906 C9.53551104,45.9005906 9.53958919,57.8220428 10.8935351,59.9908098 C10.8935351,59.9908098 13.0957364,60.5523978 15.8403316,59.9908098 C18.7190527,59.4017063 21.5044295,57.2879704 21.5044295,57.2879704 L26.0248326,43.7791865 L25.4842512,37.4492558 L19.3380253,36.2678913 C19.3380253,36.2678913 21.1015988,44.4702329 14.7224653,40.9437312 C13.4822544,40.2585488 16.5458516,35.6052626 16.5458516,35.6052626 L15.2825313,35.3422861 Z" id="Fill-90" fill="#9ED1EA"></path>
                        <path d="M10.41979,42.4216322 L7.5881942,36.5490912 C7.5881942,36.5490912 7.99419674,32.9865035 13.1924792,31.7099622 C13.1924792,31.7099622 13.7181074,33.5056905 14.294486,34.191775 C14.8704115,34.8778596 16.5478907,35.6072473 16.5478907,35.6072473 L10.41979,42.4216322 Z" id="Fill-92" fill="#9ED1EA"></path>
                        <path d="M21.1249349,44.7820608 L30.1290379,42.9448337 C30.1290379,42.9448337 31.6945946,39.7164924 27.9825714,35.8755916 C27.9825714,35.8755916 20.9595432,36.2973464 20.0505688,36.3726759 C19.1551882,36.4471032 19.7700827,37.1327367 19.7700827,37.1327367 L21.1249349,44.7820608 Z" id="Fill-94" fill="#9ED1EA"></path>
                        <path d="M10.8795788,57.0870618 C10.8795788,57.0870618 2.36258817,72.7614552 0.956079395,75.5621777 C0.956079395,75.5621777 26.0815643,87.0515004 36.2810185,73.2220024 C36.2810185,73.2220024 30.4787167,60.9978791 21.5095045,56.3441418 L17.640246,55.191195 L11.0309235,57.0117323" id="Fill-96" fill="#85BCD6"></path>
                        <path d="M24.0459328,30.1879912 C24.0459328,30.1879912 25.0160795,29.2222404 25.6128488,29.890733 C26.2096182,30.5592257 23.4496166,31.5249765 23.4496166,31.5249765 L24.0459328,30.1879912 Z" id="Fill-98" fill="#FFC6B2"></path>
                        <path d="M41.7913701,17.0167465 C41.8008857,17.0505771 41.426149,17.2116107 40.7106602,17.3807637 C39.9969839,17.551721 38.937571,17.7068907 37.6225941,17.7335041 C36.3076171,17.7596664 34.7447792,17.6432892 33.0337686,17.4123389 C31.3218516,17.1863505 29.4613088,16.8543596 27.5042497,16.6419034 C25.5503625,16.433958 23.6716945,16.3960677 22.0078092,16.663555 C20.3434706,16.9265315 18.9025242,17.4691743 17.8023298,18.1029342 C16.700776,18.741656 15.9345369,19.4502943 15.4641902,19.986622 C14.9911248,20.5234009 14.7786078,20.8662176 14.7301231,20.8373488 C14.7042948,20.8238166 14.8456707,20.4376967 15.2747828,19.8359631 C15.7007229,19.2360338 16.452462,18.4448488 17.5735002,17.7285423 C18.6936322,17.0171975 20.1826103,16.4059914 21.9126523,16.1001628 C23.64496,15.7898234 25.5825346,15.8137303 27.5704064,16.0257354 C29.5600906,16.2418002 31.4219929,16.5927363 33.1148784,16.8471424 C34.8073109,17.1065103 36.3361642,17.2652886 37.6239534,17.2950595 C40.2054227,17.3667804 41.7678074,16.9107439 41.7913701,17.0167465" id="Fill-100" fill="#8D5C5C"></path>
                        <path d="M19.1057973,29.6399806 C19.1030785,29.6778709 18.8266706,29.7040332 18.4048086,29.5651022 C18.3005892,29.5281141 18.1773384,29.4803002 18.062697,29.376102 C18.0056029,29.3237773 17.9534932,29.2543118 17.9213212,29.1704119 C17.8751021,29.0535836 17.8787271,28.9214187 17.9244931,28.8199269 C17.9380869,28.7996285 17.9376338,28.7513635 17.9639152,28.7504614 L18.0454782,28.748206 C18.0984941,28.7405378 18.1605727,28.7581297 18.2217449,28.7694065 C18.3332144,28.790607 18.3681052,28.7869984 18.4478557,28.7924113 C18.5865128,28.7955689 18.7315137,28.7815855 18.8751552,28.7495592 C19.4637683,28.6259648 19.8584426,28.1996992 20.0351625,27.8487632 C20.2209449,27.4955717 20.2368044,27.2298887 20.2861953,27.2330462 C20.3210861,27.2285355 20.3899616,27.5109082 20.2368044,27.9371738 C20.1588664,28.1455703 20.0233811,28.385542 19.8045204,28.5957428 C19.5870191,28.8054925 19.285689,28.977803 18.9435775,29.0522303 C18.7727483,29.0901206 18.6010129,29.104555 18.4356212,29.0955335 C18.3635739,29.092376 18.250292,29.0779416 18.2167605,29.0707244 C18.1868541,29.0653115 18.1904791,29.0585454 18.1850416,29.0626051 C18.1814165,29.0657626 18.1791509,29.0720776 18.179604,29.080197 C18.1918385,29.1212448 18.2140417,29.1600372 18.2457607,29.1947699 C18.3082923,29.2651376 18.399371,29.3183644 18.4890903,29.3625697 C18.8538582,29.5402931 19.1130473,29.5935199 19.1057973,29.6399806" id="Fill-102" fill="#FF7B5B"></path>
                        <path d="M17.0861613,29.7441789 L20.4026038,31.0450782 C20.4026038,31.0450782 17.4880856,33.0460454 17.0861613,29.7441789" id="Fill-104" fill="#FFFFFF"></path>
                        <path d="M21.8192627,30.3701352 C21.7014494,30.5929661 21.3362284,30.6322096 21.0027263,30.4576437 C20.6701305,30.2830778 20.4952232,29.9610105 20.6134895,29.7386307 C20.7313028,29.5157998 21.0960707,29.4770074 21.4295727,29.6511222 C21.7621686,29.8256881 21.9370759,30.1477554 21.8192627,30.3701352" id="Fill-106" fill="#FFB2A0"></path>
                        <path d="M18.1176614,28.4162602 C18.0170671,28.6472104 17.6554711,28.7139695 17.3106408,28.5651148 C16.9649043,28.4162602 16.7664343,28.1086273 16.8665755,27.877677 C16.9671699,27.6467268 17.3283128,27.5799678 17.6740493,27.7288224 C18.0188796,27.877677 18.2178027,28.18531 18.1176614,28.4162602" id="Fill-108" fill="#FFB2A0"></path>
                        <path d="M16.8888241,33.365316 C16.8888241,33.365316 18.0515501,34.3346755 19.2645733,34.0225318 C19.2645733,34.0225318 18.8463363,34.6468191 17.2363731,34.4176732 C17.2363731,34.4176732 17.3700458,33.7297844 16.8888241,33.365316" id="Fill-110" fill="#FFA192"></path>
                        <path d="M21.5010763,28.2964548 C21.5010763,28.4407986 21.3832631,28.5580781 21.2382622,28.5580781 C21.0937144,28.5580781 20.9759012,28.4407986 20.9759012,28.2964548 C20.9759012,28.1521109 21.0937144,28.0348314 21.2382622,28.0348314 C21.3832631,28.0348314 21.5010763,28.1521109 21.5010763,28.2964548" id="Fill-112" fill="#22343D"></path>
                        <path d="M19.3504863,27.5253426 C19.3504863,27.6696865 19.2326731,27.7869659 19.0876722,27.7869659 C18.9431244,27.7869659 18.8253112,27.6696865 18.8253112,27.5253426 C18.8253112,27.3809987 18.9431244,27.2637193 19.0876722,27.2637193 C19.2326731,27.2637193 19.3504863,27.3809987 19.3504863,27.5253426" id="Fill-114" fill="#22343D"></path>
                        <path d="M22.3453894,27.5995895 C22.2642795,27.6338712 22.1074973,27.4448709 21.8700583,27.2919566 C21.6376037,27.1322762 21.4019772,27.0605553 21.4024304,26.9730468 C21.3942741,26.8891469 21.723698,26.8210346 22.0427,27.034393 C22.3630614,27.246398 22.4264993,27.5743293 22.3453894,27.5995895" id="Fill-116" fill="#775298"></path>
                        <path d="M18.5552923,26.3302654 C18.5498548,26.2486209 18.8321534,26.1457759 19.210062,26.1561506 C19.5947675,26.1638189 19.8788787,26.3496616 19.8399097,26.4272465 C19.8032063,26.5057335 19.5354078,26.4723539 19.1978276,26.4655878 C18.8584348,26.4556642 18.5607298,26.4191271 18.5552923,26.3302654" id="Fill-118" fill="#775298"></path>
                        <path d="M19.7399044,106.867571 C19.7399044,106.867571 21.1196786,111.742335 22.5438594,111.343134 C23.9689464,110.944384 22.8977522,104.140374 22.8977522,104.140374 L21.4758371,101.903946 C21.4758371,101.903946 22.8112048,113.29313 19.7399044,106.867571" id="Fill-120" fill="#22343D"></path>
                        <path d="M37.1379738,79.8392226 C37.1379738,79.8392226 38.141652,78.7494262 39.3573939,78.5680942 C40.5740422,78.3863111 44.9222568,77.8716349 45.5607139,78.4467551 C46.199171,79.0218753 42.0367388,80.9502195 42.0367388,80.9502195 C42.0367388,80.9502195 43.487201,80.0304782 42.8849941,79.6881126 C41.8205968,79.0823193 37.1379738,79.8392226 37.1379738,79.8392226" id="Fill-122" fill="#22343D"></path>
                        <polygon id="Fill-124" fill="#22343D" points="35.4130975 81.1444522 36.7742935 83.8955566 37.51697 83.4850786 35.7017399 80.7750221"></polygon>
                        <polygon id="Fill-126" fill="#22343D" points="20.192126 99.7460044 16.8507614 102.743396 17.8408457 103.564802 20.6457069 100.525912"></polygon>
                    </g>
                </g>
            </g>
        </g>
    </g>
</svg>