<?xml version="1.0" encoding="UTF-8"?>
<svg width="220px" height="177px" viewBox="0 0 220 177" version="1.1" xmlns="http://www.w3.org/2000/svg" xmlns:xlink="http://www.w3.org/1999/xlink">
    <!-- Generator: Sketch 49.1 (51147) - http://www.bohemiancoding.com/sketch -->
    <title>Group 4</title>
    <desc>Created with Sketch.</desc>
    <defs>
        <polygon id="path-1" points="0.164216702 0.219540773 164.403312 0.219540773 164.403312 176.999924 0.164216702 176.999924"></polygon>
    </defs>
    <g id="Page-1" stroke="none" stroke-width="1" fill="none" fill-rule="evenodd">
        <g id="Artboard" transform="translate(-120.000000, -1754.000000)">
            <g id="Group-4" transform="translate(120.000000, 1754.000000)">
                <g id="Page-1">
                    <path d="M46.3751516,133.303125 C46.3751516,138.496211 35.9936013,142.70625 23.1875758,142.70625 C10.3807865,142.70625 0,138.496211 0,133.303125 C0,128.110039 10.3807865,123.9 23.1875758,123.9 C35.9936013,123.9 46.3751516,128.110039 46.3751516,133.303125" id="Fill-1" fill="#DAB578"></path>
                    <path d="M35.5212818,102.88125 L16.5625542,109.20743 L16.5625542,132.911964 C16.5625542,137.710244 22.9893453,141.6 30.9171507,141.6 C38.8441902,141.6 45.2709813,137.710244 45.2709813,132.911964 L45.2709813,109.20743 L35.5212818,102.88125 Z" id="Fill-3" fill="#FFFEFA"></path>
                    <path d="M45.2709813,109.51875 C45.2709813,114.407255 38.8441902,118.36875 30.9163848,118.36875 C22.9885795,118.36875 16.5625542,114.407255 16.5625542,109.51875 C16.5625542,104.63102 22.9885795,100.66875 30.9163848,100.66875 C38.8441902,100.66875 45.2709813,104.63102 45.2709813,109.51875" id="Fill-5" fill="#D3BAE7"></path>
                    <path d="M19.0315837,113.124164 C21.4902534,115.607318 25.8929183,117.2625 30.9167677,117.2625 C35.9406172,117.2625 40.3425373,115.607318 42.8019518,113.124164 C42.9717721,112.620215 43.0626408,112.096442 43.0626408,111.561234 C43.0626408,107.378678 37.6246682,103.9875 30.9167677,103.9875 C24.2088673,103.9875 18.7708947,107.378678 18.7708947,111.561234 C18.7708947,112.096442 18.8617634,112.620215 19.0315837,113.124164" id="Fill-7" fill="#752939"></path>
                    <path d="M30.9167677,100.66875 C22.9891739,100.66875 16.5625542,104.63102 16.5625542,109.51875 C16.5625542,114.407255 22.9891739,118.36875 30.9167677,118.36875 C38.8443616,118.36875 45.2709813,114.407255 45.2709813,109.51875 C45.2709813,104.63102 38.8443616,100.66875 30.9167677,100.66875 M30.9167677,101.686446 C38.1520756,101.686446 44.2654819,105.272796 44.2654819,109.51875 C44.2654819,113.764704 38.1520756,117.351054 30.9167677,117.351054 C23.6814599,117.351054 17.5680536,113.764704 17.5680536,109.51875 C17.5680536,105.272796 23.6814599,101.686446 30.9167677,101.686446" id="Fill-9" fill="#BCBACE"></path>
                    <path d="M43.0626408,68.5875 C41.8812295,71.1344028 41.8646536,74.0571532 41.8714347,76.8714273 C41.8782157,80.034048 41.8857502,83.1966687 41.8925313,86.3592894 C41.9008193,89.960399 41.9015727,93.6165108 40.934895,97.081643 C39.9674638,100.546775 37.8871855,103.857596 34.7053616,105.459532 C33.129142,106.252479 31.1483192,106.560338 29.657993,105.612316 C28.9979698,105.191397 28.4924042,104.561928 28.0727319,103.895792 C24.4870583,98.1977273 27.8037499,90.5409767 30.381306,85.0705596 C33.3672325,78.7346234 37.7056037,73.0457257 43.0626408,68.5875" id="Fill-11" fill="#1A685A"></path>
                    <path d="M16.4518935,94.3129016 C15.550774,82.6170919 16.1589338,70.7012058 13.2500433,59.3275698 C21.1752936,68.8339602 25.0374535,81.5318357 23.7275708,93.7698954 C26.3542384,85.6860603 29.0077477,77.4358444 28.9601993,68.9466453 C28.9364251,64.8892241 31.4679958,55.3125 31.4679958,55.3125 C31.4679958,55.3125 32.9581023,64.4747848 34.3285709,68.9284947 C35.2626676,71.9679683 35.4528613,75.1738226 35.6361528,78.3448883 C35.9038045,82.9710291 36.1722231,87.5979262 36.4398747,92.224067 C40.341914,80.5917845 50.7918327,64.560244 50.7918327,64.560244 C50.7918327,64.560244 46.945011,95.1258984 44.9057967,102.118427 C42.5912617,110.051763 35.062504,115.445524 26.4378316,113.56996 C18.59234,111.863044 16.9473175,100.739736 16.4518935,94.3129016" id="Fill-13" fill="#409682"></path>
                    <path d="M21.7155886,106.500005 C20.0440955,101.975638 21.5976468,97.0033749 22.6403774,92.2996954 C23.8838433,86.6932972 24.3766995,80.8267807 23.1090203,75.225 C27.3127475,83.9697498 31.0119025,92.9492218 34.1846152,102.106467 C35.0047404,104.473698 35.7928416,107.048717 35.0133322,109.429801 C34.2783438,111.673899 30.1605345,115.63955 27.4291272,114.976171 C25.2811804,114.453626 22.4482338,108.484755 21.7155886,106.500005" id="Fill-15" fill="#45B3AE"></path>
                    <g id="Group-19" transform="translate(55.208514, 0.000000)">
                        <mask id="mask-2" fill="white">
                            <use xlink:href="#path-1"></use>
                        </mask>
                        <g id="Clip-18"></g>
                        <path d="M4.0312306,48.4641193 L86.6971263,1.23474592 C88.1823886,0.385449785 90.110183,-0.0186875536 91.7782469,0.364939056 C94.1203915,0.903535622 96.3178181,1.63812361 96.3124864,3.68387897 L96.4374008,80.3172824 L89.1649468,84.6025056 C91.5444133,85.7579433 164.109001,120.983222 164.228584,121.069823 L164.403769,124.026407 C164.403769,125.30187 163.727403,126.477819 162.620692,127.11745 C150.268641,134.252905 77.9119897,175.970969 77.9119897,175.970969 C75.5309999,177.342909 72.5970354,177.342909 70.2168072,175.970969 L1.44458904,136.325248 C0.72709306,135.911995 0.284561038,135.14854 0.283799365,134.322033 L0.164216702,55.0989605 C0.171071759,52.3573597 1.64567072,49.8269433 4.0312306,48.4641193" id="Fill-17" fill="#DAB578" mask="url(#mask-2)"></path>
                    </g>
                    <path d="M58.5210247,134.9625 L152.182535,81.5366986 L152.375487,5.09380821 C152.381564,2.88535847 149.994732,1.49862215 148.078125,2.5967715 L61.7070125,52.0598182 C59.8268695,53.1367033 58.6645992,55.1355477 58.6592816,57.3022283 L58.5210247,134.9625 Z" id="Fill-20" fill="#9B7C49"></path>
                    <polygon id="Fill-22" fill="#E0D2BC" points="147.958817 6.6375 62.0132312 56.0523112 61.8335355 128.325 147.958817 78.8034119"></polygon>
                    <path d="M58.5210247,134.846443 L152.109718,80.75625 L218.296208,119.092875 C220.207777,120.200298 220.207777,122.966192 218.296208,124.072854 L132.134308,173.972345 C130.258433,175.059218 127.946626,175.059218 126.070751,173.972345 L58.5210247,134.846443 Z" id="Fill-24" fill="#FFFEFA"></path>
                    <g id="Group" transform="translate(75.083579, 90.712500)">
                        <path d="M9.93753249,45.9030805 C7.9603348,47.011691 6.97213865,47.5663896 4.99574634,48.675 C2.99760888,47.5711104 1.99894283,47.019559 0,45.9164563 C1.97639231,44.807059 2.96458847,44.2523604 4.94178615,43.14375 C6.93992361,44.2476396 7.93939503,44.7999778 9.93753249,45.9030805" id="Fill-26" fill="#A89A88"></path>
                        <path d="M16.5625542,41.4780805 C14.5860017,42.586691 13.5977254,43.1413896 11.6211729,44.25 C9.62206805,43.1461104 8.62332107,42.594559 6.62502166,41.4914563 C8.60157416,40.382059 9.58985041,39.8273604 11.5664029,38.71875 C13.5647023,39.8226396 14.5642547,40.374191 16.5625542,41.4780805" id="Fill-28" fill="#A89A88"></path>
                        <path d="M23.1875758,38.1589362 C21.2111835,39.2677043 20.2229873,39.8224819 18.2457897,40.93125 C16.2476522,39.8279903 15.2489862,39.2763604 13.2500433,38.1731007 C15.227241,37.0635457 16.2154372,36.5087681 18.1918295,35.4 C20.1899669,36.5032597 21.1894384,37.0556765 23.1875758,38.1589362" id="Fill-30" fill="#A89A88"></path>
                        <path d="M29.8125975,33.7343305 C27.8353998,34.842941 26.8472036,35.3976396 24.8708113,36.50625 C22.8718685,35.4031472 21.8732024,34.850809 19.875065,33.7477063 C21.8514573,32.638309 22.8396534,32.0836104 24.8168511,30.975 C26.8149886,32.0788896 27.81446,32.630441 29.8125975,33.7343305" id="Fill-32" fill="#A89A88"></path>
                        <path d="M37.5417894,30.4155805 C35.5653971,31.524191 34.5763956,32.0788896 32.6000033,33.1875 C30.6018658,32.0843972 29.6023944,31.5328458 27.6042569,30.4297431 C29.5814546,29.319559 30.5696508,28.7656472 32.5460431,27.65625 C34.5441805,28.7601396 35.5436519,29.3124778 37.5417894,30.4155805" id="Fill-34" fill="#A89A88"></path>
                        <path d="M44.1668111,25.9901862 C42.1896134,27.0997413 41.2014172,27.6537319 39.2250249,28.7625 C37.2268875,27.6592403 36.227416,27.1076104 34.2292786,26.0043507 C36.2056709,24.8947957 37.1946724,24.3400181 39.1710647,23.23125 C41.1692022,24.3345097 42.1686736,24.8869265 44.1668111,25.9901862" id="Fill-36" fill="#A89A88"></path>
                        <path d="M50.7918327,22.6718305 C48.814635,23.780441 47.8264389,24.3351396 45.8500466,25.44375 C43.8519091,24.3398604 42.8524377,23.788309 40.8543002,22.6852063 C42.8306925,21.575809 43.8188887,21.0211104 45.7960864,19.9125 C47.7942239,21.0163896 48.7936953,21.567941 50.7918327,22.6718305" id="Fill-38" fill="#A89A88"></path>
                        <path d="M57.4168544,18.2468305 C55.4396567,19.355441 54.4514605,19.9101396 52.4750682,21.01875 C50.4769308,19.9156472 49.4774594,19.3640958 47.4793219,18.2602063 C49.4557142,17.150809 50.4439104,16.5968972 52.4211081,15.4875 C54.4192455,16.5913896 55.4187169,17.1437278 57.4168544,18.2468305" id="Fill-40" fill="#A89A88"></path>
                        <path d="M65.1460463,13.8214362 C63.169654,14.9309913 62.1806525,15.4849819 60.2042602,16.59375 C58.2061227,15.4904903 57.2066513,14.9388604 55.2085138,13.8356007 C57.1849061,12.7260457 58.1739077,12.1712681 60.1503,11.0625 C62.1484374,12.1657597 63.1479089,12.7181765 65.1460463,13.8214362" id="Fill-42" fill="#A89A88"></path>
                        <path d="M71.771068,10.5026862 C69.7946757,11.6114543 68.8064795,12.1662319 66.8292818,13.275 C64.8311444,12.1717403 63.8324783,11.6193235 61.8335355,10.5160638 C63.8107332,9.40650875 64.7989293,8.85173122 66.7753216,7.74375 C68.7734591,8.84700971 69.7729305,9.39942648 71.771068,10.5026862" id="Fill-44" fill="#A89A88"></path>
                        <path d="M78.3960896,6.07768619 C76.4195371,7.18645433 75.4312609,7.74123186 73.4547084,8.85 C71.4556035,7.74674029 70.4568566,7.19432352 68.4585572,6.09106381 C70.4351097,4.98150875 71.4233859,4.42751814 73.3999384,3.31875 C75.3982378,4.42200971 76.3985957,4.97442648 78.3960896,6.07768619" id="Fill-46" fill="#A89A88"></path>
                        <path d="M85.0211113,2.75893619 C83.044719,3.86770433 82.0557175,4.42248186 80.0793251,5.53125 C78.0811877,4.42799029 77.0825216,3.87557352 75.0835788,2.77231381 C77.0599711,1.66275875 78.0489727,1.10876814 80.025365,0 C82.0226971,1.10325971 83.0229738,1.65567648 85.0211113,2.75893619" id="Fill-48" fill="#A89A88"></path>
                        <path d="M16.5625542,49.2218305 C14.5853565,50.330441 13.5979657,50.8851396 11.6215734,51.99375 C9.62263054,50.8898604 8.62315912,50.338309 6.62502166,49.2352063 C8.60141397,48.125809 9.58961013,47.5711104 11.5660024,46.4625 C13.5641399,47.5663896 14.5644167,48.1187278 16.5625542,49.2218305" id="Fill-50" fill="#A89A88"></path>
                        <path d="M23.1875758,45.9030805 C21.2111835,47.011691 20.222182,47.5656028 18.2457897,48.675 C16.2476522,47.5711104 15.2481808,47.019559 13.2500433,45.9156695 C15.2264356,44.8062722 16.2146318,44.2523604 18.1910241,43.14375 C20.1891616,44.2476396 21.1894384,44.799191 23.1875758,45.9030805" id="Fill-52" fill="#A89A88"></path>
                        <path d="M29.8125975,41.4780805 C27.8353998,42.5874778 26.8472036,43.1413896 24.8708113,44.25 C22.8726739,43.1468972 21.8732024,42.5953458 19.875065,41.4914563 C21.8514573,40.382059 22.8396534,39.8273604 24.8160458,38.71875 C26.8149886,39.8226396 27.81446,40.3749778 29.8125975,41.4780805" id="Fill-54" fill="#A89A88"></path>
                        <path d="M37.5417894,38.1593305 C35.5655573,39.267941 34.5766359,39.8226396 32.6004037,40.93125 C30.6016229,39.8273604 29.6030378,39.275809 27.6042569,38.1727063 C29.5812944,37.063309 30.5694105,36.5086104 32.5456426,35.4 C34.5444234,36.5038896 35.5438139,37.055441 37.5417894,38.1593305" id="Fill-56" fill="#A89A88"></path>
                        <path d="M44.1668111,33.7343305 C42.1897736,34.842941 41.2016575,35.3976396 39.2254254,36.50625 C37.2266445,35.4031472 36.2280594,34.8515958 34.2292786,33.7477063 C36.206316,32.638309 37.1944321,32.0836104 39.1706643,30.975 C41.1694451,32.0788896 42.1688355,32.6312278 44.1668111,33.7343305" id="Fill-58" fill="#A89A88"></path>
                        <path d="M50.7918327,29.3093305 C48.8147953,30.4187278 47.8266792,30.9726396 45.850447,32.08125 L40.8543002,29.3234931 C42.8313377,28.213309 43.8194538,27.6593972 45.7956859,26.55 C47.7944668,27.6538896 48.7938572,28.2062278 50.7918327,29.3093305" id="Fill-60" fill="#A89A88"></path>
                        <path d="M57.4168544,25.9905805 C55.4406222,27.099191 54.4517009,27.6538896 52.4754687,28.7625 C50.4774932,27.6586104 49.4781027,27.107059 47.4793219,26.0039563 C49.4563594,24.8937722 50.4444754,24.3398604 52.4207076,23.23125 C54.4194884,24.3351396 55.4188789,24.886691 57.4168544,25.9905805" id="Fill-62" fill="#A89A88"></path>
                        <path d="M64.041876,21.5655805 C62.0654837,22.674191 61.0764822,23.2288896 59.1000899,24.3375 C57.1011471,23.2343972 56.102481,22.682059 54.1043436,21.5789563 C56.0807359,20.469559 57.068932,19.9148604 59.0453243,18.80625 C61.0442672,19.9101396 62.0437386,20.4624778 64.041876,21.5655805" id="Fill-64" fill="#A89A88"></path>
                        <path d="M71.771068,18.2468305 C69.7940305,19.3562278 68.8059144,19.9101396 66.8296823,21.01875 C64.8309015,19.9156472 63.8323163,19.3640958 61.8335355,18.2602063 C63.810573,17.150809 64.798689,16.5968972 66.7749212,15.4875 C68.773702,16.5913896 69.7730924,17.1437278 71.771068,18.2468305" id="Fill-66" fill="#A89A88"></path>
                        <path d="M78.3960896,13.8218305 C76.4196973,14.930441 75.4315012,15.4851396 73.4551089,16.59375 C71.456166,15.4898604 70.4566946,14.938309 68.4585572,13.8352063 C70.4349495,12.725809 71.4231456,12.1711104 73.3995379,11.0625 C75.3984808,12.1663896 76.3979522,12.717941 78.3960896,13.8218305" id="Fill-68" fill="#A89A88"></path>
                        <path d="M85.0211113,10.5030805 C83.044719,11.611691 82.0557175,12.1656028 80.0793251,13.275 C78.0811877,12.1711104 77.0825216,11.619559 75.0835788,10.5156695 C77.0599711,9.40627223 78.0481673,8.85236042 80.0245596,7.74375 C82.0226971,8.84763958 83.0229738,9.39919097 85.0211113,10.5030805" id="Fill-70" fill="#A89A88"></path>
                        <path d="M91.646133,5.79115706 C88.6159255,7.45705324 87.1000852,8.28964883 84.0698776,9.95625 C82.2417359,8.96644118 81.3276651,8.47224177 79.5002599,7.48313794 C82.531204,5.81724177 84.0463077,4.98464618 87.0772518,3.31875 C88.9046569,4.30785382 89.8187278,4.80205324 91.646133,5.79115706" id="Fill-72" fill="#A89A88"></path>
                        <path d="M25.3959164,51.1622008 C22.3759335,52.8224623 20.8659421,53.6522385 17.8467002,55.3125 C16.0077411,54.3167686 15.0882615,53.8196121 13.2500433,52.8252992 C16.2700261,51.1650377 17.7792766,50.3352615 20.7992595,48.675 C22.6374777,49.6700222 23.5569572,50.1678879 25.3959164,51.1622008" id="Fill-74" fill="#A89A88"></path>
                        <path d="M29.8125975,49.2218305 C27.8362052,50.330441 26.848009,50.8851396 24.8716167,51.99375 C22.8726739,50.8898604 21.8740078,50.338309 19.875065,49.2352063 C21.8514573,48.1250222 22.8396534,47.5711104 24.8160458,46.4625 C26.8149886,47.5663896 27.81446,48.117941 29.8125975,49.2218305" id="Fill-76" fill="#A89A88"></path>
                        <path d="M36.4376191,45.9030805 C34.4605817,47.0124778 33.4724656,47.5663896 31.4962334,48.675 C29.4974526,47.5718972 28.4988675,47.0203458 26.5000866,45.9164563 C28.4763188,44.807059 29.4652402,44.2523604 31.4414723,43.14375 C33.4394479,44.2476396 34.4388383,44.7999778 36.4376191,45.9030805" id="Fill-78" fill="#A89A88"></path>
                        <path d="M44.1668111,41.4780805 C42.1897736,42.586691 41.2016575,43.1413896 39.2254254,44.25 C37.2266445,43.1461104 36.2280594,42.594559 34.2292786,41.4914563 C36.206316,40.382059 37.1944321,39.8273604 39.1706643,38.71875 C41.1694451,39.8226396 42.1688355,40.374191 44.1668111,41.4780805" id="Fill-80" fill="#A89A88"></path>
                        <path d="M50.7918327,37.0530805 C48.8147953,38.1624778 47.8266792,38.7163896 45.850447,39.825 C43.8516662,38.7218972 42.8530811,38.1703458 40.8543002,37.0664563 C42.8305324,35.957059 43.8186485,35.4023604 45.7956859,34.29375 C47.7936615,35.3976396 48.7930519,35.9499778 50.7918327,37.0530805" id="Fill-82" fill="#A89A88"></path>
                        <path d="M57.4168544,33.7339381 C55.4398169,34.8431775 54.4517009,35.3970106 52.4754687,36.50625 C50.4766879,35.4025174 49.4781027,34.8510445 47.4793219,33.7473119 C49.455554,32.6380725 50.4436701,32.0842394 52.4207076,30.975 C54.4194884,32.0787326 55.4180735,32.6309922 57.4168544,33.7339381" id="Fill-84" fill="#A89A88"></path>
                        <path d="M64.041876,29.3093305 C62.0648386,30.417941 61.0767225,30.9726396 59.1004904,32.08125 C57.1017095,30.9781472 56.1031244,30.425809 54.1043436,29.3227063 C56.081381,28.213309 57.0694971,27.6586104 59.0457292,26.55 C61.0445101,27.6538896 62.0439005,28.205441 64.041876,29.3093305" id="Fill-86" fill="#A89A88"></path>
                        <path d="M70.6668977,25.9905805 C68.6898602,27.099191 67.7017442,27.6538896 65.725512,28.7625 C63.7267312,27.6593972 62.7281461,27.1078458 60.7293652,26.0039563 C62.7064027,24.894559 63.6945188,24.3398604 65.6707509,23.23125 C67.6695317,24.3351396 68.6689222,24.8874778 70.6668977,25.9905805" id="Fill-88" fill="#A89A88"></path>
                        <path d="M78.3960896,21.5651881 C76.4196973,22.6744275 75.4315012,23.2282606 73.4543035,24.3375 C71.456166,23.2337674 70.4566946,22.6822945 68.4585572,21.5785619 C70.4349495,20.4693225 71.4231456,19.9154894 73.3995379,18.80625 C75.3984808,19.9099826 76.3979522,20.4622422 78.3960896,21.5651881" id="Fill-90" fill="#A89A88"></path>
                        <path d="M85.0211113,18.2468305 C83.044719,19.355441 82.0557175,19.9101396 80.0793251,21.01875 C78.0811877,19.9156472 77.0825216,19.363309 75.0835788,18.2602063 C77.0599711,17.150809 78.0481673,16.5961104 80.025365,15.4875 C82.0235024,16.5913896 83.0229738,17.1437278 85.0211113,18.2468305" id="Fill-92" fill="#A89A88"></path>
                        <path d="M91.646133,13.8218305 C89.6699008,14.930441 88.6809794,15.4843528 86.7047473,16.59375 C84.7067717,15.4898604 83.7081866,14.938309 81.7086005,13.8344195 C83.6856379,12.7250222 84.673754,12.1711104 86.6499862,11.0625 C88.6479617,12.1663896 89.6481574,12.717941 91.646133,13.8218305" id="Fill-94" fill="#A89A88"></path>
                        <path d="M98.2711546,9.39722311 C96.2947623,10.5059913 95.3065662,11.0599819 93.3301738,12.16875 C91.3320364,11.0654903 90.332565,10.5138604 88.3336221,9.40981381 C90.3100144,8.30025875 91.299016,7.74626814 93.2754083,6.6375 C95.2735457,7.74154663 96.2730172,8.29317648 98.2711546,9.39722311" id="Fill-96" fill="#A89A88"></path>
                        <path d="M29.8125975,56.9655805 C27.8362052,58.074191 26.848009,58.6288896 24.8716167,59.7375 C22.8726739,58.6336104 21.8740078,58.082059 19.875065,56.9789563 C21.8514573,55.869559 22.8396534,55.3148604 24.8160458,54.20625 C26.8149886,55.3101396 27.81446,55.8624778 29.8125975,56.9655805" id="Fill-98" fill="#A89A88"></path>
                        <path d="M36.4376191,53.6468305 C34.4612268,54.755441 33.4730307,55.3101396 31.4966384,56.41875 C29.4976955,55.3148604 28.4990295,54.763309 26.5000866,53.6602063 C28.476479,52.550809 29.4646751,51.9961104 31.4410674,50.8875 C33.4400103,51.9913896 34.4394817,52.542941 36.4376191,53.6468305" id="Fill-100" fill="#A89A88"></path>
                        <path d="M43.0626408,49.2226174 C41.0862485,50.3312278 40.0980523,50.8851396 38.1208546,51.99375 C36.1227172,50.8906472 35.1232458,50.3390958 33.1251083,49.2352063 C35.1015006,48.125809 36.0896968,47.5718972 38.0660891,46.4625 C40.0650319,47.5671764 41.0645033,48.1187278 43.0626408,49.2226174" id="Fill-102" fill="#A89A88"></path>
                        <path d="M50.7918327,44.7968305 C48.8147953,45.905441 47.8266792,46.4601396 45.850447,47.56875 C43.8516662,46.4656472 42.8530811,45.913309 40.8543002,44.8102063 C42.8313377,43.700809 43.8194538,43.1461104 45.7956859,42.0375 C47.7944668,43.1413896 48.7938572,43.6937278 50.7918327,44.7968305" id="Fill-104" fill="#A89A88"></path>
                        <path d="M57.4168544,41.4780805 C55.4404621,42.5874778 54.4514605,43.1413896 52.4750682,44.25 C50.4769308,43.1468972 49.4774594,42.5953458 47.4793219,41.4914563 C49.4557142,40.382059 50.4439104,39.8281472 52.4203027,38.71875 C54.4192455,39.8226396 55.4187169,40.3749778 57.4168544,41.4780805" id="Fill-106" fill="#A89A88"></path>
                        <path d="M64.041876,37.0522937 C62.0654837,38.161691 61.0764822,38.7156028 59.1000899,39.825 C57.1019524,38.7211104 56.102481,38.169559 54.1043436,37.0664563 C56.0807359,35.9562722 57.068932,35.4023604 59.0453243,34.29375 C61.0442672,35.3968528 62.0437386,35.949191 64.041876,37.0522937" id="Fill-108" fill="#A89A88"></path>
                        <path d="M70.6668977,33.7343305 C68.6898602,34.842941 67.7017442,35.3976396 65.725512,36.50625 C63.7267312,35.4031472 62.7281461,34.8515958 60.7293652,33.7477063 C62.7064027,32.638309 63.6945188,32.0836104 65.6707509,30.975 C67.6695317,32.0788896 68.6689222,32.630441 70.6668977,33.7343305" id="Fill-110" fill="#A89A88"></path>
                        <path d="M77.2919194,29.3093305 C75.3156872,30.417941 74.3267658,30.9726396 72.3505337,32.08125 C70.3517528,30.9781472 69.3531677,30.4265958 67.3543869,29.3227063 C69.3314243,28.213309 70.3195404,27.6586104 72.2957726,26.55 C74.2945534,27.6538896 75.2939438,28.2062278 77.2919194,29.3093305" id="Fill-112" fill="#A89A88"></path>
                        <path d="M85.0211113,25.9909748 C83.044719,27.0994275 82.0557175,27.6532606 80.0793251,28.7625 C78.0811877,27.6587674 77.0817163,27.1072945 75.0835788,26.0043486 C77.0599711,24.8943225 78.0481673,24.3404894 80.025365,23.23125 C82.0235024,24.3357693 83.0229738,24.8872422 85.0211113,25.9909748" id="Fill-114" fill="#A89A88"></path>
                        <path d="M91.646133,21.5655805 C89.6697407,22.674191 88.6807391,23.2288896 86.7043468,24.3375 C84.7062094,23.2343972 83.7075433,22.682059 81.7086005,21.5789563 C83.6849928,20.469559 84.6731889,19.9148604 86.6503866,18.80625 C88.6485241,19.9101396 89.6479955,20.4624778 91.646133,21.5655805" id="Fill-116" fill="#A89A88"></path>
                        <path d="M100.479495,15.7839149 C97.4757253,17.4357782 95.9742141,18.2606367 92.9696969,19.9125 C91.1154165,18.9080756 90.1871552,18.4065787 88.3336221,17.4035851 C91.337392,15.7517218 92.8389032,14.9261479 95.8434204,13.275 C97.6977009,14.278709 98.6252148,14.7809213 100.479495,15.7839149" id="Fill-118" fill="#A89A88"></path>
                        <path d="M104.896176,13.8222231 C102.919784,14.9309913 101.931588,15.4849819 99.9543901,16.59375 C97.957058,15.4904903 96.9575866,14.9388604 94.9586438,13.8348138 C96.9350361,12.7252587 97.9240376,12.1712681 99.9004299,11.0625 C101.898567,12.1665466 102.898039,12.7181765 104.896176,13.8222231" id="Fill-120" fill="#A89A88"></path>
                        <path d="M37.5417894,61.3909731 C35.5652369,62.4997413 34.5769607,63.0537319 32.6004082,64.1625 C30.6021088,63.0592403 29.6025563,62.5076104 27.6042569,61.4043507 C29.5808094,60.2947957 30.5690857,59.7400181 32.5456382,58.63125 C34.5439376,59.7352966 35.54349,60.2869265 37.5417894,61.3909731" id="Fill-122" fill="#A89A88"></path>
                        <path d="M44.1668111,56.9659731 C42.1902586,58.0747413 41.2019823,58.6287319 39.2254298,59.7375 C37.226325,58.6342403 36.227578,58.0826104 34.2292786,56.9793507 C36.2058311,55.8690087 37.1941073,55.3150181 39.1706598,54.20625 C41.1689592,55.3102966 42.1685117,55.8619265 44.1668111,56.9659731" id="Fill-124" fill="#A89A88"></path>
                        <path d="M50.7918327,53.6468305 C48.8154404,54.755441 47.8264389,55.3101396 45.8500466,56.41875 C43.8519091,55.3156472 42.8532431,54.7640958 40.8543002,53.6602063 C42.8314979,52.550809 43.8196941,51.9961104 45.7960864,50.8875 C47.7942239,51.9913896 48.7936953,52.5437278 50.7918327,53.6468305" id="Fill-126" fill="#A89A88"></path>
                        <path d="M91.646133,29.2511119 C78.5081469,36.832248 65.3709273,44.4133841 52.2337077,51.99375 C50.3321067,50.9131512 49.3809229,50.3732369 47.4793219,49.2926381 C60.6165415,41.7122722 73.7545275,34.1311361 86.8917471,26.55 C88.7933482,27.6305988 89.7445319,28.1712833 91.646133,29.2511119" id="Fill-128" fill="#A89A88"></path>
                        <path d="M99.3753249,25.9905805 C97.3989326,27.099191 96.4099311,27.6531028 94.4335387,28.7625 C92.4354013,27.6586104 91.4367352,27.107059 89.4377924,26.0039563 C91.4141847,24.894559 92.4031863,24.3398604 94.3795786,23.23125 C96.377716,24.3351396 97.3771874,24.886691 99.3753249,25.9905805" id="Fill-130" fill="#A89A88"></path>
                        <path d="M106.000347,21.5651862 C104.023954,22.6747413 103.034953,23.2287319 101.05856,24.3375 C99.0604229,23.2342403 98.0617569,22.6826104 96.0628141,21.5793507 C98.0392064,20.4690087 99.0282079,19.9150181 101.0046,18.80625 C103.002738,19.9095097 104.002209,20.4619265 106.000347,21.5651862" id="Fill-132" fill="#A89A88"></path>
                        <path d="M112.625368,18.2464362 C110.648816,19.3552043 109.659734,19.9099819 107.683182,21.01875 C105.685688,19.9154903 104.686135,19.3638604 102.687836,18.2598138 C104.664388,17.1502587 105.652664,16.5962681 107.629217,15.4875 C109.627516,16.5907597 110.627069,17.1431765 112.625368,18.2464362" id="Fill-134" fill="#A89A88"></path>
                        <polygon id="Fill-136" fill="#8E7657" points="59.6251949 53.9502818 91.9471313 35.4 110.417028 46.7116293 78.1065576 65.26875"></polygon>
                    </g>
                    <polygon id="Fill-138" fill="#806CBE" points="134.708774 52.9256024 140.228873 49.78125 140.229625 50.0098222 134.804298 53.1"></polygon>
                    <polygon id="Fill-140" fill="#806CBE" points="130.402742 55.3125 130.292093 55.1790888 132.500433 54.20625 132.394427 54.4352922"></polygon>
                    <polygon id="Fill-142" fill="#806CBE" points="138.021285 58.4319335 141.332969 56.41875 141.333795 56.6789929 138.122966 58.63125"></polygon>
                    <polygon id="Fill-144" fill="#FF7B5B" points="138.267078 58.7011262 141.333795 64.0773975 137.546466 66.1433138 126.979582 71.90625 132.156383 58.0922402 133.145166 55.4537339 133.252591 55.1663278 134.441326 51.99375 135.539103 53.9189262 135.638687 54.0929995 138.17063 58.5314974"></polygon>
                    <polygon id="Fill-146" fill="#85BCD6" points="130.390173 56.4332144 131.396263 57.9830563 126.337462 71.90625 122.562901 70.5124375 124.363595 65.9121845 124.475468 65.6255085 127.418645 58.1047442 127.533583 57.8091097 128.944254 54.20625 130.280599 56.2644937"></polygon>
                    <polygon id="Fill-148" fill="#FF7B5B" points="119.232095 68.6241313 123.144763 70.1403475 126.979582 71.6270994 121.35269 74.9501931 111.521198 80.75625 117.932025 70.5146236 119.046037 68.7340251 119.137899 68.5875"></polygon>
                    <polygon id="Fill-150" fill="#806CBE" points="117.16579 69.69375 117.042049 69.5430308 124.771241 65.26875 124.658958 65.5497024 119.024951 68.6650546 118.932528 68.6313988 118.842396 68.7660218"></polygon>
                    <polygon id="Fill-152" fill="#85BCD6" points="117.56478 69.5218348 118.14622 70.2307332 111.878999 79.65 110.417028 76.90961 112.368352 72.4079591 112.493925 72.1194199 114.984831 66.375 117.44149 69.3709742"></polygon>
                    <polygon id="Fill-154" fill="#806CBE" points="108.292629 75.225 108.208687 75.0520309 111.521198 73.0125 111.405514 73.3088035"></polygon>
                    <polygon id="Fill-156" fill="#806CBE" points="106.094747 70.8 106.000347 70.6109925 128.083752 57.525 127.967687 57.8394831"></polygon>
                    <polygon id="Fill-158" fill="#FF7B5B" points="108.748634 75.5921776 110.108066 78.3452446 111.521198 81.206935 108.146895 83.2332964 99.3753249 88.5 103.395505 74.963386 104.262069 72.0473839 104.347401 71.7597614 105.289735 68.5875 106.28209 70.5977973 106.372572 70.7798562 108.661095 75.4162383"></polygon>
                    <polygon id="Fill-160" fill="#806CBE" points="101.690874 71.90625 101.583665 71.7693821 103.792006 70.8 103.701231 71.0237493"></polygon>
                    <polygon id="Fill-162" fill="#806CBE" points="99.3753249 67.3054753 141.333026 43.14375 141.333795 43.3809307 99.4807559 67.48125"></polygon>
                    <polygon id="Fill-164" fill="#806CBE" points="140.228869 37.6125 140.229625 37.8483444 70.933659 78.3875414 70.6676534 78.54375 70.6668977 78.3079056 70.9329033 78.151697"></polygon>
                    <polygon id="Fill-166" fill="#806CBE" points="70.6668977 83.8452572 70.9309337 83.6930899 97.1669843 68.5875 97.0502999 68.8851214 70.9316817 83.9235786 70.6676457 84.075"></polygon>
                    <polygon id="Fill-168" fill="#806CBE" points="91.7578545 78.54375 91.646133 78.4330728 93.8544735 77.4375 93.7501109 77.6463249"></polygon>
                    <polygon id="Fill-170" fill="#806CBE" points="70.6668977 97.1191237 70.9475244 96.9616028 76.1877491 94.03125 76.0290994 94.351697 70.9483216 97.1924791 70.6676949 97.35"></polygon>
                    <polygon id="Fill-172" fill="#FF7B5B" points="91.1193298 78.4527557 92.27099 79.9115803 98.2711546 87.5111777 86.6542129 94.1846673 77.2919194 99.5625 81.3242277 89.7023949 84.3306748 82.3523922 84.4534786 82.0521336 87.6980454 74.11875 90.9942796 78.2948033"></polygon>
                    <polygon id="Fill-174" fill="#85BCD6" points="78.7011328 87.39375 81.7086005 89.9222197 77.5771685 100.019313 70.6668977 103.9875 75.5363868 93.9308437 75.6890618 93.6149757"></polygon>
                    <polygon id="Fill-176" fill="#806CBE" points="70.6668977 90.4704863 70.9332068 90.3101916 85.0211113 81.8625 84.8970355 82.1799465 70.9339634 90.552991 70.6676543 90.7125"></polygon>
                    <polygon id="Fill-178" fill="#85BCD6" points="101.66223 72.8761109 102.687836 74.6933321 98.6584089 88.5 92.7503032 80.5413669 93.8120369 77.6723577 93.9270581 77.3610347 97.0525367 68.9147403 97.1675578 68.6034173 97.9918761 66.375 98.7159195 67.6577444 98.8169316 67.8364235 101.561218 72.6966515"></polygon>
                    <polygon id="Fill-180" fill="#806CBE" points="140.228869 29.86875 140.229625 30.0977457 70.6676534 70.8 70.6668977 70.5717702"></polygon>
                    <polygon id="Fill-182" fill="#806CBE" points="70.9364001 71.5147947 70.9554867 78.1599477 70.6859843 78.3152296 70.6867477 78.5496749 70.9554867 78.3951542 70.9730464 84.3651353 70.7043074 84.519656 70.7043074 84.7548625 70.9738098 84.5995805 70.9913695 90.9661395 70.7226305 91.1214214 70.723394 91.3558667 70.9921329 91.2013459 71.0096926 97.171327 70.7401902 97.326609 70.7409536 97.5534424 71.0096926 97.3989216 71.0310696 104.630949 141.333032 64.1625 141.333795 64.4707803 70.7623306 105.09375 70.6668977 71.6693155"></polygon>
                    <path d="M148.516742,2.59053946 L61.7226163,52.0566745 C59.833265,53.1336102 58.6653024,55.1325488 58.6599588,57.2985719 L58.5210247,134.9625 L61.3523798,133.355451 C78.2305846,108.538841 141.827294,14.995047 150.167158,2.22143454 C149.621345,2.17890393 149.051104,2.28598993 148.516742,2.59053946" id="Fill-184" fill="#FFFFFF" opacity="0.34448596"></path>
                </g>
                <g id="Group-2" transform="translate(104.500000, 70.000000) rotate(4.000000) translate(-104.500000, -70.000000) translate(90.000000, 51.000000)">
                    <ellipse id="Oval" fill="#FFFFFF" opacity="0.835427989" cx="14.5" cy="19" rx="14.5" ry="19"></ellipse>
                    <polyline id="Path-2" stroke="#ABD382" stroke-width="3" stroke-linecap="round" stroke-linejoin="round" points="7.61704934 24.2107037 14.8563093 30.2777534 21.6579146 8.13433707"></polyline>
                </g>
            </g>
        </g>
    </g>
</svg>