<?xml version="1.0" encoding="UTF-8"?>
<svg width="23px" height="23px" viewBox="0 0 23 23" version="1.1" xmlns="http://www.w3.org/2000/svg" xmlns:xlink="http://www.w3.org/1999/xlink">
    <!-- Generator: Sketch 49.1 (51147) - http://www.bohemiancoding.com/sketch -->
    <title>Fill 5</title>
    <desc>Created with Sketch.</desc>
    <defs></defs>
    <g id="Page-1" stroke="none" stroke-width="1" fill="none" fill-rule="evenodd">
        <g id="Artboard" transform="translate(-156.000000, -936.000000)">
            <g id="Page-1" transform="translate(125.000000, 811.000000)">
                <g id="Group-190">
                    <path d="M45.4635836,125.323787 L30.76457,136.160856 C30.76457,136.160856 30.8261954,136.39361 31.1909633,136.537052 C31.5561843,136.680494 31.7673419,136.644408 31.7673419,136.644408 L47.2208133,126.115423 C47.2208133,126.115423 46.3304171,125.909282 46.0068839,125.66931 C45.6833506,125.428436 45.4635836,125.323787 45.4635836,125.323787" id="Fill-3" fill="#C7B1B0"></path>
                    <path d="M31.4913418,136.400557 L36.7227025,146.27007 L37.5655203,147.637278 L53.6733083,135.769503 C53.6733083,135.769503 51.9767977,133.248898 50.9581663,131.726972 C49.939535,130.205046 47.9398819,126.615845 47.8311312,126.385797 C47.7219274,126.1562 47.5986766,125.690691 47.5986766,125.690691 L31.4913418,136.400557 Z" id="Fill-5" fill="#8D5C5C"></path>
                </g>
            </g>
        </g>
    </g>
</svg>