<?xml version="1.0" encoding="UTF-8"?>
<svg width="26px" height="26px" viewBox="0 0 26 26" version="1.1" xmlns="http://www.w3.org/2000/svg" xmlns:xlink="http://www.w3.org/1999/xlink">
    <!-- Generator: Sketch 49.1 (51147) - http://www.bohemiancoding.com/sketch -->
    <title>376007</title>
    <desc>Created with Sketch.</desc>
    <defs></defs>
    <g id="Page-1" stroke="none" stroke-width="1" fill="none" fill-rule="evenodd">
        <g id="Artboard" transform="translate(-270.000000, -2280.000000)" fill="#009E96" fill-rule="nonzero">
            <g id="376007" transform="translate(270.000000, 2280.000000)">
                <path d="M24.78565,0 L15.0713717,0 C14.4007504,0 13.8570739,0.543677759 13.8570739,1.21430062 C13.8570739,1.88492348 14.4007504,2.42860124 15.0713717,2.42860124 L21.8541275,2.42860124 L9.35567244,14.9271372 C8.88144252,15.4013682 8.88144252,16.1701349 9.35567244,16.6443659 C9.59270914,16.8814553 9.90347087,17 10.2142326,17 C10.5249943,17 10.8358083,16.8815075 11.0728971,16.6443137 L23.5714043,4.14582988 L23.5714043,10.9286012 C23.5714043,11.5992241 24.1150809,12.1429019 24.7857022,12.1429019 C25.4563235,12.1429019 26,11.5992241 26,10.9286012 L26,1.21430062 C25.9999478,0.543677759 25.4562713,0 24.78565,0 Z" id="Shape"></path>
                <path d="M19.8332721,11.9999833 C19.1889499,11.9999833 18.6665943,12.5223402 18.6665943,13.1666639 L18.6665943,23.6666889 L2.33330548,23.6666889 L2.33330548,7.33331105 L12.8333055,7.33331105 C13.4776277,7.33331105 13.9999833,6.81095417 13.9999833,6.16663046 C13.9999833,5.52230675 13.4776277,5 12.8333055,5 L1.16667781,5 C0.522355637,5 0,5.52235688 0,6.16668059 L0,24.8333695 C0,25.4776431 0.522355637,26 1.16667781,26 L19.8333222,26 C20.4776444,26 21,25.4776431 21,24.8333194 L21,13.1666639 C20.9999499,12.5223402 20.4775942,11.9999833 19.8332721,11.9999833 Z" id="Shape"></path>
            </g>
        </g>
    </g>
</svg>