<?xml version="1.0" encoding="UTF-8"?>
<svg width="30px" height="30px" viewBox="0 0 30 30" version="1.1" xmlns="http://www.w3.org/2000/svg" xmlns:xlink="http://www.w3.org/1999/xlink">
    <!-- Generator: Sketch 49.1 (51147) - http://www.bohemiancoding.com/sketch -->
    <title>sunny</title>
    <desc>Created with Sketch.</desc>
    <defs></defs>
    <g id="Page-1" stroke="none" stroke-width="1" fill="none" fill-rule="evenodd">
        <g id="2_web" transform="translate(-93.000000, -1417.000000)">
            <g id="Group-5-Copy" transform="translate(89.000000, 1419.000000)"></g>
            <g id="sunny" transform="translate(93.000000, 1417.000000)" fill-rule="nonzero">
                <g id="Group" fill="#F6A623">
                    <path d="M15,0 C14.724,0 14.5,0.224 14.5,0.5 L14.5,3.5 C14.5,3.776 14.724,4 15,4 C15.276,4 15.5,3.776 15.5,3.5 L15.5,0.5 C15.5,0.224 15.276,0 15,0 Z" id="Shape"></path>
                    <path d="M15,26 C14.724,26 14.5,26.224 14.5,26.5 L14.5,29.5 C14.5,29.776 14.724,30 15,30 C15.276,30 15.5,29.776 15.5,29.5 L15.5,26.5 C15.5,26.224 15.276,26 15,26 Z" id="Shape"></path>
                    <path d="M29.5,14.5 L26.5,14.5 C26.224,14.5 26,14.724 26,15 C26,15.276 26.224,15.5 26.5,15.5 L29.5,15.5 C29.776,15.5 30,15.276 30,15 C30,14.724 29.776,14.5 29.5,14.5 Z" id="Shape"></path>
                    <path d="M4,15 C4,14.724 3.776,14.5 3.5,14.5 L0.5,14.5 C0.224,14.5 0,14.724 0,15 C0,15.276 0.224,15.5 0.5,15.5 L3.5,15.5 C3.776,15.5 4,15.276 4,15 Z" id="Shape"></path>
                    <path d="M23.132,7.368 C23.26,7.368 23.388,7.319 23.4855,7.2215 L26.3535,4.3535 C26.549,4.158 26.549,3.842 26.3535,3.6465 C26.158,3.451 25.842,3.451 25.6465,3.6465 L22.7785,6.5145 C22.583,6.71 22.583,7.026 22.7785,7.2215 C22.876,7.3195 23.004,7.368 23.132,7.368 Z" id="Shape"></path>
                    <path d="M6.5145,22.7785 L3.6465,25.6465 C3.451,25.842 3.451,26.158 3.6465,26.3535 C3.744,26.451 3.872,26.5 4,26.5 C4.128,26.5 4.256,26.451 4.3535,26.3535 L7.2215,23.4855 C7.417,23.29 7.417,22.974 7.2215,22.7785 C7.026,22.583 6.71,22.583 6.5145,22.7785 Z" id="Shape"></path>
                    <path d="M23.4855,22.7785 C23.29,22.583 22.974,22.583 22.7785,22.7785 C22.583,22.974 22.583,23.29 22.7785,23.4855 L25.6465,26.3535 C25.744,26.451 25.872,26.5 26,26.5 C26.128,26.5 26.256,26.451 26.3535,26.3535 C26.549,26.158 26.549,25.842 26.3535,25.6465 L23.4855,22.7785 Z" id="Shape"></path>
                    <path d="M4.3535,3.6465 C4.158,3.451 3.842,3.451 3.6465,3.6465 C3.451,3.842 3.451,4.158 3.6465,4.3535 L6.5145,7.2215 C6.612,7.319 6.74,7.368 6.868,7.368 C6.996,7.368 7.124,7.319 7.2215,7.2215 C7.417,7.026 7.417,6.71 7.2215,6.5145 L4.3535,3.6465 Z" id="Shape"></path>
                    <path d="M25.1255,10.702 C25.2065,10.8925 25.3915,11.007 25.586,11.007 C25.651,11.007 25.7175,10.994 25.781,10.967 L27.162,10.381 C27.416,10.273 27.535,9.9795 27.427,9.7255 C27.319,9.4715 27.025,9.3525 26.7715,9.4605 L25.3905,10.0465 C25.136,10.1545 25.0175,10.448 25.1255,10.702 Z" id="Shape"></path>
                    <path d="M4.8745,19.298 C4.7665,19.044 4.473,18.925 4.219,19.033 L2.838,19.619 C2.584,19.727 2.465,20.0205 2.573,20.2745 C2.654,20.465 2.839,20.5795 3.0335,20.5795 C3.0985,20.5795 3.165,20.5665 3.2285,20.5395 L4.6095,19.9535 C4.864,19.8455 4.9825,19.552 4.8745,19.298 Z" id="Shape"></path>
                    <path d="M27.2405,19.4065 L25.85,18.844 C25.5945,18.7405 25.3025,18.8645 25.199,19.1205 C25.0955,19.3765 25.2195,19.668 25.4755,19.7715 L26.8665,20.3335 C26.928,20.358 26.9915,20.37 27.0535,20.37 C27.2515,20.37 27.439,20.252 27.5175,20.057 C27.6205,19.8015 27.497,19.51 27.2405,19.4065 Z" id="Shape"></path>
                    <path d="M2.7595,10.594 L4.15,11.156 C4.2115,11.1805 4.275,11.1925 4.337,11.1925 C4.535,11.1925 4.7225,11.0745 4.801,10.8795 C4.9045,10.6235 4.7805,10.332 4.5245,10.2285 L3.1335,9.6665 C2.877,9.563 2.586,9.6865 2.4825,9.943 C2.3795,10.1985 2.503,10.49 2.7595,10.594 Z" id="Shape"></path>
                    <path d="M19.9535,25.3905 C19.8455,25.1365 19.552,25.018 19.298,25.1255 C19.044,25.2335 18.925,25.527 19.033,25.781 L19.619,27.162 C19.7,27.3525 19.885,27.467 20.0795,27.467 C20.1445,27.467 20.211,27.454 20.2745,27.427 C20.5285,27.319 20.6475,27.0255 20.5395,26.7715 L19.9535,25.3905 Z" id="Shape"></path>
                    <path d="M10.507,4.9145 C10.572,4.9145 10.6385,4.9015 10.702,4.8745 C10.956,4.7665 11.075,4.473 10.967,4.219 L10.381,2.838 C10.2735,2.5835 9.98,2.4645 9.7255,2.573 C9.4715,2.681 9.3525,2.9745 9.4605,3.2285 L10.0465,4.6095 C10.127,4.8 10.3125,4.9145 10.507,4.9145 Z" id="Shape"></path>
                    <path d="M10.8795,25.199 C10.624,25.0965 10.332,25.219 10.2285,25.4755 L9.6665,26.8665 C9.563,27.1225 9.687,27.414 9.943,27.5175 C10.0045,27.542 10.068,27.554 10.13,27.554 C10.328,27.554 10.5155,27.436 10.594,27.241 L11.156,25.85 C11.2595,25.594 11.1355,25.3025 10.8795,25.199 Z" id="Shape"></path>
                    <path d="M19.3075,4.8375 C19.5055,4.8375 19.693,4.7195 19.7715,4.5245 L20.3335,3.1335 C20.437,2.8775 20.313,2.586 20.057,2.4825 C19.8015,2.379 19.5095,2.503 19.406,2.759 L18.844,4.15 C18.7405,4.406 18.8645,4.6975 19.1205,4.801 C19.182,4.8255 19.2455,4.8375 19.3075,4.8375 Z" id="Shape"></path>
                </g>
                <circle id="Oval" fill="#F6A623" cx="15" cy="15" r="10"></circle>
                <circle id="Oval" fill="#EDE21B" cx="15" cy="15" r="7.5"></circle>
            </g>
        </g>
    </g>
</svg>